G04 #@! TF.GenerationSoftware,KiCad,Pcbnew,(5.1.5)-3*
G04 #@! TF.CreationDate,2020-06-04T11:53:39+03:00*
G04 #@! TF.ProjectId,kelvin,6b656c76-696e-42e6-9b69-6361645f7063,rev?*
G04 #@! TF.SameCoordinates,Original*
G04 #@! TF.FileFunction,Copper,L1,Top*
G04 #@! TF.FilePolarity,Positive*
%FSLAX46Y46*%
G04 Gerber Fmt 4.6, Leading zero omitted, Abs format (unit mm)*
G04 Created by KiCad (PCBNEW (5.1.5)-3) date 2020-06-04 11:53:39*
%MOMM*%
%LPD*%
G04 APERTURE LIST*
%ADD10C,0.150000*%
%ADD11C,2.100000*%
%ADD12C,3.200000*%
%ADD13R,4.000000X4.000000*%
%ADD14C,1.000000*%
%ADD15C,0.600000*%
%ADD16C,0.300000*%
%ADD17C,1.000000*%
%ADD18C,0.254000*%
G04 APERTURE END LIST*
D10*
X155785714Y-80547619D02*
X155833333Y-80500000D01*
X155928571Y-80452380D01*
X156166666Y-80452380D01*
X156261904Y-80500000D01*
X156309523Y-80547619D01*
X156357142Y-80642857D01*
X156357142Y-80738095D01*
X156309523Y-80880952D01*
X155738095Y-81452380D01*
X156357142Y-81452380D01*
X156690476Y-80452380D02*
X157309523Y-80452380D01*
X156976190Y-80833333D01*
X157119047Y-80833333D01*
X157214285Y-80880952D01*
X157261904Y-80928571D01*
X157309523Y-81023809D01*
X157309523Y-81261904D01*
X157261904Y-81357142D01*
X157214285Y-81404761D01*
X157119047Y-81452380D01*
X156833333Y-81452380D01*
X156738095Y-81404761D01*
X156690476Y-81357142D01*
X157690476Y-80547619D02*
X157738095Y-80500000D01*
X157833333Y-80452380D01*
X158071428Y-80452380D01*
X158166666Y-80500000D01*
X158214285Y-80547619D01*
X158261904Y-80642857D01*
X158261904Y-80738095D01*
X158214285Y-80880952D01*
X157642857Y-81452380D01*
X158261904Y-81452380D01*
X158880952Y-80452380D02*
X158976190Y-80452380D01*
X159071428Y-80500000D01*
X159119047Y-80547619D01*
X159166666Y-80642857D01*
X159214285Y-80833333D01*
X159214285Y-81071428D01*
X159166666Y-81261904D01*
X159119047Y-81357142D01*
X159071428Y-81404761D01*
X158976190Y-81452380D01*
X158880952Y-81452380D01*
X158785714Y-81404761D01*
X158738095Y-81357142D01*
X158690476Y-81261904D01*
X158642857Y-81071428D01*
X158642857Y-80833333D01*
X158690476Y-80642857D01*
X158738095Y-80547619D01*
X158785714Y-80500000D01*
X158880952Y-80452380D01*
X156119047Y-79452380D02*
X156119047Y-78785714D01*
X156119047Y-78976190D02*
X156166666Y-78880952D01*
X156214285Y-78833333D01*
X156309523Y-78785714D01*
X156404761Y-78785714D01*
X157119047Y-79404761D02*
X157023809Y-79452380D01*
X156833333Y-79452380D01*
X156738095Y-79404761D01*
X156690476Y-79309523D01*
X156690476Y-78928571D01*
X156738095Y-78833333D01*
X156833333Y-78785714D01*
X157023809Y-78785714D01*
X157119047Y-78833333D01*
X157166666Y-78928571D01*
X157166666Y-79023809D01*
X156690476Y-79119047D01*
X157500000Y-78785714D02*
X157738095Y-79452380D01*
X157976190Y-78785714D01*
X158690476Y-78928571D02*
X158833333Y-78976190D01*
X158880952Y-79023809D01*
X158928571Y-79119047D01*
X158928571Y-79261904D01*
X158880952Y-79357142D01*
X158833333Y-79404761D01*
X158738095Y-79452380D01*
X158357142Y-79452380D01*
X158357142Y-78452380D01*
X158690476Y-78452380D01*
X158785714Y-78500000D01*
X158833333Y-78547619D01*
X158880952Y-78642857D01*
X158880952Y-78738095D01*
X158833333Y-78833333D01*
X158785714Y-78880952D01*
X158690476Y-78928571D01*
X158357142Y-78928571D01*
D11*
X127000000Y-87000000D03*
D12*
X146000000Y-89000000D03*
X146000000Y-80000000D03*
D13*
X128000000Y-81000000D03*
X106000000Y-81000000D03*
X106000000Y-87000000D03*
X122000000Y-81000000D03*
X122000000Y-87000000D03*
X112000000Y-81000000D03*
D14*
X105000000Y-82000000D03*
X121000000Y-82000000D03*
D15*
X147000000Y-93000000D03*
X151500000Y-93000000D03*
X142000000Y-93000000D03*
X139500000Y-91000000D03*
X130500000Y-91000000D03*
X124000000Y-91000000D03*
X120500000Y-91000000D03*
X107500000Y-91000000D03*
X104500000Y-91000000D03*
X102500000Y-91000000D03*
X102500000Y-78000000D03*
X117500000Y-78000000D03*
X132000000Y-78000000D03*
X151500000Y-78000000D03*
X113500000Y-91000000D03*
X151500000Y-85000000D03*
X102500000Y-84000000D03*
D16*
X106000000Y-81000000D02*
X106000000Y-82000000D01*
D17*
X106000000Y-81000000D02*
X105000000Y-82000000D01*
X106000000Y-87000000D02*
X106000000Y-95000000D01*
X122000000Y-81000000D02*
X121000000Y-82000000D01*
X122000000Y-87000000D02*
X122000000Y-94000000D01*
D18*
G36*
X152873000Y-93839466D02*
G01*
X152867581Y-93840000D01*
X152770617Y-93849550D01*
X152646207Y-93887290D01*
X152531550Y-93948575D01*
X152431052Y-94031052D01*
X152348575Y-94131550D01*
X152287290Y-94246207D01*
X152249550Y-94370617D01*
X152236807Y-94500000D01*
X152240000Y-94532419D01*
X152240001Y-107967711D01*
X152211375Y-108259660D01*
X152135965Y-108509429D01*
X152013477Y-108739794D01*
X151848579Y-108941979D01*
X151647546Y-109108288D01*
X151418046Y-109232378D01*
X151168805Y-109309531D01*
X150878911Y-109340000D01*
X142732279Y-109340000D01*
X142440340Y-109311375D01*
X142190571Y-109235965D01*
X141960206Y-109113477D01*
X141758021Y-108948579D01*
X141591712Y-108747546D01*
X141467622Y-108518046D01*
X141390469Y-108268805D01*
X141360000Y-107978911D01*
X141360000Y-94532419D01*
X141363193Y-94500000D01*
X141350450Y-94370617D01*
X141312710Y-94246207D01*
X141251425Y-94131550D01*
X141168948Y-94031052D01*
X141068450Y-93948575D01*
X140953793Y-93887290D01*
X140829383Y-93849550D01*
X140732419Y-93840000D01*
X140700000Y-93836807D01*
X140667581Y-93840000D01*
X140627000Y-93840000D01*
X140627000Y-92627000D01*
X152873000Y-92627000D01*
X152873000Y-93839466D01*
G37*
X152873000Y-93839466D02*
X152867581Y-93840000D01*
X152770617Y-93849550D01*
X152646207Y-93887290D01*
X152531550Y-93948575D01*
X152431052Y-94031052D01*
X152348575Y-94131550D01*
X152287290Y-94246207D01*
X152249550Y-94370617D01*
X152236807Y-94500000D01*
X152240000Y-94532419D01*
X152240001Y-107967711D01*
X152211375Y-108259660D01*
X152135965Y-108509429D01*
X152013477Y-108739794D01*
X151848579Y-108941979D01*
X151647546Y-109108288D01*
X151418046Y-109232378D01*
X151168805Y-109309531D01*
X150878911Y-109340000D01*
X142732279Y-109340000D01*
X142440340Y-109311375D01*
X142190571Y-109235965D01*
X141960206Y-109113477D01*
X141758021Y-108948579D01*
X141591712Y-108747546D01*
X141467622Y-108518046D01*
X141390469Y-108268805D01*
X141360000Y-107978911D01*
X141360000Y-94532419D01*
X141363193Y-94500000D01*
X141350450Y-94370617D01*
X141312710Y-94246207D01*
X141251425Y-94131550D01*
X141168948Y-94031052D01*
X141068450Y-93948575D01*
X140953793Y-93887290D01*
X140829383Y-93849550D01*
X140732419Y-93840000D01*
X140700000Y-93836807D01*
X140667581Y-93840000D01*
X140627000Y-93840000D01*
X140627000Y-92627000D01*
X152873000Y-92627000D01*
X152873000Y-93839466D01*
G36*
X133873000Y-93879162D02*
G01*
X133846207Y-93887290D01*
X133731550Y-93948575D01*
X133631052Y-94031052D01*
X133548575Y-94131550D01*
X133487290Y-94246207D01*
X133449550Y-94370617D01*
X133436807Y-94500000D01*
X133440001Y-94532429D01*
X133440000Y-96032418D01*
X133440001Y-96032428D01*
X133440000Y-107967721D01*
X133411375Y-108259660D01*
X133335965Y-108509429D01*
X133213477Y-108739794D01*
X133048579Y-108941979D01*
X132847546Y-109108288D01*
X132618046Y-109232378D01*
X132368805Y-109309531D01*
X132078911Y-109340000D01*
X121932279Y-109340000D01*
X121640340Y-109311375D01*
X121390571Y-109235965D01*
X121160206Y-109113477D01*
X120958021Y-108948579D01*
X120791712Y-108747546D01*
X120667622Y-108518046D01*
X120590469Y-108268805D01*
X120560000Y-107978911D01*
X120560000Y-96032418D01*
X120563193Y-96000000D01*
X120560000Y-95967581D01*
X120560000Y-94532419D01*
X120563193Y-94500000D01*
X120550450Y-94370617D01*
X120512710Y-94246207D01*
X120451425Y-94131550D01*
X120368948Y-94031052D01*
X120268450Y-93948575D01*
X120153793Y-93887290D01*
X120127000Y-93879162D01*
X120127000Y-92627000D01*
X133873000Y-92627000D01*
X133873000Y-93879162D01*
G37*
X133873000Y-93879162D02*
X133846207Y-93887290D01*
X133731550Y-93948575D01*
X133631052Y-94031052D01*
X133548575Y-94131550D01*
X133487290Y-94246207D01*
X133449550Y-94370617D01*
X133436807Y-94500000D01*
X133440001Y-94532429D01*
X133440000Y-96032418D01*
X133440001Y-96032428D01*
X133440000Y-107967721D01*
X133411375Y-108259660D01*
X133335965Y-108509429D01*
X133213477Y-108739794D01*
X133048579Y-108941979D01*
X132847546Y-109108288D01*
X132618046Y-109232378D01*
X132368805Y-109309531D01*
X132078911Y-109340000D01*
X121932279Y-109340000D01*
X121640340Y-109311375D01*
X121390571Y-109235965D01*
X121160206Y-109113477D01*
X120958021Y-108948579D01*
X120791712Y-108747546D01*
X120667622Y-108518046D01*
X120590469Y-108268805D01*
X120560000Y-107978911D01*
X120560000Y-96032418D01*
X120563193Y-96000000D01*
X120560000Y-95967581D01*
X120560000Y-94532419D01*
X120563193Y-94500000D01*
X120550450Y-94370617D01*
X120512710Y-94246207D01*
X120451425Y-94131550D01*
X120368948Y-94031052D01*
X120268450Y-93948575D01*
X120153793Y-93887290D01*
X120127000Y-93879162D01*
X120127000Y-92627000D01*
X133873000Y-92627000D01*
X133873000Y-93879162D01*
G36*
X115373000Y-93840000D02*
G01*
X115332419Y-93840000D01*
X115300000Y-93836807D01*
X115267581Y-93840000D01*
X115170617Y-93849550D01*
X115046207Y-93887290D01*
X114931550Y-93948575D01*
X114831052Y-94031052D01*
X114748575Y-94131550D01*
X114687290Y-94246207D01*
X114649550Y-94370617D01*
X114636807Y-94500000D01*
X114640001Y-94532429D01*
X114640000Y-96032418D01*
X114640001Y-96032428D01*
X114640000Y-107967721D01*
X114611375Y-108259660D01*
X114535965Y-108509429D01*
X114413477Y-108739794D01*
X114248579Y-108941979D01*
X114047546Y-109108288D01*
X113818046Y-109232378D01*
X113568805Y-109309531D01*
X113278911Y-109340000D01*
X103132279Y-109340000D01*
X102840340Y-109311375D01*
X102590571Y-109235965D01*
X102360206Y-109113477D01*
X102158021Y-108948579D01*
X101991712Y-108747546D01*
X101867622Y-108518046D01*
X101790469Y-108268805D01*
X101760000Y-107978911D01*
X101760000Y-94532419D01*
X101763193Y-94500000D01*
X101750450Y-94370617D01*
X101712710Y-94246207D01*
X101651425Y-94131550D01*
X101568948Y-94031052D01*
X101468450Y-93948575D01*
X101353793Y-93887290D01*
X101229383Y-93849550D01*
X101132419Y-93840000D01*
X101127000Y-93839466D01*
X101127000Y-92627000D01*
X115373000Y-92627000D01*
X115373000Y-93840000D01*
G37*
X115373000Y-93840000D02*
X115332419Y-93840000D01*
X115300000Y-93836807D01*
X115267581Y-93840000D01*
X115170617Y-93849550D01*
X115046207Y-93887290D01*
X114931550Y-93948575D01*
X114831052Y-94031052D01*
X114748575Y-94131550D01*
X114687290Y-94246207D01*
X114649550Y-94370617D01*
X114636807Y-94500000D01*
X114640001Y-94532429D01*
X114640000Y-96032418D01*
X114640001Y-96032428D01*
X114640000Y-107967721D01*
X114611375Y-108259660D01*
X114535965Y-108509429D01*
X114413477Y-108739794D01*
X114248579Y-108941979D01*
X114047546Y-109108288D01*
X113818046Y-109232378D01*
X113568805Y-109309531D01*
X113278911Y-109340000D01*
X103132279Y-109340000D01*
X102840340Y-109311375D01*
X102590571Y-109235965D01*
X102360206Y-109113477D01*
X102158021Y-108948579D01*
X101991712Y-108747546D01*
X101867622Y-108518046D01*
X101790469Y-108268805D01*
X101760000Y-107978911D01*
X101760000Y-94532419D01*
X101763193Y-94500000D01*
X101750450Y-94370617D01*
X101712710Y-94246207D01*
X101651425Y-94131550D01*
X101568948Y-94031052D01*
X101468450Y-93948575D01*
X101353793Y-93887290D01*
X101229383Y-93849550D01*
X101132419Y-93840000D01*
X101127000Y-93839466D01*
X101127000Y-92627000D01*
X115373000Y-92627000D01*
X115373000Y-93840000D01*
G36*
X152873000Y-92873000D02*
G01*
X140127000Y-92873000D01*
X140127000Y-91500000D01*
X140124560Y-91475224D01*
X140117333Y-91451399D01*
X140105597Y-91429443D01*
X140089803Y-91410197D01*
X140070557Y-91394403D01*
X140048601Y-91382667D01*
X140024776Y-91375440D01*
X140000000Y-91373000D01*
X123135000Y-91373000D01*
X123135000Y-89638072D01*
X124000000Y-89638072D01*
X124124482Y-89625812D01*
X124244180Y-89589502D01*
X124354494Y-89530537D01*
X124451185Y-89451185D01*
X124530537Y-89354494D01*
X124589502Y-89244180D01*
X124625812Y-89124482D01*
X124638072Y-89000000D01*
X124638072Y-88779872D01*
X143765000Y-88779872D01*
X143765000Y-89220128D01*
X143850890Y-89651925D01*
X144019369Y-90058669D01*
X144263962Y-90424729D01*
X144575271Y-90736038D01*
X144941331Y-90980631D01*
X145348075Y-91149110D01*
X145779872Y-91235000D01*
X146220128Y-91235000D01*
X146651925Y-91149110D01*
X147058669Y-90980631D01*
X147424729Y-90736038D01*
X147736038Y-90424729D01*
X147980631Y-90058669D01*
X148149110Y-89651925D01*
X148235000Y-89220128D01*
X148235000Y-88779872D01*
X148149110Y-88348075D01*
X147980631Y-87941331D01*
X147736038Y-87575271D01*
X147424729Y-87263962D01*
X147058669Y-87019369D01*
X146651925Y-86850890D01*
X146220128Y-86765000D01*
X145779872Y-86765000D01*
X145348075Y-86850890D01*
X144941331Y-87019369D01*
X144575271Y-87263962D01*
X144263962Y-87575271D01*
X144019369Y-87941331D01*
X143850890Y-88348075D01*
X143765000Y-88779872D01*
X124638072Y-88779872D01*
X124638072Y-86834042D01*
X125315000Y-86834042D01*
X125315000Y-87165958D01*
X125379754Y-87491496D01*
X125506772Y-87798147D01*
X125691175Y-88074125D01*
X125925875Y-88308825D01*
X126201853Y-88493228D01*
X126508504Y-88620246D01*
X126834042Y-88685000D01*
X127165958Y-88685000D01*
X127491496Y-88620246D01*
X127798147Y-88493228D01*
X128074125Y-88308825D01*
X128308825Y-88074125D01*
X128493228Y-87798147D01*
X128620246Y-87491496D01*
X128685000Y-87165958D01*
X128685000Y-86834042D01*
X128620246Y-86508504D01*
X128493228Y-86201853D01*
X128308825Y-85925875D01*
X128074125Y-85691175D01*
X127798147Y-85506772D01*
X127491496Y-85379754D01*
X127165958Y-85315000D01*
X126834042Y-85315000D01*
X126508504Y-85379754D01*
X126201853Y-85506772D01*
X125925875Y-85691175D01*
X125691175Y-85925875D01*
X125506772Y-86201853D01*
X125379754Y-86508504D01*
X125315000Y-86834042D01*
X124638072Y-86834042D01*
X124638072Y-85000000D01*
X124625812Y-84875518D01*
X124589502Y-84755820D01*
X124530537Y-84645506D01*
X124451185Y-84548815D01*
X124354494Y-84469463D01*
X124244180Y-84410498D01*
X124124482Y-84374188D01*
X124000000Y-84361928D01*
X120000000Y-84361928D01*
X119875518Y-84374188D01*
X119755820Y-84410498D01*
X119645506Y-84469463D01*
X119548815Y-84548815D01*
X119469463Y-84645506D01*
X119410498Y-84755820D01*
X119374188Y-84875518D01*
X119361928Y-85000000D01*
X119361928Y-89000000D01*
X119374188Y-89124482D01*
X119410498Y-89244180D01*
X119469463Y-89354494D01*
X119548815Y-89451185D01*
X119645506Y-89530537D01*
X119755820Y-89589502D01*
X119875518Y-89625812D01*
X120000000Y-89638072D01*
X120865000Y-89638072D01*
X120865000Y-91373000D01*
X107135000Y-91373000D01*
X107135000Y-89638072D01*
X108000000Y-89638072D01*
X108124482Y-89625812D01*
X108244180Y-89589502D01*
X108354494Y-89530537D01*
X108451185Y-89451185D01*
X108530537Y-89354494D01*
X108589502Y-89244180D01*
X108625812Y-89124482D01*
X108638072Y-89000000D01*
X108638072Y-85000000D01*
X108625812Y-84875518D01*
X108589502Y-84755820D01*
X108530537Y-84645506D01*
X108451185Y-84548815D01*
X108354494Y-84469463D01*
X108244180Y-84410498D01*
X108124482Y-84374188D01*
X108000000Y-84361928D01*
X104000000Y-84361928D01*
X103875518Y-84374188D01*
X103755820Y-84410498D01*
X103645506Y-84469463D01*
X103548815Y-84548815D01*
X103469463Y-84645506D01*
X103410498Y-84755820D01*
X103374188Y-84875518D01*
X103361928Y-85000000D01*
X103361928Y-89000000D01*
X103374188Y-89124482D01*
X103410498Y-89244180D01*
X103469463Y-89354494D01*
X103548815Y-89451185D01*
X103645506Y-89530537D01*
X103755820Y-89589502D01*
X103875518Y-89625812D01*
X104000000Y-89638072D01*
X104865000Y-89638072D01*
X104865000Y-91373000D01*
X101127000Y-91373000D01*
X101127000Y-79000000D01*
X103361928Y-79000000D01*
X103361928Y-83000000D01*
X103374188Y-83124482D01*
X103410498Y-83244180D01*
X103469463Y-83354494D01*
X103548815Y-83451185D01*
X103645506Y-83530537D01*
X103755820Y-83589502D01*
X103875518Y-83625812D01*
X104000000Y-83638072D01*
X108000000Y-83638072D01*
X108124482Y-83625812D01*
X108244180Y-83589502D01*
X108354494Y-83530537D01*
X108451185Y-83451185D01*
X108530537Y-83354494D01*
X108589502Y-83244180D01*
X108625812Y-83124482D01*
X108638072Y-83000000D01*
X109361928Y-83000000D01*
X109374188Y-83124482D01*
X109410498Y-83244180D01*
X109469463Y-83354494D01*
X109548815Y-83451185D01*
X109645506Y-83530537D01*
X109755820Y-83589502D01*
X109875518Y-83625812D01*
X110000000Y-83638072D01*
X111714250Y-83635000D01*
X111873000Y-83476250D01*
X111873000Y-81127000D01*
X112127000Y-81127000D01*
X112127000Y-83476250D01*
X112285750Y-83635000D01*
X114000000Y-83638072D01*
X114124482Y-83625812D01*
X114244180Y-83589502D01*
X114354494Y-83530537D01*
X114451185Y-83451185D01*
X114530537Y-83354494D01*
X114589502Y-83244180D01*
X114625812Y-83124482D01*
X114638072Y-83000000D01*
X114635000Y-81285750D01*
X114476250Y-81127000D01*
X112127000Y-81127000D01*
X111873000Y-81127000D01*
X109523750Y-81127000D01*
X109365000Y-81285750D01*
X109361928Y-83000000D01*
X108638072Y-83000000D01*
X108638072Y-79000000D01*
X109361928Y-79000000D01*
X109365000Y-80714250D01*
X109523750Y-80873000D01*
X111873000Y-80873000D01*
X111873000Y-78523750D01*
X112127000Y-78523750D01*
X112127000Y-80873000D01*
X114476250Y-80873000D01*
X114635000Y-80714250D01*
X114638072Y-79000000D01*
X119361928Y-79000000D01*
X119361928Y-83000000D01*
X119374188Y-83124482D01*
X119410498Y-83244180D01*
X119469463Y-83354494D01*
X119548815Y-83451185D01*
X119645506Y-83530537D01*
X119755820Y-83589502D01*
X119875518Y-83625812D01*
X120000000Y-83638072D01*
X124000000Y-83638072D01*
X124124482Y-83625812D01*
X124244180Y-83589502D01*
X124354494Y-83530537D01*
X124451185Y-83451185D01*
X124530537Y-83354494D01*
X124589502Y-83244180D01*
X124625812Y-83124482D01*
X124638072Y-83000000D01*
X125361928Y-83000000D01*
X125374188Y-83124482D01*
X125410498Y-83244180D01*
X125469463Y-83354494D01*
X125548815Y-83451185D01*
X125645506Y-83530537D01*
X125755820Y-83589502D01*
X125875518Y-83625812D01*
X126000000Y-83638072D01*
X127714250Y-83635000D01*
X127873000Y-83476250D01*
X127873000Y-81127000D01*
X128127000Y-81127000D01*
X128127000Y-83476250D01*
X128285750Y-83635000D01*
X130000000Y-83638072D01*
X130124482Y-83625812D01*
X130244180Y-83589502D01*
X130354494Y-83530537D01*
X130451185Y-83451185D01*
X130530537Y-83354494D01*
X130589502Y-83244180D01*
X130625812Y-83124482D01*
X130638072Y-83000000D01*
X130635000Y-81285750D01*
X130476250Y-81127000D01*
X128127000Y-81127000D01*
X127873000Y-81127000D01*
X125523750Y-81127000D01*
X125365000Y-81285750D01*
X125361928Y-83000000D01*
X124638072Y-83000000D01*
X124638072Y-79000000D01*
X125361928Y-79000000D01*
X125365000Y-80714250D01*
X125523750Y-80873000D01*
X127873000Y-80873000D01*
X127873000Y-78523750D01*
X128127000Y-78523750D01*
X128127000Y-80873000D01*
X130476250Y-80873000D01*
X130635000Y-80714250D01*
X130636674Y-79779872D01*
X143765000Y-79779872D01*
X143765000Y-80220128D01*
X143850890Y-80651925D01*
X144019369Y-81058669D01*
X144263962Y-81424729D01*
X144575271Y-81736038D01*
X144941331Y-81980631D01*
X145348075Y-82149110D01*
X145779872Y-82235000D01*
X146220128Y-82235000D01*
X146651925Y-82149110D01*
X147058669Y-81980631D01*
X147424729Y-81736038D01*
X147736038Y-81424729D01*
X147980631Y-81058669D01*
X148149110Y-80651925D01*
X148235000Y-80220128D01*
X148235000Y-79779872D01*
X148149110Y-79348075D01*
X147980631Y-78941331D01*
X147736038Y-78575271D01*
X147424729Y-78263962D01*
X147058669Y-78019369D01*
X146651925Y-77850890D01*
X146220128Y-77765000D01*
X145779872Y-77765000D01*
X145348075Y-77850890D01*
X144941331Y-78019369D01*
X144575271Y-78263962D01*
X144263962Y-78575271D01*
X144019369Y-78941331D01*
X143850890Y-79348075D01*
X143765000Y-79779872D01*
X130636674Y-79779872D01*
X130638072Y-79000000D01*
X130625812Y-78875518D01*
X130589502Y-78755820D01*
X130530537Y-78645506D01*
X130451185Y-78548815D01*
X130354494Y-78469463D01*
X130244180Y-78410498D01*
X130124482Y-78374188D01*
X130000000Y-78361928D01*
X128285750Y-78365000D01*
X128127000Y-78523750D01*
X127873000Y-78523750D01*
X127714250Y-78365000D01*
X126000000Y-78361928D01*
X125875518Y-78374188D01*
X125755820Y-78410498D01*
X125645506Y-78469463D01*
X125548815Y-78548815D01*
X125469463Y-78645506D01*
X125410498Y-78755820D01*
X125374188Y-78875518D01*
X125361928Y-79000000D01*
X124638072Y-79000000D01*
X124625812Y-78875518D01*
X124589502Y-78755820D01*
X124530537Y-78645506D01*
X124451185Y-78548815D01*
X124354494Y-78469463D01*
X124244180Y-78410498D01*
X124124482Y-78374188D01*
X124000000Y-78361928D01*
X120000000Y-78361928D01*
X119875518Y-78374188D01*
X119755820Y-78410498D01*
X119645506Y-78469463D01*
X119548815Y-78548815D01*
X119469463Y-78645506D01*
X119410498Y-78755820D01*
X119374188Y-78875518D01*
X119361928Y-79000000D01*
X114638072Y-79000000D01*
X114625812Y-78875518D01*
X114589502Y-78755820D01*
X114530537Y-78645506D01*
X114451185Y-78548815D01*
X114354494Y-78469463D01*
X114244180Y-78410498D01*
X114124482Y-78374188D01*
X114000000Y-78361928D01*
X112285750Y-78365000D01*
X112127000Y-78523750D01*
X111873000Y-78523750D01*
X111714250Y-78365000D01*
X110000000Y-78361928D01*
X109875518Y-78374188D01*
X109755820Y-78410498D01*
X109645506Y-78469463D01*
X109548815Y-78548815D01*
X109469463Y-78645506D01*
X109410498Y-78755820D01*
X109374188Y-78875518D01*
X109361928Y-79000000D01*
X108638072Y-79000000D01*
X108625812Y-78875518D01*
X108589502Y-78755820D01*
X108530537Y-78645506D01*
X108451185Y-78548815D01*
X108354494Y-78469463D01*
X108244180Y-78410498D01*
X108124482Y-78374188D01*
X108000000Y-78361928D01*
X104000000Y-78361928D01*
X103875518Y-78374188D01*
X103755820Y-78410498D01*
X103645506Y-78469463D01*
X103548815Y-78548815D01*
X103469463Y-78645506D01*
X103410498Y-78755820D01*
X103374188Y-78875518D01*
X103361928Y-79000000D01*
X101127000Y-79000000D01*
X101127000Y-77660000D01*
X152873000Y-77660000D01*
X152873000Y-92873000D01*
G37*
X152873000Y-92873000D02*
X140127000Y-92873000D01*
X140127000Y-91500000D01*
X140124560Y-91475224D01*
X140117333Y-91451399D01*
X140105597Y-91429443D01*
X140089803Y-91410197D01*
X140070557Y-91394403D01*
X140048601Y-91382667D01*
X140024776Y-91375440D01*
X140000000Y-91373000D01*
X123135000Y-91373000D01*
X123135000Y-89638072D01*
X124000000Y-89638072D01*
X124124482Y-89625812D01*
X124244180Y-89589502D01*
X124354494Y-89530537D01*
X124451185Y-89451185D01*
X124530537Y-89354494D01*
X124589502Y-89244180D01*
X124625812Y-89124482D01*
X124638072Y-89000000D01*
X124638072Y-88779872D01*
X143765000Y-88779872D01*
X143765000Y-89220128D01*
X143850890Y-89651925D01*
X144019369Y-90058669D01*
X144263962Y-90424729D01*
X144575271Y-90736038D01*
X144941331Y-90980631D01*
X145348075Y-91149110D01*
X145779872Y-91235000D01*
X146220128Y-91235000D01*
X146651925Y-91149110D01*
X147058669Y-90980631D01*
X147424729Y-90736038D01*
X147736038Y-90424729D01*
X147980631Y-90058669D01*
X148149110Y-89651925D01*
X148235000Y-89220128D01*
X148235000Y-88779872D01*
X148149110Y-88348075D01*
X147980631Y-87941331D01*
X147736038Y-87575271D01*
X147424729Y-87263962D01*
X147058669Y-87019369D01*
X146651925Y-86850890D01*
X146220128Y-86765000D01*
X145779872Y-86765000D01*
X145348075Y-86850890D01*
X144941331Y-87019369D01*
X144575271Y-87263962D01*
X144263962Y-87575271D01*
X144019369Y-87941331D01*
X143850890Y-88348075D01*
X143765000Y-88779872D01*
X124638072Y-88779872D01*
X124638072Y-86834042D01*
X125315000Y-86834042D01*
X125315000Y-87165958D01*
X125379754Y-87491496D01*
X125506772Y-87798147D01*
X125691175Y-88074125D01*
X125925875Y-88308825D01*
X126201853Y-88493228D01*
X126508504Y-88620246D01*
X126834042Y-88685000D01*
X127165958Y-88685000D01*
X127491496Y-88620246D01*
X127798147Y-88493228D01*
X128074125Y-88308825D01*
X128308825Y-88074125D01*
X128493228Y-87798147D01*
X128620246Y-87491496D01*
X128685000Y-87165958D01*
X128685000Y-86834042D01*
X128620246Y-86508504D01*
X128493228Y-86201853D01*
X128308825Y-85925875D01*
X128074125Y-85691175D01*
X127798147Y-85506772D01*
X127491496Y-85379754D01*
X127165958Y-85315000D01*
X126834042Y-85315000D01*
X126508504Y-85379754D01*
X126201853Y-85506772D01*
X125925875Y-85691175D01*
X125691175Y-85925875D01*
X125506772Y-86201853D01*
X125379754Y-86508504D01*
X125315000Y-86834042D01*
X124638072Y-86834042D01*
X124638072Y-85000000D01*
X124625812Y-84875518D01*
X124589502Y-84755820D01*
X124530537Y-84645506D01*
X124451185Y-84548815D01*
X124354494Y-84469463D01*
X124244180Y-84410498D01*
X124124482Y-84374188D01*
X124000000Y-84361928D01*
X120000000Y-84361928D01*
X119875518Y-84374188D01*
X119755820Y-84410498D01*
X119645506Y-84469463D01*
X119548815Y-84548815D01*
X119469463Y-84645506D01*
X119410498Y-84755820D01*
X119374188Y-84875518D01*
X119361928Y-85000000D01*
X119361928Y-89000000D01*
X119374188Y-89124482D01*
X119410498Y-89244180D01*
X119469463Y-89354494D01*
X119548815Y-89451185D01*
X119645506Y-89530537D01*
X119755820Y-89589502D01*
X119875518Y-89625812D01*
X120000000Y-89638072D01*
X120865000Y-89638072D01*
X120865000Y-91373000D01*
X107135000Y-91373000D01*
X107135000Y-89638072D01*
X108000000Y-89638072D01*
X108124482Y-89625812D01*
X108244180Y-89589502D01*
X108354494Y-89530537D01*
X108451185Y-89451185D01*
X108530537Y-89354494D01*
X108589502Y-89244180D01*
X108625812Y-89124482D01*
X108638072Y-89000000D01*
X108638072Y-85000000D01*
X108625812Y-84875518D01*
X108589502Y-84755820D01*
X108530537Y-84645506D01*
X108451185Y-84548815D01*
X108354494Y-84469463D01*
X108244180Y-84410498D01*
X108124482Y-84374188D01*
X108000000Y-84361928D01*
X104000000Y-84361928D01*
X103875518Y-84374188D01*
X103755820Y-84410498D01*
X103645506Y-84469463D01*
X103548815Y-84548815D01*
X103469463Y-84645506D01*
X103410498Y-84755820D01*
X103374188Y-84875518D01*
X103361928Y-85000000D01*
X103361928Y-89000000D01*
X103374188Y-89124482D01*
X103410498Y-89244180D01*
X103469463Y-89354494D01*
X103548815Y-89451185D01*
X103645506Y-89530537D01*
X103755820Y-89589502D01*
X103875518Y-89625812D01*
X104000000Y-89638072D01*
X104865000Y-89638072D01*
X104865000Y-91373000D01*
X101127000Y-91373000D01*
X101127000Y-79000000D01*
X103361928Y-79000000D01*
X103361928Y-83000000D01*
X103374188Y-83124482D01*
X103410498Y-83244180D01*
X103469463Y-83354494D01*
X103548815Y-83451185D01*
X103645506Y-83530537D01*
X103755820Y-83589502D01*
X103875518Y-83625812D01*
X104000000Y-83638072D01*
X108000000Y-83638072D01*
X108124482Y-83625812D01*
X108244180Y-83589502D01*
X108354494Y-83530537D01*
X108451185Y-83451185D01*
X108530537Y-83354494D01*
X108589502Y-83244180D01*
X108625812Y-83124482D01*
X108638072Y-83000000D01*
X109361928Y-83000000D01*
X109374188Y-83124482D01*
X109410498Y-83244180D01*
X109469463Y-83354494D01*
X109548815Y-83451185D01*
X109645506Y-83530537D01*
X109755820Y-83589502D01*
X109875518Y-83625812D01*
X110000000Y-83638072D01*
X111714250Y-83635000D01*
X111873000Y-83476250D01*
X111873000Y-81127000D01*
X112127000Y-81127000D01*
X112127000Y-83476250D01*
X112285750Y-83635000D01*
X114000000Y-83638072D01*
X114124482Y-83625812D01*
X114244180Y-83589502D01*
X114354494Y-83530537D01*
X114451185Y-83451185D01*
X114530537Y-83354494D01*
X114589502Y-83244180D01*
X114625812Y-83124482D01*
X114638072Y-83000000D01*
X114635000Y-81285750D01*
X114476250Y-81127000D01*
X112127000Y-81127000D01*
X111873000Y-81127000D01*
X109523750Y-81127000D01*
X109365000Y-81285750D01*
X109361928Y-83000000D01*
X108638072Y-83000000D01*
X108638072Y-79000000D01*
X109361928Y-79000000D01*
X109365000Y-80714250D01*
X109523750Y-80873000D01*
X111873000Y-80873000D01*
X111873000Y-78523750D01*
X112127000Y-78523750D01*
X112127000Y-80873000D01*
X114476250Y-80873000D01*
X114635000Y-80714250D01*
X114638072Y-79000000D01*
X119361928Y-79000000D01*
X119361928Y-83000000D01*
X119374188Y-83124482D01*
X119410498Y-83244180D01*
X119469463Y-83354494D01*
X119548815Y-83451185D01*
X119645506Y-83530537D01*
X119755820Y-83589502D01*
X119875518Y-83625812D01*
X120000000Y-83638072D01*
X124000000Y-83638072D01*
X124124482Y-83625812D01*
X124244180Y-83589502D01*
X124354494Y-83530537D01*
X124451185Y-83451185D01*
X124530537Y-83354494D01*
X124589502Y-83244180D01*
X124625812Y-83124482D01*
X124638072Y-83000000D01*
X125361928Y-83000000D01*
X125374188Y-83124482D01*
X125410498Y-83244180D01*
X125469463Y-83354494D01*
X125548815Y-83451185D01*
X125645506Y-83530537D01*
X125755820Y-83589502D01*
X125875518Y-83625812D01*
X126000000Y-83638072D01*
X127714250Y-83635000D01*
X127873000Y-83476250D01*
X127873000Y-81127000D01*
X128127000Y-81127000D01*
X128127000Y-83476250D01*
X128285750Y-83635000D01*
X130000000Y-83638072D01*
X130124482Y-83625812D01*
X130244180Y-83589502D01*
X130354494Y-83530537D01*
X130451185Y-83451185D01*
X130530537Y-83354494D01*
X130589502Y-83244180D01*
X130625812Y-83124482D01*
X130638072Y-83000000D01*
X130635000Y-81285750D01*
X130476250Y-81127000D01*
X128127000Y-81127000D01*
X127873000Y-81127000D01*
X125523750Y-81127000D01*
X125365000Y-81285750D01*
X125361928Y-83000000D01*
X124638072Y-83000000D01*
X124638072Y-79000000D01*
X125361928Y-79000000D01*
X125365000Y-80714250D01*
X125523750Y-80873000D01*
X127873000Y-80873000D01*
X127873000Y-78523750D01*
X128127000Y-78523750D01*
X128127000Y-80873000D01*
X130476250Y-80873000D01*
X130635000Y-80714250D01*
X130636674Y-79779872D01*
X143765000Y-79779872D01*
X143765000Y-80220128D01*
X143850890Y-80651925D01*
X144019369Y-81058669D01*
X144263962Y-81424729D01*
X144575271Y-81736038D01*
X144941331Y-81980631D01*
X145348075Y-82149110D01*
X145779872Y-82235000D01*
X146220128Y-82235000D01*
X146651925Y-82149110D01*
X147058669Y-81980631D01*
X147424729Y-81736038D01*
X147736038Y-81424729D01*
X147980631Y-81058669D01*
X148149110Y-80651925D01*
X148235000Y-80220128D01*
X148235000Y-79779872D01*
X148149110Y-79348075D01*
X147980631Y-78941331D01*
X147736038Y-78575271D01*
X147424729Y-78263962D01*
X147058669Y-78019369D01*
X146651925Y-77850890D01*
X146220128Y-77765000D01*
X145779872Y-77765000D01*
X145348075Y-77850890D01*
X144941331Y-78019369D01*
X144575271Y-78263962D01*
X144263962Y-78575271D01*
X144019369Y-78941331D01*
X143850890Y-79348075D01*
X143765000Y-79779872D01*
X130636674Y-79779872D01*
X130638072Y-79000000D01*
X130625812Y-78875518D01*
X130589502Y-78755820D01*
X130530537Y-78645506D01*
X130451185Y-78548815D01*
X130354494Y-78469463D01*
X130244180Y-78410498D01*
X130124482Y-78374188D01*
X130000000Y-78361928D01*
X128285750Y-78365000D01*
X128127000Y-78523750D01*
X127873000Y-78523750D01*
X127714250Y-78365000D01*
X126000000Y-78361928D01*
X125875518Y-78374188D01*
X125755820Y-78410498D01*
X125645506Y-78469463D01*
X125548815Y-78548815D01*
X125469463Y-78645506D01*
X125410498Y-78755820D01*
X125374188Y-78875518D01*
X125361928Y-79000000D01*
X124638072Y-79000000D01*
X124625812Y-78875518D01*
X124589502Y-78755820D01*
X124530537Y-78645506D01*
X124451185Y-78548815D01*
X124354494Y-78469463D01*
X124244180Y-78410498D01*
X124124482Y-78374188D01*
X124000000Y-78361928D01*
X120000000Y-78361928D01*
X119875518Y-78374188D01*
X119755820Y-78410498D01*
X119645506Y-78469463D01*
X119548815Y-78548815D01*
X119469463Y-78645506D01*
X119410498Y-78755820D01*
X119374188Y-78875518D01*
X119361928Y-79000000D01*
X114638072Y-79000000D01*
X114625812Y-78875518D01*
X114589502Y-78755820D01*
X114530537Y-78645506D01*
X114451185Y-78548815D01*
X114354494Y-78469463D01*
X114244180Y-78410498D01*
X114124482Y-78374188D01*
X114000000Y-78361928D01*
X112285750Y-78365000D01*
X112127000Y-78523750D01*
X111873000Y-78523750D01*
X111714250Y-78365000D01*
X110000000Y-78361928D01*
X109875518Y-78374188D01*
X109755820Y-78410498D01*
X109645506Y-78469463D01*
X109548815Y-78548815D01*
X109469463Y-78645506D01*
X109410498Y-78755820D01*
X109374188Y-78875518D01*
X109361928Y-79000000D01*
X108638072Y-79000000D01*
X108625812Y-78875518D01*
X108589502Y-78755820D01*
X108530537Y-78645506D01*
X108451185Y-78548815D01*
X108354494Y-78469463D01*
X108244180Y-78410498D01*
X108124482Y-78374188D01*
X108000000Y-78361928D01*
X104000000Y-78361928D01*
X103875518Y-78374188D01*
X103755820Y-78410498D01*
X103645506Y-78469463D01*
X103548815Y-78548815D01*
X103469463Y-78645506D01*
X103410498Y-78755820D01*
X103374188Y-78875518D01*
X103361928Y-79000000D01*
X101127000Y-79000000D01*
X101127000Y-77660000D01*
X152873000Y-77660000D01*
X152873000Y-92873000D01*
M02*
