G04 #@! TF.GenerationSoftware,KiCad,Pcbnew,(5.1.5)-3*
G04 #@! TF.CreationDate,2020-06-04T11:53:39+03:00*
G04 #@! TF.ProjectId,kelvin,6b656c76-696e-42e6-9b69-6361645f7063,rev?*
G04 #@! TF.SameCoordinates,Original*
G04 #@! TF.FileFunction,Legend,Bot*
G04 #@! TF.FilePolarity,Positive*
%FSLAX46Y46*%
G04 Gerber Fmt 4.6, Leading zero omitted, Abs format (unit mm)*
G04 Created by KiCad (PCBNEW (5.1.5)-3) date 2020-06-04 11:53:39*
%MOMM*%
%LPD*%
G04 APERTURE LIST*
%ADD10C,0.300000*%
%ADD11C,0.250000*%
%ADD12C,0.150000*%
%ADD13C,0.010000*%
G04 APERTURE END LIST*
D10*
X160000000Y-80878571D02*
X160000000Y-79378571D01*
X159428571Y-79378571D01*
X159285714Y-79450000D01*
X159214285Y-79521428D01*
X159142857Y-79664285D01*
X159142857Y-79878571D01*
X159214285Y-80021428D01*
X159285714Y-80092857D01*
X159428571Y-80164285D01*
X160000000Y-80164285D01*
X157642857Y-80735714D02*
X157714285Y-80807142D01*
X157928571Y-80878571D01*
X158071428Y-80878571D01*
X158285714Y-80807142D01*
X158428571Y-80664285D01*
X158500000Y-80521428D01*
X158571428Y-80235714D01*
X158571428Y-80021428D01*
X158500000Y-79735714D01*
X158428571Y-79592857D01*
X158285714Y-79450000D01*
X158071428Y-79378571D01*
X157928571Y-79378571D01*
X157714285Y-79450000D01*
X157642857Y-79521428D01*
X156500000Y-80092857D02*
X156285714Y-80164285D01*
X156214285Y-80235714D01*
X156142857Y-80378571D01*
X156142857Y-80592857D01*
X156214285Y-80735714D01*
X156285714Y-80807142D01*
X156428571Y-80878571D01*
X157000000Y-80878571D01*
X157000000Y-79378571D01*
X156500000Y-79378571D01*
X156357142Y-79450000D01*
X156285714Y-79521428D01*
X156214285Y-79664285D01*
X156214285Y-79807142D01*
X156285714Y-79950000D01*
X156357142Y-80021428D01*
X156500000Y-80092857D01*
X157000000Y-80092857D01*
X155642857Y-79378571D02*
X155285714Y-80878571D01*
X155000000Y-79807142D01*
X154714285Y-80878571D01*
X154357142Y-79378571D01*
X153142857Y-80878571D02*
X153142857Y-80092857D01*
X153214285Y-79950000D01*
X153357142Y-79878571D01*
X153642857Y-79878571D01*
X153785714Y-79950000D01*
X153142857Y-80807142D02*
X153285714Y-80878571D01*
X153642857Y-80878571D01*
X153785714Y-80807142D01*
X153857142Y-80664285D01*
X153857142Y-80521428D01*
X153785714Y-80378571D01*
X153642857Y-80307142D01*
X153285714Y-80307142D01*
X153142857Y-80235714D01*
X152571428Y-79878571D02*
X152214285Y-80878571D01*
X151857142Y-79878571D02*
X152214285Y-80878571D01*
X152357142Y-81235714D01*
X152428571Y-81307142D01*
X152571428Y-81378571D01*
D11*
X141933333Y-90542857D02*
X141933333Y-89342857D01*
X141933333Y-89914285D02*
X141133333Y-89914285D01*
X141133333Y-90542857D02*
X141133333Y-89342857D01*
X139866666Y-90542857D02*
X139866666Y-89914285D01*
X139933333Y-89800000D01*
X140066666Y-89742857D01*
X140333333Y-89742857D01*
X140466666Y-89800000D01*
X139866666Y-90485714D02*
X140000000Y-90542857D01*
X140333333Y-90542857D01*
X140466666Y-90485714D01*
X140533333Y-90371428D01*
X140533333Y-90257142D01*
X140466666Y-90142857D01*
X140333333Y-90085714D01*
X140000000Y-90085714D01*
X139866666Y-90028571D01*
X139200000Y-89742857D02*
X139200000Y-90542857D01*
X139200000Y-89857142D02*
X139133333Y-89800000D01*
X139000000Y-89742857D01*
X138800000Y-89742857D01*
X138666666Y-89800000D01*
X138600000Y-89914285D01*
X138600000Y-90542857D01*
X138133333Y-89742857D02*
X137600000Y-89742857D01*
X137933333Y-89342857D02*
X137933333Y-90371428D01*
X137866666Y-90485714D01*
X137733333Y-90542857D01*
X137600000Y-90542857D01*
X136600000Y-90485714D02*
X136733333Y-90542857D01*
X137000000Y-90542857D01*
X137133333Y-90485714D01*
X137200000Y-90371428D01*
X137200000Y-89914285D01*
X137133333Y-89800000D01*
X137000000Y-89742857D01*
X136733333Y-89742857D01*
X136600000Y-89800000D01*
X136533333Y-89914285D01*
X136533333Y-90028571D01*
X137200000Y-90142857D01*
X135933333Y-90542857D02*
X135933333Y-89342857D01*
X135800000Y-90085714D02*
X135400000Y-90542857D01*
X135400000Y-89742857D02*
X135933333Y-90200000D01*
X133066666Y-90542857D02*
X133733333Y-90542857D01*
X133733333Y-89342857D01*
X131800000Y-90428571D02*
X131866666Y-90485714D01*
X132066666Y-90542857D01*
X132200000Y-90542857D01*
X132400000Y-90485714D01*
X132533333Y-90371428D01*
X132600000Y-90257142D01*
X132666666Y-90028571D01*
X132666666Y-89857142D01*
X132600000Y-89628571D01*
X132533333Y-89514285D01*
X132400000Y-89400000D01*
X132200000Y-89342857D01*
X132066666Y-89342857D01*
X131866666Y-89400000D01*
X131800000Y-89457142D01*
X130400000Y-90542857D02*
X130866666Y-89971428D01*
X131200000Y-90542857D02*
X131200000Y-89342857D01*
X130666666Y-89342857D01*
X130533333Y-89400000D01*
X130466666Y-89457142D01*
X130400000Y-89571428D01*
X130400000Y-89742857D01*
X130466666Y-89857142D01*
X130533333Y-89914285D01*
X130666666Y-89971428D01*
X131200000Y-89971428D01*
X128733333Y-90542857D02*
X128733333Y-89342857D01*
X127933333Y-90542857D02*
X128533333Y-89857142D01*
X127933333Y-89342857D02*
X128733333Y-90028571D01*
X126800000Y-90485714D02*
X126933333Y-90542857D01*
X127200000Y-90542857D01*
X127333333Y-90485714D01*
X127400000Y-90371428D01*
X127400000Y-89914285D01*
X127333333Y-89800000D01*
X127200000Y-89742857D01*
X126933333Y-89742857D01*
X126800000Y-89800000D01*
X126733333Y-89914285D01*
X126733333Y-90028571D01*
X127400000Y-90142857D01*
X125933333Y-90542857D02*
X126066666Y-90485714D01*
X126133333Y-90371428D01*
X126133333Y-89342857D01*
X125533333Y-89742857D02*
X125200000Y-90542857D01*
X124866666Y-89742857D01*
X124333333Y-90542857D02*
X124333333Y-89742857D01*
X124333333Y-89342857D02*
X124400000Y-89400000D01*
X124333333Y-89457142D01*
X124266666Y-89400000D01*
X124333333Y-89342857D01*
X124333333Y-89457142D01*
X123666666Y-89742857D02*
X123666666Y-90542857D01*
X123666666Y-89857142D02*
X123600000Y-89800000D01*
X123466666Y-89742857D01*
X123266666Y-89742857D01*
X123133333Y-89800000D01*
X123066666Y-89914285D01*
X123066666Y-90542857D01*
X120533333Y-90428571D02*
X120600000Y-90485714D01*
X120800000Y-90542857D01*
X120933333Y-90542857D01*
X121133333Y-90485714D01*
X121266666Y-90371428D01*
X121333333Y-90257142D01*
X121400000Y-90028571D01*
X121400000Y-89857142D01*
X121333333Y-89628571D01*
X121266666Y-89514285D01*
X121133333Y-89400000D01*
X120933333Y-89342857D01*
X120800000Y-89342857D01*
X120600000Y-89400000D01*
X120533333Y-89457142D01*
X119733333Y-90542857D02*
X119866666Y-90485714D01*
X119933333Y-90428571D01*
X120000000Y-90314285D01*
X120000000Y-89971428D01*
X119933333Y-89857142D01*
X119866666Y-89800000D01*
X119733333Y-89742857D01*
X119533333Y-89742857D01*
X119400000Y-89800000D01*
X119333333Y-89857142D01*
X119266666Y-89971428D01*
X119266666Y-90314285D01*
X119333333Y-90428571D01*
X119400000Y-90485714D01*
X119533333Y-90542857D01*
X119733333Y-90542857D01*
X118666666Y-89742857D02*
X118666666Y-90542857D01*
X118666666Y-89857142D02*
X118600000Y-89800000D01*
X118466666Y-89742857D01*
X118266666Y-89742857D01*
X118133333Y-89800000D01*
X118066666Y-89914285D01*
X118066666Y-90542857D01*
X117400000Y-89742857D02*
X117400000Y-90542857D01*
X117400000Y-89857142D02*
X117333333Y-89800000D01*
X117200000Y-89742857D01*
X117000000Y-89742857D01*
X116866666Y-89800000D01*
X116800000Y-89914285D01*
X116800000Y-90542857D01*
X115600000Y-90485714D02*
X115733333Y-90542857D01*
X116000000Y-90542857D01*
X116133333Y-90485714D01*
X116200000Y-90371428D01*
X116200000Y-89914285D01*
X116133333Y-89800000D01*
X116000000Y-89742857D01*
X115733333Y-89742857D01*
X115600000Y-89800000D01*
X115533333Y-89914285D01*
X115533333Y-90028571D01*
X116200000Y-90142857D01*
X114333333Y-90485714D02*
X114466666Y-90542857D01*
X114733333Y-90542857D01*
X114866666Y-90485714D01*
X114933333Y-90428571D01*
X115000000Y-90314285D01*
X115000000Y-89971428D01*
X114933333Y-89857142D01*
X114866666Y-89800000D01*
X114733333Y-89742857D01*
X114466666Y-89742857D01*
X114333333Y-89800000D01*
X113933333Y-89742857D02*
X113400000Y-89742857D01*
X113733333Y-89342857D02*
X113733333Y-90371428D01*
X113666666Y-90485714D01*
X113533333Y-90542857D01*
X113400000Y-90542857D01*
X112733333Y-90542857D02*
X112866666Y-90485714D01*
X112933333Y-90428571D01*
X113000000Y-90314285D01*
X113000000Y-89971428D01*
X112933333Y-89857142D01*
X112866666Y-89800000D01*
X112733333Y-89742857D01*
X112533333Y-89742857D01*
X112400000Y-89800000D01*
X112333333Y-89857142D01*
X112266666Y-89971428D01*
X112266666Y-90314285D01*
X112333333Y-90428571D01*
X112400000Y-90485714D01*
X112533333Y-90542857D01*
X112733333Y-90542857D01*
X111666666Y-90542857D02*
X111666666Y-89742857D01*
X111666666Y-89971428D02*
X111600000Y-89857142D01*
X111533333Y-89800000D01*
X111400000Y-89742857D01*
X111266666Y-89742857D01*
D12*
X149090476Y-93000000D02*
X149185714Y-92952380D01*
X149328571Y-92952380D01*
X149471428Y-93000000D01*
X149566666Y-93095238D01*
X149614285Y-93190476D01*
X149661904Y-93380952D01*
X149661904Y-93523809D01*
X149614285Y-93714285D01*
X149566666Y-93809523D01*
X149471428Y-93904761D01*
X149328571Y-93952380D01*
X149233333Y-93952380D01*
X149090476Y-93904761D01*
X149042857Y-93857142D01*
X149042857Y-93523809D01*
X149233333Y-93523809D01*
X148614285Y-92952380D02*
X148614285Y-93761904D01*
X148566666Y-93857142D01*
X148519047Y-93904761D01*
X148423809Y-93952380D01*
X148233333Y-93952380D01*
X148138095Y-93904761D01*
X148090476Y-93857142D01*
X148042857Y-93761904D01*
X148042857Y-92952380D01*
X147614285Y-93666666D02*
X147138095Y-93666666D01*
X147709523Y-93952380D02*
X147376190Y-92952380D01*
X147042857Y-93952380D01*
X146138095Y-93952380D02*
X146471428Y-93476190D01*
X146709523Y-93952380D02*
X146709523Y-92952380D01*
X146328571Y-92952380D01*
X146233333Y-93000000D01*
X146185714Y-93047619D01*
X146138095Y-93142857D01*
X146138095Y-93285714D01*
X146185714Y-93380952D01*
X146233333Y-93428571D01*
X146328571Y-93476190D01*
X146709523Y-93476190D01*
X145709523Y-93952380D02*
X145709523Y-92952380D01*
X145471428Y-92952380D01*
X145328571Y-93000000D01*
X145233333Y-93095238D01*
X145185714Y-93190476D01*
X145138095Y-93380952D01*
X145138095Y-93523809D01*
X145185714Y-93714285D01*
X145233333Y-93809523D01*
X145328571Y-93904761D01*
X145471428Y-93952380D01*
X145709523Y-93952380D01*
X127895238Y-93952380D02*
X128371428Y-93952380D01*
X128371428Y-92952380D01*
X127561904Y-93952380D02*
X127561904Y-92952380D01*
X127180952Y-92952380D01*
X127085714Y-93000000D01*
X127038095Y-93047619D01*
X126990476Y-93142857D01*
X126990476Y-93285714D01*
X127038095Y-93380952D01*
X127085714Y-93428571D01*
X127180952Y-93476190D01*
X127561904Y-93476190D01*
X126371428Y-92952380D02*
X126180952Y-92952380D01*
X126085714Y-93000000D01*
X125990476Y-93095238D01*
X125942857Y-93285714D01*
X125942857Y-93619047D01*
X125990476Y-93809523D01*
X126085714Y-93904761D01*
X126180952Y-93952380D01*
X126371428Y-93952380D01*
X126466666Y-93904761D01*
X126561904Y-93809523D01*
X126609523Y-93619047D01*
X126609523Y-93285714D01*
X126561904Y-93095238D01*
X126466666Y-93000000D01*
X126371428Y-92952380D01*
X125657142Y-92952380D02*
X125085714Y-92952380D01*
X125371428Y-93952380D02*
X125371428Y-92952380D01*
X109990476Y-93952380D02*
X109990476Y-92952380D01*
X109990476Y-93428571D02*
X109419047Y-93428571D01*
X109419047Y-93952380D02*
X109419047Y-92952380D01*
X108942857Y-93952380D02*
X108942857Y-92952380D01*
X108561904Y-92952380D01*
X108466666Y-93000000D01*
X108419047Y-93047619D01*
X108371428Y-93142857D01*
X108371428Y-93285714D01*
X108419047Y-93380952D01*
X108466666Y-93428571D01*
X108561904Y-93476190D01*
X108942857Y-93476190D01*
X107752380Y-92952380D02*
X107561904Y-92952380D01*
X107466666Y-93000000D01*
X107371428Y-93095238D01*
X107323809Y-93285714D01*
X107323809Y-93619047D01*
X107371428Y-93809523D01*
X107466666Y-93904761D01*
X107561904Y-93952380D01*
X107752380Y-93952380D01*
X107847619Y-93904761D01*
X107942857Y-93809523D01*
X107990476Y-93619047D01*
X107990476Y-93285714D01*
X107942857Y-93095238D01*
X107847619Y-93000000D01*
X107752380Y-92952380D01*
X107038095Y-92952380D02*
X106466666Y-92952380D01*
X106752380Y-93952380D02*
X106752380Y-92952380D01*
D13*
G36*
X121131229Y-80433762D02*
G01*
X121073278Y-80463773D01*
X121062310Y-80475092D01*
X121053065Y-80490304D01*
X121045395Y-80513541D01*
X121039153Y-80548932D01*
X121034193Y-80600610D01*
X121030367Y-80672705D01*
X121027529Y-80769347D01*
X121025531Y-80894668D01*
X121024227Y-81052798D01*
X121023469Y-81247868D01*
X121023111Y-81484010D01*
X121023005Y-81765353D01*
X121023000Y-81876936D01*
X121023000Y-83244600D01*
X120426100Y-83244600D01*
X120236165Y-83244825D01*
X120090448Y-83245844D01*
X119982371Y-83248174D01*
X119905354Y-83252330D01*
X119852816Y-83258829D01*
X119818177Y-83268186D01*
X119794859Y-83280918D01*
X119778400Y-83295400D01*
X119737167Y-83368654D01*
X119727600Y-83435100D01*
X119745899Y-83525555D01*
X119778400Y-83574800D01*
X119795504Y-83589664D01*
X119817550Y-83601305D01*
X119850457Y-83610112D01*
X119900144Y-83616474D01*
X119972529Y-83620778D01*
X120073529Y-83623413D01*
X120209063Y-83624767D01*
X120385051Y-83625230D01*
X120546750Y-83625225D01*
X120779182Y-83624402D01*
X120964957Y-83622086D01*
X121108201Y-83618107D01*
X121213040Y-83612292D01*
X121283599Y-83604469D01*
X121324004Y-83594468D01*
X121327800Y-83592728D01*
X121391300Y-83560605D01*
X121397846Y-82021575D01*
X121399096Y-81700060D01*
X121399848Y-81425611D01*
X121400027Y-81194496D01*
X121399556Y-81002982D01*
X121398359Y-80847338D01*
X121396359Y-80723831D01*
X121393479Y-80628730D01*
X121389644Y-80558301D01*
X121384777Y-80508812D01*
X121378801Y-80476533D01*
X121371640Y-80457729D01*
X121365670Y-80450408D01*
X121302357Y-80424424D01*
X121216454Y-80419230D01*
X121131229Y-80433762D01*
G37*
X121131229Y-80433762D02*
X121073278Y-80463773D01*
X121062310Y-80475092D01*
X121053065Y-80490304D01*
X121045395Y-80513541D01*
X121039153Y-80548932D01*
X121034193Y-80600610D01*
X121030367Y-80672705D01*
X121027529Y-80769347D01*
X121025531Y-80894668D01*
X121024227Y-81052798D01*
X121023469Y-81247868D01*
X121023111Y-81484010D01*
X121023005Y-81765353D01*
X121023000Y-81876936D01*
X121023000Y-83244600D01*
X120426100Y-83244600D01*
X120236165Y-83244825D01*
X120090448Y-83245844D01*
X119982371Y-83248174D01*
X119905354Y-83252330D01*
X119852816Y-83258829D01*
X119818177Y-83268186D01*
X119794859Y-83280918D01*
X119778400Y-83295400D01*
X119737167Y-83368654D01*
X119727600Y-83435100D01*
X119745899Y-83525555D01*
X119778400Y-83574800D01*
X119795504Y-83589664D01*
X119817550Y-83601305D01*
X119850457Y-83610112D01*
X119900144Y-83616474D01*
X119972529Y-83620778D01*
X120073529Y-83623413D01*
X120209063Y-83624767D01*
X120385051Y-83625230D01*
X120546750Y-83625225D01*
X120779182Y-83624402D01*
X120964957Y-83622086D01*
X121108201Y-83618107D01*
X121213040Y-83612292D01*
X121283599Y-83604469D01*
X121324004Y-83594468D01*
X121327800Y-83592728D01*
X121391300Y-83560605D01*
X121397846Y-82021575D01*
X121399096Y-81700060D01*
X121399848Y-81425611D01*
X121400027Y-81194496D01*
X121399556Y-81002982D01*
X121398359Y-80847338D01*
X121396359Y-80723831D01*
X121393479Y-80628730D01*
X121389644Y-80558301D01*
X121384777Y-80508812D01*
X121378801Y-80476533D01*
X121371640Y-80457729D01*
X121365670Y-80450408D01*
X121302357Y-80424424D01*
X121216454Y-80419230D01*
X121131229Y-80433762D01*
G36*
X122577034Y-80400121D02*
G01*
X122378454Y-80401382D01*
X122220460Y-80404027D01*
X122097946Y-80408501D01*
X122005806Y-80415249D01*
X121938935Y-80424714D01*
X121892227Y-80437343D01*
X121860576Y-80453579D01*
X121838876Y-80473868D01*
X121829839Y-80486152D01*
X121812175Y-80547960D01*
X121815865Y-80629444D01*
X121838769Y-80705243D01*
X121849941Y-80724348D01*
X121867975Y-80746443D01*
X121891624Y-80761871D01*
X121929475Y-80771827D01*
X121990116Y-80777502D01*
X122082132Y-80780090D01*
X122214112Y-80780783D01*
X122256341Y-80780800D01*
X122623200Y-80780800D01*
X122623589Y-82146050D01*
X122624001Y-82405158D01*
X122625042Y-82649205D01*
X122626647Y-82873425D01*
X122628751Y-83073052D01*
X122631288Y-83243320D01*
X122634194Y-83379464D01*
X122637403Y-83476717D01*
X122640851Y-83530314D01*
X122642639Y-83539247D01*
X122691987Y-83581914D01*
X122764071Y-83615030D01*
X122821305Y-83625600D01*
X122874935Y-83610437D01*
X122936101Y-83573874D01*
X122937275Y-83572956D01*
X123004200Y-83520312D01*
X123004200Y-80780800D01*
X123371060Y-80780800D01*
X123514922Y-80780406D01*
X123616573Y-80778430D01*
X123684599Y-80773678D01*
X123727588Y-80764959D01*
X123754126Y-80751078D01*
X123772800Y-80730844D01*
X123777460Y-80724348D01*
X123814428Y-80635054D01*
X123810144Y-80543887D01*
X123766231Y-80466931D01*
X123750075Y-80452443D01*
X123730309Y-80438263D01*
X123707263Y-80426887D01*
X123675499Y-80418006D01*
X123629578Y-80411311D01*
X123564061Y-80406495D01*
X123473511Y-80403249D01*
X123352489Y-80401265D01*
X123195556Y-80400235D01*
X122997274Y-80399850D01*
X122821305Y-80399800D01*
X122577034Y-80400121D01*
G37*
X122577034Y-80400121D02*
X122378454Y-80401382D01*
X122220460Y-80404027D01*
X122097946Y-80408501D01*
X122005806Y-80415249D01*
X121938935Y-80424714D01*
X121892227Y-80437343D01*
X121860576Y-80453579D01*
X121838876Y-80473868D01*
X121829839Y-80486152D01*
X121812175Y-80547960D01*
X121815865Y-80629444D01*
X121838769Y-80705243D01*
X121849941Y-80724348D01*
X121867975Y-80746443D01*
X121891624Y-80761871D01*
X121929475Y-80771827D01*
X121990116Y-80777502D01*
X122082132Y-80780090D01*
X122214112Y-80780783D01*
X122256341Y-80780800D01*
X122623200Y-80780800D01*
X122623589Y-82146050D01*
X122624001Y-82405158D01*
X122625042Y-82649205D01*
X122626647Y-82873425D01*
X122628751Y-83073052D01*
X122631288Y-83243320D01*
X122634194Y-83379464D01*
X122637403Y-83476717D01*
X122640851Y-83530314D01*
X122642639Y-83539247D01*
X122691987Y-83581914D01*
X122764071Y-83615030D01*
X122821305Y-83625600D01*
X122874935Y-83610437D01*
X122936101Y-83573874D01*
X122937275Y-83572956D01*
X123004200Y-83520312D01*
X123004200Y-80780800D01*
X123371060Y-80780800D01*
X123514922Y-80780406D01*
X123616573Y-80778430D01*
X123684599Y-80773678D01*
X123727588Y-80764959D01*
X123754126Y-80751078D01*
X123772800Y-80730844D01*
X123777460Y-80724348D01*
X123814428Y-80635054D01*
X123810144Y-80543887D01*
X123766231Y-80466931D01*
X123750075Y-80452443D01*
X123730309Y-80438263D01*
X123707263Y-80426887D01*
X123675499Y-80418006D01*
X123629578Y-80411311D01*
X123564061Y-80406495D01*
X123473511Y-80403249D01*
X123352489Y-80401265D01*
X123195556Y-80400235D01*
X122997274Y-80399850D01*
X122821305Y-80399800D01*
X122577034Y-80400121D01*
G36*
X124970505Y-80425837D02*
G01*
X124933653Y-80434872D01*
X124845700Y-80463300D01*
X124839134Y-81853950D01*
X124832567Y-83244600D01*
X124227120Y-83244600D01*
X124035575Y-83244833D01*
X123888377Y-83245858D01*
X123779074Y-83248165D01*
X123701214Y-83252242D01*
X123648344Y-83258579D01*
X123614012Y-83267663D01*
X123591766Y-83279984D01*
X123577097Y-83293856D01*
X123540047Y-83366198D01*
X123532711Y-83453792D01*
X123554237Y-83535511D01*
X123588674Y-83580129D01*
X123609012Y-83593540D01*
X123636965Y-83604030D01*
X123678472Y-83611941D01*
X123739468Y-83617619D01*
X123825893Y-83621408D01*
X123943682Y-83623651D01*
X124098774Y-83624694D01*
X124297106Y-83624880D01*
X124359564Y-83624827D01*
X124608339Y-83623566D01*
X124807409Y-83620348D01*
X124957833Y-83615132D01*
X125060670Y-83607876D01*
X125116978Y-83598541D01*
X125125100Y-83595248D01*
X125173880Y-83560567D01*
X125194562Y-83538870D01*
X125198436Y-83508309D01*
X125201842Y-83432397D01*
X125204784Y-83316585D01*
X125207264Y-83166320D01*
X125209286Y-82987050D01*
X125210853Y-82784225D01*
X125211968Y-82563292D01*
X125212635Y-82329699D01*
X125212856Y-82088896D01*
X125212634Y-81846330D01*
X125211974Y-81607449D01*
X125210877Y-81377703D01*
X125209348Y-81162539D01*
X125207389Y-80967406D01*
X125205004Y-80797752D01*
X125202195Y-80659026D01*
X125198967Y-80556676D01*
X125195321Y-80496149D01*
X125192776Y-80481885D01*
X125141512Y-80442657D01*
X125061070Y-80422822D01*
X124970505Y-80425837D01*
G37*
X124970505Y-80425837D02*
X124933653Y-80434872D01*
X124845700Y-80463300D01*
X124839134Y-81853950D01*
X124832567Y-83244600D01*
X124227120Y-83244600D01*
X124035575Y-83244833D01*
X123888377Y-83245858D01*
X123779074Y-83248165D01*
X123701214Y-83252242D01*
X123648344Y-83258579D01*
X123614012Y-83267663D01*
X123591766Y-83279984D01*
X123577097Y-83293856D01*
X123540047Y-83366198D01*
X123532711Y-83453792D01*
X123554237Y-83535511D01*
X123588674Y-83580129D01*
X123609012Y-83593540D01*
X123636965Y-83604030D01*
X123678472Y-83611941D01*
X123739468Y-83617619D01*
X123825893Y-83621408D01*
X123943682Y-83623651D01*
X124098774Y-83624694D01*
X124297106Y-83624880D01*
X124359564Y-83624827D01*
X124608339Y-83623566D01*
X124807409Y-83620348D01*
X124957833Y-83615132D01*
X125060670Y-83607876D01*
X125116978Y-83598541D01*
X125125100Y-83595248D01*
X125173880Y-83560567D01*
X125194562Y-83538870D01*
X125198436Y-83508309D01*
X125201842Y-83432397D01*
X125204784Y-83316585D01*
X125207264Y-83166320D01*
X125209286Y-82987050D01*
X125210853Y-82784225D01*
X125211968Y-82563292D01*
X125212635Y-82329699D01*
X125212856Y-82088896D01*
X125212634Y-81846330D01*
X125211974Y-81607449D01*
X125210877Y-81377703D01*
X125209348Y-81162539D01*
X125207389Y-80967406D01*
X125205004Y-80797752D01*
X125202195Y-80659026D01*
X125198967Y-80556676D01*
X125195321Y-80496149D01*
X125192776Y-80481885D01*
X125141512Y-80442657D01*
X125061070Y-80422822D01*
X124970505Y-80425837D01*
G36*
X115878281Y-80426663D02*
G01*
X115665120Y-80476596D01*
X115482481Y-80561090D01*
X115333809Y-80676736D01*
X115222547Y-80820121D01*
X115152138Y-80987836D01*
X115126108Y-81171702D01*
X115137169Y-81280356D01*
X115178192Y-81349796D01*
X115253129Y-81384443D01*
X115321527Y-81390400D01*
X115395145Y-81384674D01*
X115445374Y-81361107D01*
X115481323Y-81310109D01*
X115512098Y-81222092D01*
X115524354Y-81176854D01*
X115552621Y-81085237D01*
X115584925Y-81004590D01*
X115603831Y-80969171D01*
X115680545Y-80893629D01*
X115793081Y-80835479D01*
X115928455Y-80798021D01*
X116073684Y-80784553D01*
X116215784Y-80798372D01*
X116246880Y-80805816D01*
X116379693Y-80866797D01*
X116485827Y-80966261D01*
X116556999Y-81095339D01*
X116574570Y-81156700D01*
X116583306Y-81225063D01*
X116590480Y-81335638D01*
X116596087Y-81479916D01*
X116600121Y-81649391D01*
X116602577Y-81835557D01*
X116603447Y-82029905D01*
X116602728Y-82223929D01*
X116600412Y-82409121D01*
X116596494Y-82576976D01*
X116590969Y-82718985D01*
X116583831Y-82826641D01*
X116575737Y-82888491D01*
X116521473Y-83034580D01*
X116430084Y-83147194D01*
X116304351Y-83224292D01*
X116147055Y-83263834D01*
X116057300Y-83268884D01*
X115888597Y-83248489D01*
X115745064Y-83189773D01*
X115632216Y-83096441D01*
X115555569Y-82972195D01*
X115537718Y-82919961D01*
X115527131Y-82856411D01*
X115518563Y-82756637D01*
X115512991Y-82635206D01*
X115511342Y-82527050D01*
X115511200Y-82228600D01*
X115799364Y-82228600D01*
X115928123Y-82227523D01*
X116015974Y-82223367D01*
X116072781Y-82214745D01*
X116108407Y-82200270D01*
X116129564Y-82182149D01*
X116164047Y-82110968D01*
X116168086Y-82023134D01*
X116141084Y-81943102D01*
X116135599Y-81935004D01*
X116118313Y-81916761D01*
X116091955Y-81903355D01*
X116048815Y-81893837D01*
X115981183Y-81887258D01*
X115881352Y-81882669D01*
X115741611Y-81879120D01*
X115670505Y-81877736D01*
X115491253Y-81873909D01*
X115355440Y-81873995D01*
X115257093Y-81884041D01*
X115190239Y-81910097D01*
X115148904Y-81958212D01*
X115127115Y-82034435D01*
X115118898Y-82144814D01*
X115118281Y-82295400D01*
X115119204Y-82436020D01*
X115122077Y-82646354D01*
X115130010Y-82814564D01*
X115144542Y-82949205D01*
X115167215Y-83058831D01*
X115199568Y-83151996D01*
X115243142Y-83237256D01*
X115271668Y-83282700D01*
X115363457Y-83396856D01*
X115475426Y-83485365D01*
X115622108Y-83559438D01*
X115639950Y-83566768D01*
X115778046Y-83607621D01*
X115941593Y-83633470D01*
X116108652Y-83642309D01*
X116257284Y-83632132D01*
X116289867Y-83626196D01*
X116497169Y-83560294D01*
X116669732Y-83459344D01*
X116805577Y-83325028D01*
X116902728Y-83159030D01*
X116931575Y-83080078D01*
X116945758Y-83031272D01*
X116957159Y-82982342D01*
X116966078Y-82927269D01*
X116972818Y-82860032D01*
X116977680Y-82774612D01*
X116980965Y-82664990D01*
X116982975Y-82525145D01*
X116984011Y-82349057D01*
X116984375Y-82130708D01*
X116984400Y-82025400D01*
X116984230Y-81787645D01*
X116983516Y-81594667D01*
X116981957Y-81440442D01*
X116979249Y-81318947D01*
X116975090Y-81224160D01*
X116969178Y-81150057D01*
X116961210Y-81090616D01*
X116950883Y-81039813D01*
X116937895Y-80991625D01*
X116931384Y-80970102D01*
X116852993Y-80797612D01*
X116735923Y-80653983D01*
X116584875Y-80541640D01*
X116404550Y-80463011D01*
X116199649Y-80420520D01*
X115974873Y-80416593D01*
X115878281Y-80426663D01*
G37*
X115878281Y-80426663D02*
X115665120Y-80476596D01*
X115482481Y-80561090D01*
X115333809Y-80676736D01*
X115222547Y-80820121D01*
X115152138Y-80987836D01*
X115126108Y-81171702D01*
X115137169Y-81280356D01*
X115178192Y-81349796D01*
X115253129Y-81384443D01*
X115321527Y-81390400D01*
X115395145Y-81384674D01*
X115445374Y-81361107D01*
X115481323Y-81310109D01*
X115512098Y-81222092D01*
X115524354Y-81176854D01*
X115552621Y-81085237D01*
X115584925Y-81004590D01*
X115603831Y-80969171D01*
X115680545Y-80893629D01*
X115793081Y-80835479D01*
X115928455Y-80798021D01*
X116073684Y-80784553D01*
X116215784Y-80798372D01*
X116246880Y-80805816D01*
X116379693Y-80866797D01*
X116485827Y-80966261D01*
X116556999Y-81095339D01*
X116574570Y-81156700D01*
X116583306Y-81225063D01*
X116590480Y-81335638D01*
X116596087Y-81479916D01*
X116600121Y-81649391D01*
X116602577Y-81835557D01*
X116603447Y-82029905D01*
X116602728Y-82223929D01*
X116600412Y-82409121D01*
X116596494Y-82576976D01*
X116590969Y-82718985D01*
X116583831Y-82826641D01*
X116575737Y-82888491D01*
X116521473Y-83034580D01*
X116430084Y-83147194D01*
X116304351Y-83224292D01*
X116147055Y-83263834D01*
X116057300Y-83268884D01*
X115888597Y-83248489D01*
X115745064Y-83189773D01*
X115632216Y-83096441D01*
X115555569Y-82972195D01*
X115537718Y-82919961D01*
X115527131Y-82856411D01*
X115518563Y-82756637D01*
X115512991Y-82635206D01*
X115511342Y-82527050D01*
X115511200Y-82228600D01*
X115799364Y-82228600D01*
X115928123Y-82227523D01*
X116015974Y-82223367D01*
X116072781Y-82214745D01*
X116108407Y-82200270D01*
X116129564Y-82182149D01*
X116164047Y-82110968D01*
X116168086Y-82023134D01*
X116141084Y-81943102D01*
X116135599Y-81935004D01*
X116118313Y-81916761D01*
X116091955Y-81903355D01*
X116048815Y-81893837D01*
X115981183Y-81887258D01*
X115881352Y-81882669D01*
X115741611Y-81879120D01*
X115670505Y-81877736D01*
X115491253Y-81873909D01*
X115355440Y-81873995D01*
X115257093Y-81884041D01*
X115190239Y-81910097D01*
X115148904Y-81958212D01*
X115127115Y-82034435D01*
X115118898Y-82144814D01*
X115118281Y-82295400D01*
X115119204Y-82436020D01*
X115122077Y-82646354D01*
X115130010Y-82814564D01*
X115144542Y-82949205D01*
X115167215Y-83058831D01*
X115199568Y-83151996D01*
X115243142Y-83237256D01*
X115271668Y-83282700D01*
X115363457Y-83396856D01*
X115475426Y-83485365D01*
X115622108Y-83559438D01*
X115639950Y-83566768D01*
X115778046Y-83607621D01*
X115941593Y-83633470D01*
X116108652Y-83642309D01*
X116257284Y-83632132D01*
X116289867Y-83626196D01*
X116497169Y-83560294D01*
X116669732Y-83459344D01*
X116805577Y-83325028D01*
X116902728Y-83159030D01*
X116931575Y-83080078D01*
X116945758Y-83031272D01*
X116957159Y-82982342D01*
X116966078Y-82927269D01*
X116972818Y-82860032D01*
X116977680Y-82774612D01*
X116980965Y-82664990D01*
X116982975Y-82525145D01*
X116984011Y-82349057D01*
X116984375Y-82130708D01*
X116984400Y-82025400D01*
X116984230Y-81787645D01*
X116983516Y-81594667D01*
X116981957Y-81440442D01*
X116979249Y-81318947D01*
X116975090Y-81224160D01*
X116969178Y-81150057D01*
X116961210Y-81090616D01*
X116950883Y-81039813D01*
X116937895Y-80991625D01*
X116931384Y-80970102D01*
X116852993Y-80797612D01*
X116735923Y-80653983D01*
X116584875Y-80541640D01*
X116404550Y-80463011D01*
X116199649Y-80420520D01*
X115974873Y-80416593D01*
X115878281Y-80426663D01*
G36*
X118276911Y-80439638D02*
G01*
X118078812Y-80496889D01*
X118007655Y-80528220D01*
X117856645Y-80622172D01*
X117741043Y-80742912D01*
X117651845Y-80900304D01*
X117637935Y-80933200D01*
X117623345Y-80970727D01*
X117611502Y-81007766D01*
X117602120Y-81049835D01*
X117594913Y-81102455D01*
X117589593Y-81171146D01*
X117585877Y-81261428D01*
X117583476Y-81378822D01*
X117582104Y-81528848D01*
X117581476Y-81717025D01*
X117581305Y-81948875D01*
X117581300Y-82025400D01*
X117581370Y-82270607D01*
X117581780Y-82470564D01*
X117582831Y-82630818D01*
X117584825Y-82756919D01*
X117588063Y-82854416D01*
X117592846Y-82928857D01*
X117599476Y-82985791D01*
X117608253Y-83030767D01*
X117619479Y-83069334D01*
X117633455Y-83107041D01*
X117641054Y-83126031D01*
X117732128Y-83299038D01*
X117852370Y-83433847D01*
X118006286Y-83534175D01*
X118198383Y-83603741D01*
X118229344Y-83611418D01*
X118425351Y-83643564D01*
X118609555Y-83640985D01*
X118762400Y-83614693D01*
X118967171Y-83549960D01*
X119130827Y-83457414D01*
X119256798Y-83333668D01*
X119348514Y-83175333D01*
X119409403Y-82979020D01*
X119410383Y-82974434D01*
X119421117Y-82895941D01*
X119430184Y-82775182D01*
X119437538Y-82620665D01*
X119443132Y-82440899D01*
X119443344Y-82429878D01*
X119038798Y-82429878D01*
X119037074Y-82599334D01*
X119032865Y-82734072D01*
X119025696Y-82839451D01*
X119015092Y-82920826D01*
X119000578Y-82983557D01*
X118981681Y-83032999D01*
X118957925Y-83074510D01*
X118935761Y-83104775D01*
X118845110Y-83182647D01*
X118721605Y-83237475D01*
X118578750Y-83266988D01*
X118430049Y-83268915D01*
X118289007Y-83240985D01*
X118239704Y-83221833D01*
X118161108Y-83175961D01*
X118094649Y-83120497D01*
X118082400Y-83106503D01*
X118050929Y-83063827D01*
X118025474Y-83020194D01*
X118005401Y-82969897D01*
X117990075Y-82907228D01*
X117978863Y-82826481D01*
X117971131Y-82721946D01*
X117966244Y-82587917D01*
X117963569Y-82418686D01*
X117962470Y-82208545D01*
X117962300Y-82025400D01*
X117962545Y-81794706D01*
X117963471Y-81608895D01*
X117965368Y-81462049D01*
X117968525Y-81348251D01*
X117973234Y-81261585D01*
X117979782Y-81196134D01*
X117988459Y-81145981D01*
X117999556Y-81105211D01*
X118008575Y-81079972D01*
X118083612Y-80948830D01*
X118192075Y-80855242D01*
X118332173Y-80800154D01*
X118502114Y-80784511D01*
X118562380Y-80787979D01*
X118728202Y-80819721D01*
X118857023Y-80883105D01*
X118953301Y-80980414D01*
X118961517Y-80992410D01*
X119029100Y-81094481D01*
X119036686Y-81965386D01*
X119038510Y-82220348D01*
X119038798Y-82429878D01*
X119443344Y-82429878D01*
X119446918Y-82244393D01*
X119448849Y-82039654D01*
X119448880Y-81835191D01*
X119446962Y-81639512D01*
X119443048Y-81461126D01*
X119437093Y-81308541D01*
X119429048Y-81190265D01*
X119420594Y-81123394D01*
X119363161Y-80919458D01*
X119273521Y-80749909D01*
X119198220Y-80659512D01*
X119056452Y-80551722D01*
X118883457Y-80474739D01*
X118689214Y-80429663D01*
X118483705Y-80417596D01*
X118276911Y-80439638D01*
G37*
X118276911Y-80439638D02*
X118078812Y-80496889D01*
X118007655Y-80528220D01*
X117856645Y-80622172D01*
X117741043Y-80742912D01*
X117651845Y-80900304D01*
X117637935Y-80933200D01*
X117623345Y-80970727D01*
X117611502Y-81007766D01*
X117602120Y-81049835D01*
X117594913Y-81102455D01*
X117589593Y-81171146D01*
X117585877Y-81261428D01*
X117583476Y-81378822D01*
X117582104Y-81528848D01*
X117581476Y-81717025D01*
X117581305Y-81948875D01*
X117581300Y-82025400D01*
X117581370Y-82270607D01*
X117581780Y-82470564D01*
X117582831Y-82630818D01*
X117584825Y-82756919D01*
X117588063Y-82854416D01*
X117592846Y-82928857D01*
X117599476Y-82985791D01*
X117608253Y-83030767D01*
X117619479Y-83069334D01*
X117633455Y-83107041D01*
X117641054Y-83126031D01*
X117732128Y-83299038D01*
X117852370Y-83433847D01*
X118006286Y-83534175D01*
X118198383Y-83603741D01*
X118229344Y-83611418D01*
X118425351Y-83643564D01*
X118609555Y-83640985D01*
X118762400Y-83614693D01*
X118967171Y-83549960D01*
X119130827Y-83457414D01*
X119256798Y-83333668D01*
X119348514Y-83175333D01*
X119409403Y-82979020D01*
X119410383Y-82974434D01*
X119421117Y-82895941D01*
X119430184Y-82775182D01*
X119437538Y-82620665D01*
X119443132Y-82440899D01*
X119443344Y-82429878D01*
X119038798Y-82429878D01*
X119037074Y-82599334D01*
X119032865Y-82734072D01*
X119025696Y-82839451D01*
X119015092Y-82920826D01*
X119000578Y-82983557D01*
X118981681Y-83032999D01*
X118957925Y-83074510D01*
X118935761Y-83104775D01*
X118845110Y-83182647D01*
X118721605Y-83237475D01*
X118578750Y-83266988D01*
X118430049Y-83268915D01*
X118289007Y-83240985D01*
X118239704Y-83221833D01*
X118161108Y-83175961D01*
X118094649Y-83120497D01*
X118082400Y-83106503D01*
X118050929Y-83063827D01*
X118025474Y-83020194D01*
X118005401Y-82969897D01*
X117990075Y-82907228D01*
X117978863Y-82826481D01*
X117971131Y-82721946D01*
X117966244Y-82587917D01*
X117963569Y-82418686D01*
X117962470Y-82208545D01*
X117962300Y-82025400D01*
X117962545Y-81794706D01*
X117963471Y-81608895D01*
X117965368Y-81462049D01*
X117968525Y-81348251D01*
X117973234Y-81261585D01*
X117979782Y-81196134D01*
X117988459Y-81145981D01*
X117999556Y-81105211D01*
X118008575Y-81079972D01*
X118083612Y-80948830D01*
X118192075Y-80855242D01*
X118332173Y-80800154D01*
X118502114Y-80784511D01*
X118562380Y-80787979D01*
X118728202Y-80819721D01*
X118857023Y-80883105D01*
X118953301Y-80980414D01*
X118961517Y-80992410D01*
X119029100Y-81094481D01*
X119036686Y-81965386D01*
X119038510Y-82220348D01*
X119038798Y-82429878D01*
X119443344Y-82429878D01*
X119446918Y-82244393D01*
X119448849Y-82039654D01*
X119448880Y-81835191D01*
X119446962Y-81639512D01*
X119443048Y-81461126D01*
X119437093Y-81308541D01*
X119429048Y-81190265D01*
X119420594Y-81123394D01*
X119363161Y-80919458D01*
X119273521Y-80749909D01*
X119198220Y-80659512D01*
X119056452Y-80551722D01*
X118883457Y-80474739D01*
X118689214Y-80429663D01*
X118483705Y-80417596D01*
X118276911Y-80439638D01*
G36*
X126655075Y-80421269D02*
G01*
X126454257Y-80455521D01*
X126270972Y-80522862D01*
X126115079Y-80622176D01*
X126069498Y-80663595D01*
X126009785Y-80727830D01*
X125960499Y-80793671D01*
X125920661Y-80866584D01*
X125889291Y-80952034D01*
X125865408Y-81055486D01*
X125848035Y-81182404D01*
X125836191Y-81338255D01*
X125828897Y-81528502D01*
X125825174Y-81758611D01*
X125824042Y-82033085D01*
X125824763Y-82295283D01*
X125827725Y-82512589D01*
X125833644Y-82690887D01*
X125843233Y-82836061D01*
X125857207Y-82953998D01*
X125876279Y-83050580D01*
X125901164Y-83131693D01*
X125932577Y-83203221D01*
X125971232Y-83271050D01*
X125975046Y-83277104D01*
X126086044Y-83406805D01*
X126233595Y-83510996D01*
X126408894Y-83587037D01*
X126603134Y-83632289D01*
X126807508Y-83644110D01*
X127013209Y-83619862D01*
X127071516Y-83605797D01*
X127267437Y-83532032D01*
X127424942Y-83426072D01*
X127546933Y-83285273D01*
X127636315Y-83106993D01*
X127644618Y-83084016D01*
X127656675Y-83045194D01*
X127666441Y-83001189D01*
X127674151Y-82946486D01*
X127680043Y-82875570D01*
X127684352Y-82782928D01*
X127687315Y-82663045D01*
X127689168Y-82510405D01*
X127690147Y-82319495D01*
X127690487Y-82084800D01*
X127690498Y-82019865D01*
X127296243Y-82019865D01*
X127296108Y-82268814D01*
X127294954Y-82472422D01*
X127292186Y-82636149D01*
X127287205Y-82765454D01*
X127279414Y-82865794D01*
X127268217Y-82942628D01*
X127253016Y-83001416D01*
X127233214Y-83047614D01*
X127208215Y-83086683D01*
X127177421Y-83124079D01*
X127175182Y-83126607D01*
X127086459Y-83193443D01*
X126964711Y-83240876D01*
X126824764Y-83266561D01*
X126681443Y-83268153D01*
X126549576Y-83243304D01*
X126515864Y-83230931D01*
X126406299Y-83172416D01*
X126330067Y-83096094D01*
X126277771Y-83003300D01*
X126265164Y-82972115D01*
X126255028Y-82935520D01*
X126247093Y-82887927D01*
X126241090Y-82823747D01*
X126236748Y-82737390D01*
X126233796Y-82623269D01*
X126231964Y-82475793D01*
X126230983Y-82289375D01*
X126230581Y-82058425D01*
X126230558Y-82027069D01*
X126230528Y-81792434D01*
X126230972Y-81602934D01*
X126232197Y-81452903D01*
X126234509Y-81336676D01*
X126238215Y-81248587D01*
X126243620Y-81182971D01*
X126251032Y-81134162D01*
X126260757Y-81096496D01*
X126273100Y-81064307D01*
X126283878Y-81041143D01*
X126363875Y-80924535D01*
X126474968Y-80844639D01*
X126620947Y-80799107D01*
X126689293Y-80790051D01*
X126876077Y-80790259D01*
X127029299Y-80828507D01*
X127149180Y-80904897D01*
X127235938Y-81019528D01*
X127248634Y-81045503D01*
X127261369Y-81077187D01*
X127271602Y-81113990D01*
X127279606Y-81161532D01*
X127285657Y-81225435D01*
X127290029Y-81311319D01*
X127292996Y-81424803D01*
X127294834Y-81571510D01*
X127295817Y-81757058D01*
X127296219Y-81987069D01*
X127296243Y-82019865D01*
X127690498Y-82019865D01*
X127690500Y-82012700D01*
X127690406Y-81768859D01*
X127689928Y-81570250D01*
X127688774Y-81411305D01*
X127686651Y-81286455D01*
X127683269Y-81190133D01*
X127678335Y-81116769D01*
X127671556Y-81060796D01*
X127662640Y-81016646D01*
X127651296Y-80978751D01*
X127637231Y-80941542D01*
X127633866Y-80933200D01*
X127548455Y-80768183D01*
X127438257Y-80641589D01*
X127294267Y-80543555D01*
X127264146Y-80528220D01*
X127069879Y-80456502D01*
X126863569Y-80421224D01*
X126655075Y-80421269D01*
G37*
X126655075Y-80421269D02*
X126454257Y-80455521D01*
X126270972Y-80522862D01*
X126115079Y-80622176D01*
X126069498Y-80663595D01*
X126009785Y-80727830D01*
X125960499Y-80793671D01*
X125920661Y-80866584D01*
X125889291Y-80952034D01*
X125865408Y-81055486D01*
X125848035Y-81182404D01*
X125836191Y-81338255D01*
X125828897Y-81528502D01*
X125825174Y-81758611D01*
X125824042Y-82033085D01*
X125824763Y-82295283D01*
X125827725Y-82512589D01*
X125833644Y-82690887D01*
X125843233Y-82836061D01*
X125857207Y-82953998D01*
X125876279Y-83050580D01*
X125901164Y-83131693D01*
X125932577Y-83203221D01*
X125971232Y-83271050D01*
X125975046Y-83277104D01*
X126086044Y-83406805D01*
X126233595Y-83510996D01*
X126408894Y-83587037D01*
X126603134Y-83632289D01*
X126807508Y-83644110D01*
X127013209Y-83619862D01*
X127071516Y-83605797D01*
X127267437Y-83532032D01*
X127424942Y-83426072D01*
X127546933Y-83285273D01*
X127636315Y-83106993D01*
X127644618Y-83084016D01*
X127656675Y-83045194D01*
X127666441Y-83001189D01*
X127674151Y-82946486D01*
X127680043Y-82875570D01*
X127684352Y-82782928D01*
X127687315Y-82663045D01*
X127689168Y-82510405D01*
X127690147Y-82319495D01*
X127690487Y-82084800D01*
X127690498Y-82019865D01*
X127296243Y-82019865D01*
X127296108Y-82268814D01*
X127294954Y-82472422D01*
X127292186Y-82636149D01*
X127287205Y-82765454D01*
X127279414Y-82865794D01*
X127268217Y-82942628D01*
X127253016Y-83001416D01*
X127233214Y-83047614D01*
X127208215Y-83086683D01*
X127177421Y-83124079D01*
X127175182Y-83126607D01*
X127086459Y-83193443D01*
X126964711Y-83240876D01*
X126824764Y-83266561D01*
X126681443Y-83268153D01*
X126549576Y-83243304D01*
X126515864Y-83230931D01*
X126406299Y-83172416D01*
X126330067Y-83096094D01*
X126277771Y-83003300D01*
X126265164Y-82972115D01*
X126255028Y-82935520D01*
X126247093Y-82887927D01*
X126241090Y-82823747D01*
X126236748Y-82737390D01*
X126233796Y-82623269D01*
X126231964Y-82475793D01*
X126230983Y-82289375D01*
X126230581Y-82058425D01*
X126230558Y-82027069D01*
X126230528Y-81792434D01*
X126230972Y-81602934D01*
X126232197Y-81452903D01*
X126234509Y-81336676D01*
X126238215Y-81248587D01*
X126243620Y-81182971D01*
X126251032Y-81134162D01*
X126260757Y-81096496D01*
X126273100Y-81064307D01*
X126283878Y-81041143D01*
X126363875Y-80924535D01*
X126474968Y-80844639D01*
X126620947Y-80799107D01*
X126689293Y-80790051D01*
X126876077Y-80790259D01*
X127029299Y-80828507D01*
X127149180Y-80904897D01*
X127235938Y-81019528D01*
X127248634Y-81045503D01*
X127261369Y-81077187D01*
X127271602Y-81113990D01*
X127279606Y-81161532D01*
X127285657Y-81225435D01*
X127290029Y-81311319D01*
X127292996Y-81424803D01*
X127294834Y-81571510D01*
X127295817Y-81757058D01*
X127296219Y-81987069D01*
X127296243Y-82019865D01*
X127690498Y-82019865D01*
X127690500Y-82012700D01*
X127690406Y-81768859D01*
X127689928Y-81570250D01*
X127688774Y-81411305D01*
X127686651Y-81286455D01*
X127683269Y-81190133D01*
X127678335Y-81116769D01*
X127671556Y-81060796D01*
X127662640Y-81016646D01*
X127651296Y-80978751D01*
X127637231Y-80941542D01*
X127633866Y-80933200D01*
X127548455Y-80768183D01*
X127438257Y-80641589D01*
X127294267Y-80543555D01*
X127264146Y-80528220D01*
X127069879Y-80456502D01*
X126863569Y-80421224D01*
X126655075Y-80421269D01*
G36*
X130009385Y-80430824D02*
G01*
X129994705Y-80434720D01*
X129982360Y-80437486D01*
X129971099Y-80442750D01*
X129959671Y-80454141D01*
X129946823Y-80475284D01*
X129931304Y-80509810D01*
X129911861Y-80561344D01*
X129887243Y-80633516D01*
X129856198Y-80729953D01*
X129817474Y-80854282D01*
X129769819Y-81010132D01*
X129711980Y-81201131D01*
X129642707Y-81430906D01*
X129560748Y-81703085D01*
X129494657Y-81922443D01*
X129430246Y-82135553D01*
X129370205Y-82333117D01*
X129316144Y-82509923D01*
X129269671Y-82660757D01*
X129232395Y-82780408D01*
X129205924Y-82863662D01*
X129191868Y-82905307D01*
X129190173Y-82909094D01*
X129186320Y-82908034D01*
X129179898Y-82896592D01*
X129169796Y-82871194D01*
X129154904Y-82828267D01*
X129134111Y-82764235D01*
X129106306Y-82675525D01*
X129070377Y-82558562D01*
X129025215Y-82409771D01*
X128969708Y-82225579D01*
X128902746Y-82002411D01*
X128823217Y-81736693D01*
X128757665Y-81517400D01*
X128695413Y-81309205D01*
X128636858Y-81113622D01*
X128583807Y-80936660D01*
X128538062Y-80784328D01*
X128501429Y-80662636D01*
X128475713Y-80577594D01*
X128462717Y-80535211D01*
X128462708Y-80535181D01*
X128416078Y-80459620D01*
X128339885Y-80422605D01*
X128240339Y-80426612D01*
X128210974Y-80434815D01*
X128178027Y-80445637D01*
X128150565Y-80457437D01*
X128129287Y-80473816D01*
X128114890Y-80498370D01*
X128108075Y-80534698D01*
X128109540Y-80586398D01*
X128119983Y-80657070D01*
X128140103Y-80750310D01*
X128170598Y-80869718D01*
X128212168Y-81018891D01*
X128265511Y-81201428D01*
X128331326Y-81420928D01*
X128410311Y-81680988D01*
X128503166Y-81985207D01*
X128527459Y-82064755D01*
X128612841Y-82342748D01*
X128693594Y-82602525D01*
X128768447Y-82840179D01*
X128836128Y-83051804D01*
X128895367Y-83233492D01*
X128944893Y-83381336D01*
X128983435Y-83491430D01*
X129009721Y-83559866D01*
X129021039Y-83581962D01*
X129086799Y-83620732D01*
X129175937Y-83640443D01*
X129263226Y-83636802D01*
X129291582Y-83628014D01*
X129346870Y-83594221D01*
X129370987Y-83571291D01*
X129383210Y-83541376D01*
X129408820Y-83467166D01*
X129446450Y-83352973D01*
X129494728Y-83203110D01*
X129552285Y-83021891D01*
X129617751Y-82813628D01*
X129689756Y-82582635D01*
X129766931Y-82333225D01*
X129847907Y-82069711D01*
X129849444Y-82064690D01*
X129946069Y-81748320D01*
X130028315Y-81477084D01*
X130097102Y-81247676D01*
X130153352Y-81056791D01*
X130197986Y-80901122D01*
X130231925Y-80777362D01*
X130256090Y-80682206D01*
X130271401Y-80612347D01*
X130278779Y-80564478D01*
X130279146Y-80535294D01*
X130277494Y-80527990D01*
X130232496Y-80468943D01*
X130156562Y-80430710D01*
X130067483Y-80419740D01*
X130009385Y-80430824D01*
G37*
X130009385Y-80430824D02*
X129994705Y-80434720D01*
X129982360Y-80437486D01*
X129971099Y-80442750D01*
X129959671Y-80454141D01*
X129946823Y-80475284D01*
X129931304Y-80509810D01*
X129911861Y-80561344D01*
X129887243Y-80633516D01*
X129856198Y-80729953D01*
X129817474Y-80854282D01*
X129769819Y-81010132D01*
X129711980Y-81201131D01*
X129642707Y-81430906D01*
X129560748Y-81703085D01*
X129494657Y-81922443D01*
X129430246Y-82135553D01*
X129370205Y-82333117D01*
X129316144Y-82509923D01*
X129269671Y-82660757D01*
X129232395Y-82780408D01*
X129205924Y-82863662D01*
X129191868Y-82905307D01*
X129190173Y-82909094D01*
X129186320Y-82908034D01*
X129179898Y-82896592D01*
X129169796Y-82871194D01*
X129154904Y-82828267D01*
X129134111Y-82764235D01*
X129106306Y-82675525D01*
X129070377Y-82558562D01*
X129025215Y-82409771D01*
X128969708Y-82225579D01*
X128902746Y-82002411D01*
X128823217Y-81736693D01*
X128757665Y-81517400D01*
X128695413Y-81309205D01*
X128636858Y-81113622D01*
X128583807Y-80936660D01*
X128538062Y-80784328D01*
X128501429Y-80662636D01*
X128475713Y-80577594D01*
X128462717Y-80535211D01*
X128462708Y-80535181D01*
X128416078Y-80459620D01*
X128339885Y-80422605D01*
X128240339Y-80426612D01*
X128210974Y-80434815D01*
X128178027Y-80445637D01*
X128150565Y-80457437D01*
X128129287Y-80473816D01*
X128114890Y-80498370D01*
X128108075Y-80534698D01*
X128109540Y-80586398D01*
X128119983Y-80657070D01*
X128140103Y-80750310D01*
X128170598Y-80869718D01*
X128212168Y-81018891D01*
X128265511Y-81201428D01*
X128331326Y-81420928D01*
X128410311Y-81680988D01*
X128503166Y-81985207D01*
X128527459Y-82064755D01*
X128612841Y-82342748D01*
X128693594Y-82602525D01*
X128768447Y-82840179D01*
X128836128Y-83051804D01*
X128895367Y-83233492D01*
X128944893Y-83381336D01*
X128983435Y-83491430D01*
X129009721Y-83559866D01*
X129021039Y-83581962D01*
X129086799Y-83620732D01*
X129175937Y-83640443D01*
X129263226Y-83636802D01*
X129291582Y-83628014D01*
X129346870Y-83594221D01*
X129370987Y-83571291D01*
X129383210Y-83541376D01*
X129408820Y-83467166D01*
X129446450Y-83352973D01*
X129494728Y-83203110D01*
X129552285Y-83021891D01*
X129617751Y-82813628D01*
X129689756Y-82582635D01*
X129766931Y-82333225D01*
X129847907Y-82069711D01*
X129849444Y-82064690D01*
X129946069Y-81748320D01*
X130028315Y-81477084D01*
X130097102Y-81247676D01*
X130153352Y-81056791D01*
X130197986Y-80901122D01*
X130231925Y-80777362D01*
X130256090Y-80682206D01*
X130271401Y-80612347D01*
X130278779Y-80564478D01*
X130279146Y-80535294D01*
X130277494Y-80527990D01*
X130232496Y-80468943D01*
X130156562Y-80430710D01*
X130067483Y-80419740D01*
X130009385Y-80430824D01*
G36*
X135514733Y-79014883D02*
G01*
X135220207Y-79017623D01*
X134935912Y-79022165D01*
X134669404Y-79028477D01*
X134428240Y-79036527D01*
X134219975Y-79046284D01*
X134052165Y-79057716D01*
X134002400Y-79062307D01*
X133698195Y-79094573D01*
X133417414Y-79127275D01*
X133164408Y-79159781D01*
X132943529Y-79191456D01*
X132759129Y-79221666D01*
X132615559Y-79249777D01*
X132517173Y-79275155D01*
X132499375Y-79281285D01*
X132288971Y-79386337D01*
X132104695Y-79531391D01*
X131951516Y-79710265D01*
X131834402Y-79916780D01*
X131758319Y-80144753D01*
X131743325Y-80222000D01*
X131737865Y-80282374D01*
X131733025Y-80388070D01*
X131728803Y-80533613D01*
X131725201Y-80713530D01*
X131722219Y-80922345D01*
X131719858Y-81154584D01*
X131718117Y-81404772D01*
X131716997Y-81667436D01*
X131716498Y-81937100D01*
X131716621Y-82208291D01*
X131717366Y-82475534D01*
X131718733Y-82733354D01*
X131720723Y-82976278D01*
X131723336Y-83198830D01*
X131726572Y-83395536D01*
X131730432Y-83560922D01*
X131734915Y-83689513D01*
X131740023Y-83775835D01*
X131743113Y-83803400D01*
X131787029Y-83978153D01*
X131859881Y-84159781D01*
X131951604Y-84325222D01*
X132000840Y-84393962D01*
X132122502Y-84519281D01*
X132275012Y-84634476D01*
X132438841Y-84726161D01*
X132547002Y-84768328D01*
X132592877Y-84781565D01*
X132639937Y-84792306D01*
X132693855Y-84800810D01*
X132760305Y-84807335D01*
X132844960Y-84812139D01*
X132953495Y-84815481D01*
X133091582Y-84817619D01*
X133264897Y-84818811D01*
X133479113Y-84819316D01*
X133668558Y-84819400D01*
X134624765Y-84819400D01*
X135475463Y-86017565D01*
X135631703Y-86237389D01*
X135779816Y-86445329D01*
X135917082Y-86637595D01*
X136040780Y-86810400D01*
X136148191Y-86959955D01*
X136236595Y-87082472D01*
X136303272Y-87174162D01*
X136345502Y-87231236D01*
X136359895Y-87249465D01*
X136404908Y-87280532D01*
X136445362Y-87267055D01*
X136461121Y-87252720D01*
X136488248Y-87206818D01*
X136491600Y-87187819D01*
X136484366Y-87151461D01*
X136463720Y-87071851D01*
X136431248Y-86954271D01*
X136388537Y-86804003D01*
X136337174Y-86626330D01*
X136278744Y-86426536D01*
X136214834Y-86209902D01*
X136147030Y-85981712D01*
X136076918Y-85747248D01*
X136006086Y-85511793D01*
X135936119Y-85280630D01*
X135868603Y-85059040D01*
X135805124Y-84852308D01*
X135747270Y-84665716D01*
X135696627Y-84504546D01*
X135654780Y-84374082D01*
X135623316Y-84279605D01*
X135603821Y-84226399D01*
X135599806Y-84217977D01*
X135495865Y-84093673D01*
X135352862Y-83987218D01*
X135181379Y-83905696D01*
X135090507Y-83877089D01*
X135034476Y-83868601D01*
X134933822Y-83860111D01*
X134794723Y-83851927D01*
X134623354Y-83844362D01*
X134425893Y-83837724D01*
X134208516Y-83832324D01*
X134192900Y-83832004D01*
X133405500Y-83816100D01*
X133242937Y-83727978D01*
X133078873Y-83613581D01*
X132948371Y-83469423D01*
X132858764Y-83303938D01*
X132847964Y-83273804D01*
X132838280Y-83239660D01*
X132830300Y-83197805D01*
X132823905Y-83143593D01*
X132818975Y-83072376D01*
X132815392Y-82979505D01*
X132813036Y-82860333D01*
X132811790Y-82710212D01*
X132811534Y-82524495D01*
X132812149Y-82298534D01*
X132813517Y-82027680D01*
X132814000Y-81946134D01*
X132821300Y-80742700D01*
X132896644Y-80606672D01*
X133006240Y-80452757D01*
X133145632Y-80325090D01*
X133301967Y-80235086D01*
X133325564Y-80225733D01*
X133403680Y-80204203D01*
X133524598Y-80180601D01*
X133680411Y-80155900D01*
X133863213Y-80131073D01*
X134065097Y-80107094D01*
X134278157Y-80084937D01*
X134494486Y-80065573D01*
X134706178Y-80049978D01*
X134798594Y-80044405D01*
X134991901Y-80036549D01*
X135222558Y-80031907D01*
X135480218Y-80030308D01*
X135754533Y-80031581D01*
X136035158Y-80035554D01*
X136311744Y-80042056D01*
X136573946Y-80050916D01*
X136811415Y-80061963D01*
X137013806Y-80075026D01*
X137101200Y-80082506D01*
X137365649Y-80108946D01*
X137585107Y-80134187D01*
X137765307Y-80159818D01*
X137911982Y-80187431D01*
X138030864Y-80218615D01*
X138127687Y-80254961D01*
X138208184Y-80298059D01*
X138278086Y-80349498D01*
X138343127Y-80410870D01*
X138363716Y-80432722D01*
X138407698Y-80479734D01*
X138444643Y-80520376D01*
X138475190Y-80559338D01*
X138499973Y-80601312D01*
X138519629Y-80650989D01*
X138534794Y-80713059D01*
X138546105Y-80792213D01*
X138554197Y-80893143D01*
X138559707Y-81020539D01*
X138563271Y-81179091D01*
X138565525Y-81373492D01*
X138567106Y-81608432D01*
X138568649Y-81888602D01*
X138568984Y-81946186D01*
X138570700Y-82245938D01*
X138571644Y-82499482D01*
X138571277Y-82711410D01*
X138569060Y-82886312D01*
X138564453Y-83028781D01*
X138556916Y-83143407D01*
X138545911Y-83234783D01*
X138530898Y-83307499D01*
X138511338Y-83366147D01*
X138486692Y-83415319D01*
X138456420Y-83459605D01*
X138419983Y-83503598D01*
X138380907Y-83547364D01*
X138281573Y-83639949D01*
X138166920Y-83720592D01*
X138122347Y-83744970D01*
X138066877Y-83771071D01*
X138016573Y-83790078D01*
X137961765Y-83803321D01*
X137892787Y-83812130D01*
X137799969Y-83817833D01*
X137673645Y-83821760D01*
X137544104Y-83824475D01*
X137110708Y-83832851D01*
X136248172Y-82617975D01*
X136058449Y-82351115D01*
X135895677Y-82123256D01*
X135757671Y-81931784D01*
X135642247Y-81774085D01*
X135547220Y-81647546D01*
X135470403Y-81549554D01*
X135409614Y-81477496D01*
X135362665Y-81428757D01*
X135327373Y-81400726D01*
X135301553Y-81390787D01*
X135283018Y-81396329D01*
X135269585Y-81414737D01*
X135260959Y-81437234D01*
X135265364Y-81469062D01*
X135282886Y-81544319D01*
X135312017Y-81657786D01*
X135351246Y-81804244D01*
X135399063Y-81978474D01*
X135453958Y-82175257D01*
X135514422Y-82389373D01*
X135578944Y-82615604D01*
X135646015Y-82848730D01*
X135714124Y-83083532D01*
X135781762Y-83314791D01*
X135847418Y-83537288D01*
X135909584Y-83745804D01*
X135966748Y-83935119D01*
X136017401Y-84100014D01*
X136060033Y-84235271D01*
X136093134Y-84335671D01*
X136115195Y-84395993D01*
X136120045Y-84406705D01*
X136187961Y-84500958D01*
X136289598Y-84597334D01*
X136409979Y-84683486D01*
X136531763Y-84746120D01*
X136569488Y-84760994D01*
X136605278Y-84773209D01*
X136644338Y-84783027D01*
X136691872Y-84790710D01*
X136753085Y-84796520D01*
X136833181Y-84800719D01*
X136937365Y-84803567D01*
X137070840Y-84805328D01*
X137238813Y-84806262D01*
X137446486Y-84806632D01*
X137699066Y-84806699D01*
X137736200Y-84806700D01*
X138790300Y-84806700D01*
X138962161Y-84725556D01*
X139129110Y-84626439D01*
X139287808Y-84495169D01*
X139423538Y-84345505D01*
X139510402Y-84213082D01*
X139539738Y-84157722D01*
X139565151Y-84106822D01*
X139586922Y-84056457D01*
X139605331Y-84002700D01*
X139620662Y-83941626D01*
X139633195Y-83869308D01*
X139643213Y-83781820D01*
X139650997Y-83675237D01*
X139656829Y-83545633D01*
X139660991Y-83389081D01*
X139663763Y-83201656D01*
X139665429Y-82979432D01*
X139666269Y-82718482D01*
X139666566Y-82414881D01*
X139666601Y-82064703D01*
X139666601Y-82036230D01*
X139666216Y-81688651D01*
X139665087Y-81369070D01*
X139663256Y-81080427D01*
X139660762Y-80825661D01*
X139657645Y-80607712D01*
X139653946Y-80429520D01*
X139649705Y-80294025D01*
X139644961Y-80204165D01*
X139641066Y-80168316D01*
X139576007Y-79952722D01*
X139467703Y-79751681D01*
X139323004Y-79572284D01*
X139148759Y-79421624D01*
X138951819Y-79306790D01*
X138739500Y-79234978D01*
X138662561Y-79220888D01*
X138543644Y-79202756D01*
X138391314Y-79181636D01*
X138214136Y-79158584D01*
X138020677Y-79134656D01*
X137819500Y-79110905D01*
X137619173Y-79088388D01*
X137428259Y-79068160D01*
X137255325Y-79051276D01*
X137228200Y-79048802D01*
X137073621Y-79038045D01*
X136876380Y-79029312D01*
X136644036Y-79022570D01*
X136384143Y-79017787D01*
X136104257Y-79014933D01*
X135811936Y-79013975D01*
X135514733Y-79014883D01*
G37*
X135514733Y-79014883D02*
X135220207Y-79017623D01*
X134935912Y-79022165D01*
X134669404Y-79028477D01*
X134428240Y-79036527D01*
X134219975Y-79046284D01*
X134052165Y-79057716D01*
X134002400Y-79062307D01*
X133698195Y-79094573D01*
X133417414Y-79127275D01*
X133164408Y-79159781D01*
X132943529Y-79191456D01*
X132759129Y-79221666D01*
X132615559Y-79249777D01*
X132517173Y-79275155D01*
X132499375Y-79281285D01*
X132288971Y-79386337D01*
X132104695Y-79531391D01*
X131951516Y-79710265D01*
X131834402Y-79916780D01*
X131758319Y-80144753D01*
X131743325Y-80222000D01*
X131737865Y-80282374D01*
X131733025Y-80388070D01*
X131728803Y-80533613D01*
X131725201Y-80713530D01*
X131722219Y-80922345D01*
X131719858Y-81154584D01*
X131718117Y-81404772D01*
X131716997Y-81667436D01*
X131716498Y-81937100D01*
X131716621Y-82208291D01*
X131717366Y-82475534D01*
X131718733Y-82733354D01*
X131720723Y-82976278D01*
X131723336Y-83198830D01*
X131726572Y-83395536D01*
X131730432Y-83560922D01*
X131734915Y-83689513D01*
X131740023Y-83775835D01*
X131743113Y-83803400D01*
X131787029Y-83978153D01*
X131859881Y-84159781D01*
X131951604Y-84325222D01*
X132000840Y-84393962D01*
X132122502Y-84519281D01*
X132275012Y-84634476D01*
X132438841Y-84726161D01*
X132547002Y-84768328D01*
X132592877Y-84781565D01*
X132639937Y-84792306D01*
X132693855Y-84800810D01*
X132760305Y-84807335D01*
X132844960Y-84812139D01*
X132953495Y-84815481D01*
X133091582Y-84817619D01*
X133264897Y-84818811D01*
X133479113Y-84819316D01*
X133668558Y-84819400D01*
X134624765Y-84819400D01*
X135475463Y-86017565D01*
X135631703Y-86237389D01*
X135779816Y-86445329D01*
X135917082Y-86637595D01*
X136040780Y-86810400D01*
X136148191Y-86959955D01*
X136236595Y-87082472D01*
X136303272Y-87174162D01*
X136345502Y-87231236D01*
X136359895Y-87249465D01*
X136404908Y-87280532D01*
X136445362Y-87267055D01*
X136461121Y-87252720D01*
X136488248Y-87206818D01*
X136491600Y-87187819D01*
X136484366Y-87151461D01*
X136463720Y-87071851D01*
X136431248Y-86954271D01*
X136388537Y-86804003D01*
X136337174Y-86626330D01*
X136278744Y-86426536D01*
X136214834Y-86209902D01*
X136147030Y-85981712D01*
X136076918Y-85747248D01*
X136006086Y-85511793D01*
X135936119Y-85280630D01*
X135868603Y-85059040D01*
X135805124Y-84852308D01*
X135747270Y-84665716D01*
X135696627Y-84504546D01*
X135654780Y-84374082D01*
X135623316Y-84279605D01*
X135603821Y-84226399D01*
X135599806Y-84217977D01*
X135495865Y-84093673D01*
X135352862Y-83987218D01*
X135181379Y-83905696D01*
X135090507Y-83877089D01*
X135034476Y-83868601D01*
X134933822Y-83860111D01*
X134794723Y-83851927D01*
X134623354Y-83844362D01*
X134425893Y-83837724D01*
X134208516Y-83832324D01*
X134192900Y-83832004D01*
X133405500Y-83816100D01*
X133242937Y-83727978D01*
X133078873Y-83613581D01*
X132948371Y-83469423D01*
X132858764Y-83303938D01*
X132847964Y-83273804D01*
X132838280Y-83239660D01*
X132830300Y-83197805D01*
X132823905Y-83143593D01*
X132818975Y-83072376D01*
X132815392Y-82979505D01*
X132813036Y-82860333D01*
X132811790Y-82710212D01*
X132811534Y-82524495D01*
X132812149Y-82298534D01*
X132813517Y-82027680D01*
X132814000Y-81946134D01*
X132821300Y-80742700D01*
X132896644Y-80606672D01*
X133006240Y-80452757D01*
X133145632Y-80325090D01*
X133301967Y-80235086D01*
X133325564Y-80225733D01*
X133403680Y-80204203D01*
X133524598Y-80180601D01*
X133680411Y-80155900D01*
X133863213Y-80131073D01*
X134065097Y-80107094D01*
X134278157Y-80084937D01*
X134494486Y-80065573D01*
X134706178Y-80049978D01*
X134798594Y-80044405D01*
X134991901Y-80036549D01*
X135222558Y-80031907D01*
X135480218Y-80030308D01*
X135754533Y-80031581D01*
X136035158Y-80035554D01*
X136311744Y-80042056D01*
X136573946Y-80050916D01*
X136811415Y-80061963D01*
X137013806Y-80075026D01*
X137101200Y-80082506D01*
X137365649Y-80108946D01*
X137585107Y-80134187D01*
X137765307Y-80159818D01*
X137911982Y-80187431D01*
X138030864Y-80218615D01*
X138127687Y-80254961D01*
X138208184Y-80298059D01*
X138278086Y-80349498D01*
X138343127Y-80410870D01*
X138363716Y-80432722D01*
X138407698Y-80479734D01*
X138444643Y-80520376D01*
X138475190Y-80559338D01*
X138499973Y-80601312D01*
X138519629Y-80650989D01*
X138534794Y-80713059D01*
X138546105Y-80792213D01*
X138554197Y-80893143D01*
X138559707Y-81020539D01*
X138563271Y-81179091D01*
X138565525Y-81373492D01*
X138567106Y-81608432D01*
X138568649Y-81888602D01*
X138568984Y-81946186D01*
X138570700Y-82245938D01*
X138571644Y-82499482D01*
X138571277Y-82711410D01*
X138569060Y-82886312D01*
X138564453Y-83028781D01*
X138556916Y-83143407D01*
X138545911Y-83234783D01*
X138530898Y-83307499D01*
X138511338Y-83366147D01*
X138486692Y-83415319D01*
X138456420Y-83459605D01*
X138419983Y-83503598D01*
X138380907Y-83547364D01*
X138281573Y-83639949D01*
X138166920Y-83720592D01*
X138122347Y-83744970D01*
X138066877Y-83771071D01*
X138016573Y-83790078D01*
X137961765Y-83803321D01*
X137892787Y-83812130D01*
X137799969Y-83817833D01*
X137673645Y-83821760D01*
X137544104Y-83824475D01*
X137110708Y-83832851D01*
X136248172Y-82617975D01*
X136058449Y-82351115D01*
X135895677Y-82123256D01*
X135757671Y-81931784D01*
X135642247Y-81774085D01*
X135547220Y-81647546D01*
X135470403Y-81549554D01*
X135409614Y-81477496D01*
X135362665Y-81428757D01*
X135327373Y-81400726D01*
X135301553Y-81390787D01*
X135283018Y-81396329D01*
X135269585Y-81414737D01*
X135260959Y-81437234D01*
X135265364Y-81469062D01*
X135282886Y-81544319D01*
X135312017Y-81657786D01*
X135351246Y-81804244D01*
X135399063Y-81978474D01*
X135453958Y-82175257D01*
X135514422Y-82389373D01*
X135578944Y-82615604D01*
X135646015Y-82848730D01*
X135714124Y-83083532D01*
X135781762Y-83314791D01*
X135847418Y-83537288D01*
X135909584Y-83745804D01*
X135966748Y-83935119D01*
X136017401Y-84100014D01*
X136060033Y-84235271D01*
X136093134Y-84335671D01*
X136115195Y-84395993D01*
X136120045Y-84406705D01*
X136187961Y-84500958D01*
X136289598Y-84597334D01*
X136409979Y-84683486D01*
X136531763Y-84746120D01*
X136569488Y-84760994D01*
X136605278Y-84773209D01*
X136644338Y-84783027D01*
X136691872Y-84790710D01*
X136753085Y-84796520D01*
X136833181Y-84800719D01*
X136937365Y-84803567D01*
X137070840Y-84805328D01*
X137238813Y-84806262D01*
X137446486Y-84806632D01*
X137699066Y-84806699D01*
X137736200Y-84806700D01*
X138790300Y-84806700D01*
X138962161Y-84725556D01*
X139129110Y-84626439D01*
X139287808Y-84495169D01*
X139423538Y-84345505D01*
X139510402Y-84213082D01*
X139539738Y-84157722D01*
X139565151Y-84106822D01*
X139586922Y-84056457D01*
X139605331Y-84002700D01*
X139620662Y-83941626D01*
X139633195Y-83869308D01*
X139643213Y-83781820D01*
X139650997Y-83675237D01*
X139656829Y-83545633D01*
X139660991Y-83389081D01*
X139663763Y-83201656D01*
X139665429Y-82979432D01*
X139666269Y-82718482D01*
X139666566Y-82414881D01*
X139666601Y-82064703D01*
X139666601Y-82036230D01*
X139666216Y-81688651D01*
X139665087Y-81369070D01*
X139663256Y-81080427D01*
X139660762Y-80825661D01*
X139657645Y-80607712D01*
X139653946Y-80429520D01*
X139649705Y-80294025D01*
X139644961Y-80204165D01*
X139641066Y-80168316D01*
X139576007Y-79952722D01*
X139467703Y-79751681D01*
X139323004Y-79572284D01*
X139148759Y-79421624D01*
X138951819Y-79306790D01*
X138739500Y-79234978D01*
X138662561Y-79220888D01*
X138543644Y-79202756D01*
X138391314Y-79181636D01*
X138214136Y-79158584D01*
X138020677Y-79134656D01*
X137819500Y-79110905D01*
X137619173Y-79088388D01*
X137428259Y-79068160D01*
X137255325Y-79051276D01*
X137228200Y-79048802D01*
X137073621Y-79038045D01*
X136876380Y-79029312D01*
X136644036Y-79022570D01*
X136384143Y-79017787D01*
X136104257Y-79014933D01*
X135811936Y-79013975D01*
X135514733Y-79014883D01*
M02*
