G04 #@! TF.GenerationSoftware,KiCad,Pcbnew,(5.1.5)-3*
G04 #@! TF.CreationDate,2020-06-04T11:53:39+03:00*
G04 #@! TF.ProjectId,kelvin,6b656c76-696e-42e6-9b69-6361645f7063,rev?*
G04 #@! TF.SameCoordinates,Original*
G04 #@! TF.FileFunction,Profile,NP*
%FSLAX46Y46*%
G04 Gerber Fmt 4.6, Leading zero omitted, Abs format (unit mm)*
G04 Created by KiCad (PCBNEW (5.1.5)-3) date 2020-06-04 11:53:39*
%MOMM*%
%LPD*%
G04 APERTURE LIST*
%ADD10C,0.050000*%
G04 APERTURE END LIST*
D10*
X140700000Y-94500000D02*
X140700000Y-96000000D01*
X134100000Y-94500000D02*
X140700000Y-94500000D01*
X134100000Y-96000000D02*
X134100000Y-94500000D01*
X119900000Y-94500000D02*
X119900000Y-96000000D01*
X115300000Y-94500000D02*
X119900000Y-94500000D01*
X101100000Y-94500000D02*
X92000000Y-94500000D01*
X92000000Y-77000000D02*
X92000000Y-94500000D01*
X101100000Y-77000000D02*
X92000000Y-77000000D01*
X162000000Y-94500000D02*
X162000000Y-77000000D01*
X161000000Y-94500000D02*
X162000000Y-94500000D01*
X152900000Y-94500000D02*
X161000000Y-94500000D01*
X152900000Y-77000000D02*
X162000000Y-77000000D01*
X119900000Y-96000000D02*
X119900000Y-96000000D01*
X115300000Y-96000000D02*
X115300000Y-94500000D01*
X101100000Y-77000000D02*
X152900000Y-77000000D01*
X150900000Y-110000000D02*
X142700000Y-110000000D01*
X140700000Y-108000000D02*
X140700000Y-96000000D01*
X152900000Y-94500000D02*
X152900000Y-108000000D01*
X152900000Y-108000000D02*
G75*
G02X150900000Y-110000000I-2000000J0D01*
G01*
X142700000Y-110000000D02*
G75*
G02X140700000Y-108000000I0J2000000D01*
G01*
X121900000Y-110000000D02*
G75*
G02X119900000Y-108000000I0J2000000D01*
G01*
X119900000Y-108000000D02*
X119900000Y-96000000D01*
X134100000Y-108000000D02*
G75*
G02X132100000Y-110000000I-2000000J0D01*
G01*
X134100000Y-108000000D02*
X134100000Y-96000000D01*
X121900000Y-110000000D02*
X132100000Y-110000000D01*
X115300000Y-108000000D02*
X115300000Y-96000000D01*
X103100000Y-110000000D02*
X113300000Y-110000000D01*
X101100000Y-108000000D02*
X101100000Y-94500000D01*
X115300000Y-108000000D02*
G75*
G02X113300000Y-110000000I-2000000J0D01*
G01*
X103100000Y-110000000D02*
G75*
G02X101100000Y-108000000I0J2000000D01*
G01*
M02*
