G04 #@! TF.GenerationSoftware,KiCad,Pcbnew,(5.1.5)-3*
G04 #@! TF.CreationDate,2020-06-04T11:53:39+03:00*
G04 #@! TF.ProjectId,kelvin,6b656c76-696e-42e6-9b69-6361645f7063,rev?*
G04 #@! TF.SameCoordinates,Original*
G04 #@! TF.FileFunction,Soldermask,Bot*
G04 #@! TF.FilePolarity,Negative*
%FSLAX46Y46*%
G04 Gerber Fmt 4.6, Leading zero omitted, Abs format (unit mm)*
G04 Created by KiCad (PCBNEW (5.1.5)-3) date 2020-06-04 11:53:39*
%MOMM*%
%LPD*%
G04 APERTURE LIST*
%ADD10C,0.100000*%
G04 APERTURE END LIST*
D10*
G36*
X115500000Y-110000000D02*
G01*
X101000000Y-110000000D01*
X101000000Y-95800000D01*
X115500000Y-95800000D01*
X115500000Y-110000000D01*
G37*
X115500000Y-110000000D02*
X101000000Y-110000000D01*
X101000000Y-95800000D01*
X115500000Y-95800000D01*
X115500000Y-110000000D01*
G36*
X134000000Y-110000000D02*
G01*
X120000000Y-110000000D01*
X120000000Y-95800000D01*
X134000000Y-95800000D01*
X134000000Y-110000000D01*
G37*
X134000000Y-110000000D02*
X120000000Y-110000000D01*
X120000000Y-95800000D01*
X134000000Y-95800000D01*
X134000000Y-110000000D01*
G36*
X153000000Y-110000000D02*
G01*
X140500000Y-110000000D01*
X140500000Y-95800000D01*
X153000000Y-95800000D01*
X153000000Y-110000000D01*
G37*
X153000000Y-110000000D02*
X140500000Y-110000000D01*
X140500000Y-95800000D01*
X153000000Y-95800000D01*
X153000000Y-110000000D01*
G36*
X142102383Y-92662489D02*
G01*
X142102386Y-92662490D01*
X142102385Y-92662490D01*
X142166258Y-92688946D01*
X142223748Y-92727360D01*
X142272640Y-92776252D01*
X142311054Y-92833742D01*
X142332624Y-92885818D01*
X142337511Y-92897617D01*
X142351000Y-92965430D01*
X142351000Y-93034570D01*
X142337511Y-93102383D01*
X142337510Y-93102385D01*
X142311054Y-93166258D01*
X142272640Y-93223748D01*
X142223748Y-93272640D01*
X142166258Y-93311054D01*
X142114182Y-93332624D01*
X142102383Y-93337511D01*
X142034570Y-93351000D01*
X141965430Y-93351000D01*
X141897617Y-93337511D01*
X141885818Y-93332624D01*
X141833742Y-93311054D01*
X141776252Y-93272640D01*
X141727360Y-93223748D01*
X141688946Y-93166258D01*
X141662490Y-93102385D01*
X141662489Y-93102383D01*
X141649000Y-93034570D01*
X141649000Y-92965430D01*
X141662489Y-92897617D01*
X141667376Y-92885818D01*
X141688946Y-92833742D01*
X141727360Y-92776252D01*
X141776252Y-92727360D01*
X141833742Y-92688946D01*
X141897615Y-92662490D01*
X141897614Y-92662490D01*
X141897617Y-92662489D01*
X141965430Y-92649000D01*
X142034570Y-92649000D01*
X142102383Y-92662489D01*
G37*
G36*
X151602383Y-92662489D02*
G01*
X151602386Y-92662490D01*
X151602385Y-92662490D01*
X151666258Y-92688946D01*
X151723748Y-92727360D01*
X151772640Y-92776252D01*
X151811054Y-92833742D01*
X151832624Y-92885818D01*
X151837511Y-92897617D01*
X151851000Y-92965430D01*
X151851000Y-93034570D01*
X151837511Y-93102383D01*
X151837510Y-93102385D01*
X151811054Y-93166258D01*
X151772640Y-93223748D01*
X151723748Y-93272640D01*
X151666258Y-93311054D01*
X151614182Y-93332624D01*
X151602383Y-93337511D01*
X151534570Y-93351000D01*
X151465430Y-93351000D01*
X151397617Y-93337511D01*
X151385818Y-93332624D01*
X151333742Y-93311054D01*
X151276252Y-93272640D01*
X151227360Y-93223748D01*
X151188946Y-93166258D01*
X151162490Y-93102385D01*
X151162489Y-93102383D01*
X151149000Y-93034570D01*
X151149000Y-92965430D01*
X151162489Y-92897617D01*
X151167376Y-92885818D01*
X151188946Y-92833742D01*
X151227360Y-92776252D01*
X151276252Y-92727360D01*
X151333742Y-92688946D01*
X151397615Y-92662490D01*
X151397614Y-92662490D01*
X151397617Y-92662489D01*
X151465430Y-92649000D01*
X151534570Y-92649000D01*
X151602383Y-92662489D01*
G37*
G36*
X147102383Y-92662489D02*
G01*
X147102386Y-92662490D01*
X147102385Y-92662490D01*
X147166258Y-92688946D01*
X147223748Y-92727360D01*
X147272640Y-92776252D01*
X147311054Y-92833742D01*
X147332624Y-92885818D01*
X147337511Y-92897617D01*
X147351000Y-92965430D01*
X147351000Y-93034570D01*
X147337511Y-93102383D01*
X147337510Y-93102385D01*
X147311054Y-93166258D01*
X147272640Y-93223748D01*
X147223748Y-93272640D01*
X147166258Y-93311054D01*
X147114182Y-93332624D01*
X147102383Y-93337511D01*
X147034570Y-93351000D01*
X146965430Y-93351000D01*
X146897617Y-93337511D01*
X146885818Y-93332624D01*
X146833742Y-93311054D01*
X146776252Y-93272640D01*
X146727360Y-93223748D01*
X146688946Y-93166258D01*
X146662490Y-93102385D01*
X146662489Y-93102383D01*
X146649000Y-93034570D01*
X146649000Y-92965430D01*
X146662489Y-92897617D01*
X146667376Y-92885818D01*
X146688946Y-92833742D01*
X146727360Y-92776252D01*
X146776252Y-92727360D01*
X146833742Y-92688946D01*
X146897615Y-92662490D01*
X146897614Y-92662490D01*
X146897617Y-92662489D01*
X146965430Y-92649000D01*
X147034570Y-92649000D01*
X147102383Y-92662489D01*
G37*
G36*
X158787852Y-87902797D02*
G01*
X159279402Y-88106404D01*
X159279403Y-88106405D01*
X159721787Y-88401996D01*
X160098004Y-88778213D01*
X160137544Y-88837389D01*
X160393596Y-89220598D01*
X160597203Y-89712148D01*
X160701000Y-90233973D01*
X160701000Y-90766027D01*
X160597203Y-91287852D01*
X160393596Y-91779402D01*
X160393595Y-91779403D01*
X160098004Y-92221787D01*
X159721787Y-92598004D01*
X159426195Y-92795512D01*
X159279402Y-92893596D01*
X158787852Y-93097203D01*
X158266027Y-93201000D01*
X157733973Y-93201000D01*
X157212148Y-93097203D01*
X156720598Y-92893596D01*
X156573805Y-92795512D01*
X156278213Y-92598004D01*
X155901996Y-92221787D01*
X155606405Y-91779403D01*
X155606404Y-91779402D01*
X155402797Y-91287852D01*
X155299000Y-90766027D01*
X155299000Y-90233973D01*
X155402797Y-89712148D01*
X155606404Y-89220598D01*
X155862456Y-88837389D01*
X155901996Y-88778213D01*
X156278213Y-88401996D01*
X156720597Y-88106405D01*
X156720598Y-88106404D01*
X157212148Y-87902797D01*
X157733973Y-87799000D01*
X158266027Y-87799000D01*
X158787852Y-87902797D01*
G37*
G36*
X120602383Y-90662489D02*
G01*
X120602386Y-90662490D01*
X120602385Y-90662490D01*
X120666258Y-90688946D01*
X120723748Y-90727360D01*
X120772640Y-90776252D01*
X120811054Y-90833742D01*
X120832624Y-90885818D01*
X120837511Y-90897617D01*
X120851000Y-90965430D01*
X120851000Y-91034570D01*
X120837511Y-91102383D01*
X120837510Y-91102385D01*
X120811054Y-91166258D01*
X120772640Y-91223748D01*
X120723748Y-91272640D01*
X120666258Y-91311054D01*
X120614182Y-91332624D01*
X120602383Y-91337511D01*
X120534570Y-91351000D01*
X120465430Y-91351000D01*
X120397617Y-91337511D01*
X120385818Y-91332624D01*
X120333742Y-91311054D01*
X120276252Y-91272640D01*
X120227360Y-91223748D01*
X120188946Y-91166258D01*
X120162490Y-91102385D01*
X120162489Y-91102383D01*
X120149000Y-91034570D01*
X120149000Y-90965430D01*
X120162489Y-90897617D01*
X120167376Y-90885818D01*
X120188946Y-90833742D01*
X120227360Y-90776252D01*
X120276252Y-90727360D01*
X120333742Y-90688946D01*
X120397615Y-90662490D01*
X120397614Y-90662490D01*
X120397617Y-90662489D01*
X120465430Y-90649000D01*
X120534570Y-90649000D01*
X120602383Y-90662489D01*
G37*
G36*
X124102383Y-90662489D02*
G01*
X124102386Y-90662490D01*
X124102385Y-90662490D01*
X124166258Y-90688946D01*
X124223748Y-90727360D01*
X124272640Y-90776252D01*
X124311054Y-90833742D01*
X124332624Y-90885818D01*
X124337511Y-90897617D01*
X124351000Y-90965430D01*
X124351000Y-91034570D01*
X124337511Y-91102383D01*
X124337510Y-91102385D01*
X124311054Y-91166258D01*
X124272640Y-91223748D01*
X124223748Y-91272640D01*
X124166258Y-91311054D01*
X124114182Y-91332624D01*
X124102383Y-91337511D01*
X124034570Y-91351000D01*
X123965430Y-91351000D01*
X123897617Y-91337511D01*
X123885818Y-91332624D01*
X123833742Y-91311054D01*
X123776252Y-91272640D01*
X123727360Y-91223748D01*
X123688946Y-91166258D01*
X123662490Y-91102385D01*
X123662489Y-91102383D01*
X123649000Y-91034570D01*
X123649000Y-90965430D01*
X123662489Y-90897617D01*
X123667376Y-90885818D01*
X123688946Y-90833742D01*
X123727360Y-90776252D01*
X123776252Y-90727360D01*
X123833742Y-90688946D01*
X123897615Y-90662490D01*
X123897614Y-90662490D01*
X123897617Y-90662489D01*
X123965430Y-90649000D01*
X124034570Y-90649000D01*
X124102383Y-90662489D01*
G37*
G36*
X130602383Y-90662489D02*
G01*
X130602386Y-90662490D01*
X130602385Y-90662490D01*
X130666258Y-90688946D01*
X130723748Y-90727360D01*
X130772640Y-90776252D01*
X130811054Y-90833742D01*
X130832624Y-90885818D01*
X130837511Y-90897617D01*
X130851000Y-90965430D01*
X130851000Y-91034570D01*
X130837511Y-91102383D01*
X130837510Y-91102385D01*
X130811054Y-91166258D01*
X130772640Y-91223748D01*
X130723748Y-91272640D01*
X130666258Y-91311054D01*
X130614182Y-91332624D01*
X130602383Y-91337511D01*
X130534570Y-91351000D01*
X130465430Y-91351000D01*
X130397617Y-91337511D01*
X130385818Y-91332624D01*
X130333742Y-91311054D01*
X130276252Y-91272640D01*
X130227360Y-91223748D01*
X130188946Y-91166258D01*
X130162490Y-91102385D01*
X130162489Y-91102383D01*
X130149000Y-91034570D01*
X130149000Y-90965430D01*
X130162489Y-90897617D01*
X130167376Y-90885818D01*
X130188946Y-90833742D01*
X130227360Y-90776252D01*
X130276252Y-90727360D01*
X130333742Y-90688946D01*
X130397615Y-90662490D01*
X130397614Y-90662490D01*
X130397617Y-90662489D01*
X130465430Y-90649000D01*
X130534570Y-90649000D01*
X130602383Y-90662489D01*
G37*
G36*
X139602383Y-90662489D02*
G01*
X139602386Y-90662490D01*
X139602385Y-90662490D01*
X139666258Y-90688946D01*
X139723748Y-90727360D01*
X139772640Y-90776252D01*
X139811054Y-90833742D01*
X139832624Y-90885818D01*
X139837511Y-90897617D01*
X139851000Y-90965430D01*
X139851000Y-91034570D01*
X139837511Y-91102383D01*
X139837510Y-91102385D01*
X139811054Y-91166258D01*
X139772640Y-91223748D01*
X139723748Y-91272640D01*
X139666258Y-91311054D01*
X139614182Y-91332624D01*
X139602383Y-91337511D01*
X139534570Y-91351000D01*
X139465430Y-91351000D01*
X139397617Y-91337511D01*
X139385818Y-91332624D01*
X139333742Y-91311054D01*
X139276252Y-91272640D01*
X139227360Y-91223748D01*
X139188946Y-91166258D01*
X139162490Y-91102385D01*
X139162489Y-91102383D01*
X139149000Y-91034570D01*
X139149000Y-90965430D01*
X139162489Y-90897617D01*
X139167376Y-90885818D01*
X139188946Y-90833742D01*
X139227360Y-90776252D01*
X139276252Y-90727360D01*
X139333742Y-90688946D01*
X139397615Y-90662490D01*
X139397614Y-90662490D01*
X139397617Y-90662489D01*
X139465430Y-90649000D01*
X139534570Y-90649000D01*
X139602383Y-90662489D01*
G37*
G36*
X107602383Y-90662489D02*
G01*
X107602386Y-90662490D01*
X107602385Y-90662490D01*
X107666258Y-90688946D01*
X107723748Y-90727360D01*
X107772640Y-90776252D01*
X107811054Y-90833742D01*
X107832624Y-90885818D01*
X107837511Y-90897617D01*
X107851000Y-90965430D01*
X107851000Y-91034570D01*
X107837511Y-91102383D01*
X107837510Y-91102385D01*
X107811054Y-91166258D01*
X107772640Y-91223748D01*
X107723748Y-91272640D01*
X107666258Y-91311054D01*
X107614182Y-91332624D01*
X107602383Y-91337511D01*
X107534570Y-91351000D01*
X107465430Y-91351000D01*
X107397617Y-91337511D01*
X107385818Y-91332624D01*
X107333742Y-91311054D01*
X107276252Y-91272640D01*
X107227360Y-91223748D01*
X107188946Y-91166258D01*
X107162490Y-91102385D01*
X107162489Y-91102383D01*
X107149000Y-91034570D01*
X107149000Y-90965430D01*
X107162489Y-90897617D01*
X107167376Y-90885818D01*
X107188946Y-90833742D01*
X107227360Y-90776252D01*
X107276252Y-90727360D01*
X107333742Y-90688946D01*
X107397615Y-90662490D01*
X107397614Y-90662490D01*
X107397617Y-90662489D01*
X107465430Y-90649000D01*
X107534570Y-90649000D01*
X107602383Y-90662489D01*
G37*
G36*
X104602383Y-90662489D02*
G01*
X104602386Y-90662490D01*
X104602385Y-90662490D01*
X104666258Y-90688946D01*
X104723748Y-90727360D01*
X104772640Y-90776252D01*
X104811054Y-90833742D01*
X104832624Y-90885818D01*
X104837511Y-90897617D01*
X104851000Y-90965430D01*
X104851000Y-91034570D01*
X104837511Y-91102383D01*
X104837510Y-91102385D01*
X104811054Y-91166258D01*
X104772640Y-91223748D01*
X104723748Y-91272640D01*
X104666258Y-91311054D01*
X104614182Y-91332624D01*
X104602383Y-91337511D01*
X104534570Y-91351000D01*
X104465430Y-91351000D01*
X104397617Y-91337511D01*
X104385818Y-91332624D01*
X104333742Y-91311054D01*
X104276252Y-91272640D01*
X104227360Y-91223748D01*
X104188946Y-91166258D01*
X104162490Y-91102385D01*
X104162489Y-91102383D01*
X104149000Y-91034570D01*
X104149000Y-90965430D01*
X104162489Y-90897617D01*
X104167376Y-90885818D01*
X104188946Y-90833742D01*
X104227360Y-90776252D01*
X104276252Y-90727360D01*
X104333742Y-90688946D01*
X104397615Y-90662490D01*
X104397614Y-90662490D01*
X104397617Y-90662489D01*
X104465430Y-90649000D01*
X104534570Y-90649000D01*
X104602383Y-90662489D01*
G37*
G36*
X102602383Y-90662489D02*
G01*
X102602386Y-90662490D01*
X102602385Y-90662490D01*
X102666258Y-90688946D01*
X102723748Y-90727360D01*
X102772640Y-90776252D01*
X102811054Y-90833742D01*
X102832624Y-90885818D01*
X102837511Y-90897617D01*
X102851000Y-90965430D01*
X102851000Y-91034570D01*
X102837511Y-91102383D01*
X102837510Y-91102385D01*
X102811054Y-91166258D01*
X102772640Y-91223748D01*
X102723748Y-91272640D01*
X102666258Y-91311054D01*
X102614182Y-91332624D01*
X102602383Y-91337511D01*
X102534570Y-91351000D01*
X102465430Y-91351000D01*
X102397617Y-91337511D01*
X102385818Y-91332624D01*
X102333742Y-91311054D01*
X102276252Y-91272640D01*
X102227360Y-91223748D01*
X102188946Y-91166258D01*
X102162490Y-91102385D01*
X102162489Y-91102383D01*
X102149000Y-91034570D01*
X102149000Y-90965430D01*
X102162489Y-90897617D01*
X102167376Y-90885818D01*
X102188946Y-90833742D01*
X102227360Y-90776252D01*
X102276252Y-90727360D01*
X102333742Y-90688946D01*
X102397615Y-90662490D01*
X102397614Y-90662490D01*
X102397617Y-90662489D01*
X102465430Y-90649000D01*
X102534570Y-90649000D01*
X102602383Y-90662489D01*
G37*
G36*
X113602383Y-90662489D02*
G01*
X113602386Y-90662490D01*
X113602385Y-90662490D01*
X113666258Y-90688946D01*
X113723748Y-90727360D01*
X113772640Y-90776252D01*
X113811054Y-90833742D01*
X113832624Y-90885818D01*
X113837511Y-90897617D01*
X113851000Y-90965430D01*
X113851000Y-91034570D01*
X113837511Y-91102383D01*
X113837510Y-91102385D01*
X113811054Y-91166258D01*
X113772640Y-91223748D01*
X113723748Y-91272640D01*
X113666258Y-91311054D01*
X113614182Y-91332624D01*
X113602383Y-91337511D01*
X113534570Y-91351000D01*
X113465430Y-91351000D01*
X113397617Y-91337511D01*
X113385818Y-91332624D01*
X113333742Y-91311054D01*
X113276252Y-91272640D01*
X113227360Y-91223748D01*
X113188946Y-91166258D01*
X113162490Y-91102385D01*
X113162489Y-91102383D01*
X113149000Y-91034570D01*
X113149000Y-90965430D01*
X113162489Y-90897617D01*
X113167376Y-90885818D01*
X113188946Y-90833742D01*
X113227360Y-90776252D01*
X113276252Y-90727360D01*
X113333742Y-90688946D01*
X113397615Y-90662490D01*
X113397614Y-90662490D01*
X113397617Y-90662489D01*
X113465430Y-90649000D01*
X113534570Y-90649000D01*
X113602383Y-90662489D01*
G37*
G36*
X146375256Y-87391298D02*
G01*
X146481579Y-87412447D01*
X146782042Y-87536903D01*
X147052451Y-87717585D01*
X147282415Y-87947549D01*
X147388559Y-88106405D01*
X147463098Y-88217960D01*
X147587553Y-88518422D01*
X147651000Y-88837389D01*
X147651000Y-89162611D01*
X147587553Y-89481578D01*
X147492049Y-89712147D01*
X147463097Y-89782042D01*
X147282415Y-90052451D01*
X147052451Y-90282415D01*
X146782042Y-90463097D01*
X146481579Y-90587553D01*
X146375256Y-90608702D01*
X146162611Y-90651000D01*
X145837389Y-90651000D01*
X145624744Y-90608702D01*
X145518421Y-90587553D01*
X145217958Y-90463097D01*
X144947549Y-90282415D01*
X144717585Y-90052451D01*
X144536903Y-89782042D01*
X144507952Y-89712147D01*
X144412447Y-89481578D01*
X144349000Y-89162611D01*
X144349000Y-88837389D01*
X144412447Y-88518422D01*
X144536902Y-88217960D01*
X144611441Y-88106405D01*
X144717585Y-87947549D01*
X144947549Y-87717585D01*
X145217958Y-87536903D01*
X145518421Y-87412447D01*
X145624744Y-87391298D01*
X145837389Y-87349000D01*
X146162611Y-87349000D01*
X146375256Y-87391298D01*
G37*
G36*
X127214794Y-85920155D02*
G01*
X127321150Y-85941311D01*
X127521520Y-86024307D01*
X127701844Y-86144795D01*
X127855205Y-86298156D01*
X127975693Y-86478480D01*
X128058689Y-86678851D01*
X128101000Y-86891560D01*
X128101000Y-87108440D01*
X128058689Y-87321149D01*
X127975693Y-87521520D01*
X127855205Y-87701844D01*
X127701844Y-87855205D01*
X127521520Y-87975693D01*
X127321150Y-88058689D01*
X127214795Y-88079844D01*
X127108440Y-88101000D01*
X126891560Y-88101000D01*
X126785205Y-88079844D01*
X126678850Y-88058689D01*
X126478480Y-87975693D01*
X126298156Y-87855205D01*
X126144795Y-87701844D01*
X126024307Y-87521520D01*
X125941311Y-87321149D01*
X125899000Y-87108440D01*
X125899000Y-86891560D01*
X125941311Y-86678851D01*
X126024307Y-86478480D01*
X126144795Y-86298156D01*
X126298156Y-86144795D01*
X126478480Y-86024307D01*
X126678850Y-85941311D01*
X126785205Y-85920156D01*
X126891560Y-85899000D01*
X127108440Y-85899000D01*
X127214794Y-85920155D01*
G37*
G36*
X151602383Y-84662489D02*
G01*
X151602386Y-84662490D01*
X151602385Y-84662490D01*
X151666258Y-84688946D01*
X151723748Y-84727360D01*
X151772640Y-84776252D01*
X151811054Y-84833742D01*
X151832624Y-84885818D01*
X151837511Y-84897617D01*
X151851000Y-84965430D01*
X151851000Y-85034570D01*
X151837511Y-85102383D01*
X151837510Y-85102385D01*
X151811054Y-85166258D01*
X151772640Y-85223748D01*
X151723748Y-85272640D01*
X151666258Y-85311054D01*
X151614182Y-85332624D01*
X151602383Y-85337511D01*
X151534570Y-85351000D01*
X151465430Y-85351000D01*
X151397617Y-85337511D01*
X151385818Y-85332624D01*
X151333742Y-85311054D01*
X151276252Y-85272640D01*
X151227360Y-85223748D01*
X151188946Y-85166258D01*
X151162490Y-85102385D01*
X151162489Y-85102383D01*
X151149000Y-85034570D01*
X151149000Y-84965430D01*
X151162489Y-84897617D01*
X151167376Y-84885818D01*
X151188946Y-84833742D01*
X151227360Y-84776252D01*
X151276252Y-84727360D01*
X151333742Y-84688946D01*
X151397615Y-84662490D01*
X151397614Y-84662490D01*
X151397617Y-84662489D01*
X151465430Y-84649000D01*
X151534570Y-84649000D01*
X151602383Y-84662489D01*
G37*
G36*
X102602383Y-83662489D02*
G01*
X102602386Y-83662490D01*
X102602385Y-83662490D01*
X102666258Y-83688946D01*
X102723748Y-83727360D01*
X102772640Y-83776252D01*
X102811054Y-83833742D01*
X102832624Y-83885818D01*
X102837511Y-83897617D01*
X102851000Y-83965430D01*
X102851000Y-84034570D01*
X102837511Y-84102383D01*
X102837510Y-84102385D01*
X102811054Y-84166258D01*
X102772640Y-84223748D01*
X102723748Y-84272640D01*
X102666258Y-84311054D01*
X102614182Y-84332624D01*
X102602383Y-84337511D01*
X102534570Y-84351000D01*
X102465430Y-84351000D01*
X102397617Y-84337511D01*
X102385818Y-84332624D01*
X102333742Y-84311054D01*
X102276252Y-84272640D01*
X102227360Y-84223748D01*
X102188946Y-84166258D01*
X102162490Y-84102385D01*
X102162489Y-84102383D01*
X102149000Y-84034570D01*
X102149000Y-83965430D01*
X102162489Y-83897617D01*
X102167376Y-83885818D01*
X102188946Y-83833742D01*
X102227360Y-83776252D01*
X102276252Y-83727360D01*
X102333742Y-83688946D01*
X102397615Y-83662490D01*
X102397614Y-83662490D01*
X102397617Y-83662489D01*
X102465430Y-83649000D01*
X102534570Y-83649000D01*
X102602383Y-83662489D01*
G37*
G36*
X96787852Y-78402797D02*
G01*
X97279402Y-78606404D01*
X97279403Y-78606405D01*
X97721787Y-78901996D01*
X98098004Y-79278213D01*
X98258506Y-79518422D01*
X98393596Y-79720598D01*
X98597203Y-80212148D01*
X98701000Y-80733973D01*
X98701000Y-81266027D01*
X98597203Y-81787852D01*
X98393596Y-82279402D01*
X98393595Y-82279403D01*
X98098004Y-82721787D01*
X97721787Y-83098004D01*
X97426195Y-83295512D01*
X97279402Y-83393596D01*
X96787852Y-83597203D01*
X96266027Y-83701000D01*
X95733973Y-83701000D01*
X95212148Y-83597203D01*
X94720598Y-83393596D01*
X94573805Y-83295512D01*
X94278213Y-83098004D01*
X93901996Y-82721787D01*
X93606405Y-82279403D01*
X93606404Y-82279402D01*
X93402797Y-81787852D01*
X93299000Y-81266027D01*
X93299000Y-80733973D01*
X93402797Y-80212148D01*
X93606404Y-79720598D01*
X93741494Y-79518422D01*
X93901996Y-79278213D01*
X94278213Y-78901996D01*
X94720597Y-78606405D01*
X94720598Y-78606404D01*
X95212148Y-78402797D01*
X95733973Y-78299000D01*
X96266027Y-78299000D01*
X96787852Y-78402797D01*
G37*
G36*
X105160721Y-81470174D02*
G01*
X105260995Y-81511709D01*
X105260996Y-81511710D01*
X105351242Y-81572010D01*
X105427990Y-81648758D01*
X105427991Y-81648760D01*
X105488291Y-81739005D01*
X105529826Y-81839279D01*
X105551000Y-81945730D01*
X105551000Y-82054270D01*
X105529826Y-82160721D01*
X105488291Y-82260995D01*
X105488290Y-82260996D01*
X105427990Y-82351242D01*
X105351242Y-82427990D01*
X105305812Y-82458345D01*
X105260995Y-82488291D01*
X105160721Y-82529826D01*
X105054270Y-82551000D01*
X104945730Y-82551000D01*
X104839279Y-82529826D01*
X104739005Y-82488291D01*
X104694188Y-82458345D01*
X104648758Y-82427990D01*
X104572010Y-82351242D01*
X104511710Y-82260996D01*
X104511709Y-82260995D01*
X104470174Y-82160721D01*
X104449000Y-82054270D01*
X104449000Y-81945730D01*
X104470174Y-81839279D01*
X104511709Y-81739005D01*
X104572009Y-81648760D01*
X104572010Y-81648758D01*
X104648758Y-81572010D01*
X104739004Y-81511710D01*
X104739005Y-81511709D01*
X104839279Y-81470174D01*
X104945730Y-81449000D01*
X105054270Y-81449000D01*
X105160721Y-81470174D01*
G37*
G36*
X121160721Y-81470174D02*
G01*
X121260995Y-81511709D01*
X121260996Y-81511710D01*
X121351242Y-81572010D01*
X121427990Y-81648758D01*
X121427991Y-81648760D01*
X121488291Y-81739005D01*
X121529826Y-81839279D01*
X121551000Y-81945730D01*
X121551000Y-82054270D01*
X121529826Y-82160721D01*
X121488291Y-82260995D01*
X121488290Y-82260996D01*
X121427990Y-82351242D01*
X121351242Y-82427990D01*
X121305812Y-82458345D01*
X121260995Y-82488291D01*
X121160721Y-82529826D01*
X121054270Y-82551000D01*
X120945730Y-82551000D01*
X120839279Y-82529826D01*
X120739005Y-82488291D01*
X120694188Y-82458345D01*
X120648758Y-82427990D01*
X120572010Y-82351242D01*
X120511710Y-82260996D01*
X120511709Y-82260995D01*
X120470174Y-82160721D01*
X120449000Y-82054270D01*
X120449000Y-81945730D01*
X120470174Y-81839279D01*
X120511709Y-81739005D01*
X120572009Y-81648760D01*
X120572010Y-81648758D01*
X120648758Y-81572010D01*
X120739004Y-81511710D01*
X120739005Y-81511709D01*
X120839279Y-81470174D01*
X120945730Y-81449000D01*
X121054270Y-81449000D01*
X121160721Y-81470174D01*
G37*
G36*
X146375256Y-78391298D02*
G01*
X146481579Y-78412447D01*
X146782042Y-78536903D01*
X147052451Y-78717585D01*
X147282415Y-78947549D01*
X147282416Y-78947551D01*
X147463098Y-79217960D01*
X147587553Y-79518422D01*
X147651000Y-79837389D01*
X147651000Y-80162611D01*
X147641146Y-80212148D01*
X147587553Y-80481579D01*
X147463097Y-80782042D01*
X147282415Y-81052451D01*
X147052451Y-81282415D01*
X146782042Y-81463097D01*
X146782041Y-81463098D01*
X146782040Y-81463098D01*
X146694037Y-81499550D01*
X146481579Y-81587553D01*
X146375256Y-81608702D01*
X146162611Y-81651000D01*
X145837389Y-81651000D01*
X145624744Y-81608702D01*
X145518421Y-81587553D01*
X145305963Y-81499550D01*
X145217960Y-81463098D01*
X145217959Y-81463098D01*
X145217958Y-81463097D01*
X144947549Y-81282415D01*
X144717585Y-81052451D01*
X144536903Y-80782042D01*
X144412447Y-80481579D01*
X144358854Y-80212148D01*
X144349000Y-80162611D01*
X144349000Y-79837389D01*
X144412447Y-79518422D01*
X144536902Y-79217960D01*
X144717584Y-78947551D01*
X144717585Y-78947549D01*
X144947549Y-78717585D01*
X145217958Y-78536903D01*
X145518421Y-78412447D01*
X145624744Y-78391298D01*
X145837389Y-78349000D01*
X146162611Y-78349000D01*
X146375256Y-78391298D01*
G37*
G36*
X132102383Y-77662489D02*
G01*
X132102386Y-77662490D01*
X132102385Y-77662490D01*
X132166258Y-77688946D01*
X132223748Y-77727360D01*
X132272640Y-77776252D01*
X132311054Y-77833742D01*
X132332624Y-77885818D01*
X132337511Y-77897617D01*
X132351000Y-77965430D01*
X132351000Y-78034570D01*
X132337511Y-78102383D01*
X132337510Y-78102385D01*
X132311054Y-78166258D01*
X132272640Y-78223748D01*
X132223748Y-78272640D01*
X132166258Y-78311054D01*
X132114182Y-78332624D01*
X132102383Y-78337511D01*
X132034570Y-78351000D01*
X131965430Y-78351000D01*
X131897617Y-78337511D01*
X131885818Y-78332624D01*
X131833742Y-78311054D01*
X131776252Y-78272640D01*
X131727360Y-78223748D01*
X131688946Y-78166258D01*
X131662490Y-78102385D01*
X131662489Y-78102383D01*
X131649000Y-78034570D01*
X131649000Y-77965430D01*
X131662489Y-77897617D01*
X131667376Y-77885818D01*
X131688946Y-77833742D01*
X131727360Y-77776252D01*
X131776252Y-77727360D01*
X131833742Y-77688946D01*
X131897615Y-77662490D01*
X131897614Y-77662490D01*
X131897617Y-77662489D01*
X131965430Y-77649000D01*
X132034570Y-77649000D01*
X132102383Y-77662489D01*
G37*
G36*
X151602383Y-77662489D02*
G01*
X151602386Y-77662490D01*
X151602385Y-77662490D01*
X151666258Y-77688946D01*
X151723748Y-77727360D01*
X151772640Y-77776252D01*
X151811054Y-77833742D01*
X151832624Y-77885818D01*
X151837511Y-77897617D01*
X151851000Y-77965430D01*
X151851000Y-78034570D01*
X151837511Y-78102383D01*
X151837510Y-78102385D01*
X151811054Y-78166258D01*
X151772640Y-78223748D01*
X151723748Y-78272640D01*
X151666258Y-78311054D01*
X151614182Y-78332624D01*
X151602383Y-78337511D01*
X151534570Y-78351000D01*
X151465430Y-78351000D01*
X151397617Y-78337511D01*
X151385818Y-78332624D01*
X151333742Y-78311054D01*
X151276252Y-78272640D01*
X151227360Y-78223748D01*
X151188946Y-78166258D01*
X151162490Y-78102385D01*
X151162489Y-78102383D01*
X151149000Y-78034570D01*
X151149000Y-77965430D01*
X151162489Y-77897617D01*
X151167376Y-77885818D01*
X151188946Y-77833742D01*
X151227360Y-77776252D01*
X151276252Y-77727360D01*
X151333742Y-77688946D01*
X151397615Y-77662490D01*
X151397614Y-77662490D01*
X151397617Y-77662489D01*
X151465430Y-77649000D01*
X151534570Y-77649000D01*
X151602383Y-77662489D01*
G37*
G36*
X117602383Y-77662489D02*
G01*
X117602386Y-77662490D01*
X117602385Y-77662490D01*
X117666258Y-77688946D01*
X117723748Y-77727360D01*
X117772640Y-77776252D01*
X117811054Y-77833742D01*
X117832624Y-77885818D01*
X117837511Y-77897617D01*
X117851000Y-77965430D01*
X117851000Y-78034570D01*
X117837511Y-78102383D01*
X117837510Y-78102385D01*
X117811054Y-78166258D01*
X117772640Y-78223748D01*
X117723748Y-78272640D01*
X117666258Y-78311054D01*
X117614182Y-78332624D01*
X117602383Y-78337511D01*
X117534570Y-78351000D01*
X117465430Y-78351000D01*
X117397617Y-78337511D01*
X117385818Y-78332624D01*
X117333742Y-78311054D01*
X117276252Y-78272640D01*
X117227360Y-78223748D01*
X117188946Y-78166258D01*
X117162490Y-78102385D01*
X117162489Y-78102383D01*
X117149000Y-78034570D01*
X117149000Y-77965430D01*
X117162489Y-77897617D01*
X117167376Y-77885818D01*
X117188946Y-77833742D01*
X117227360Y-77776252D01*
X117276252Y-77727360D01*
X117333742Y-77688946D01*
X117397615Y-77662490D01*
X117397614Y-77662490D01*
X117397617Y-77662489D01*
X117465430Y-77649000D01*
X117534570Y-77649000D01*
X117602383Y-77662489D01*
G37*
G36*
X102602383Y-77662489D02*
G01*
X102602386Y-77662490D01*
X102602385Y-77662490D01*
X102666258Y-77688946D01*
X102723748Y-77727360D01*
X102772640Y-77776252D01*
X102811054Y-77833742D01*
X102832624Y-77885818D01*
X102837511Y-77897617D01*
X102851000Y-77965430D01*
X102851000Y-78034570D01*
X102837511Y-78102383D01*
X102837510Y-78102385D01*
X102811054Y-78166258D01*
X102772640Y-78223748D01*
X102723748Y-78272640D01*
X102666258Y-78311054D01*
X102614182Y-78332624D01*
X102602383Y-78337511D01*
X102534570Y-78351000D01*
X102465430Y-78351000D01*
X102397617Y-78337511D01*
X102385818Y-78332624D01*
X102333742Y-78311054D01*
X102276252Y-78272640D01*
X102227360Y-78223748D01*
X102188946Y-78166258D01*
X102162490Y-78102385D01*
X102162489Y-78102383D01*
X102149000Y-78034570D01*
X102149000Y-77965430D01*
X102162489Y-77897617D01*
X102167376Y-77885818D01*
X102188946Y-77833742D01*
X102227360Y-77776252D01*
X102276252Y-77727360D01*
X102333742Y-77688946D01*
X102397615Y-77662490D01*
X102397614Y-77662490D01*
X102397617Y-77662489D01*
X102465430Y-77649000D01*
X102534570Y-77649000D01*
X102602383Y-77662489D01*
G37*
M02*
