G04 #@! TF.GenerationSoftware,KiCad,Pcbnew,(5.1.5)-3*
G04 #@! TF.CreationDate,2020-06-04T11:53:39+03:00*
G04 #@! TF.ProjectId,kelvin,6b656c76-696e-42e6-9b69-6361645f7063,rev?*
G04 #@! TF.SameCoordinates,Original*
G04 #@! TF.FileFunction,Legend,Top*
G04 #@! TF.FilePolarity,Positive*
%FSLAX46Y46*%
G04 Gerber Fmt 4.6, Leading zero omitted, Abs format (unit mm)*
G04 Created by KiCad (PCBNEW (5.1.5)-3) date 2020-06-04 11:53:39*
%MOMM*%
%LPD*%
G04 APERTURE LIST*
%ADD10C,0.150000*%
%ADD11C,0.120000*%
G04 APERTURE END LIST*
D10*
X145709523Y-93000000D02*
X145614285Y-92952380D01*
X145471428Y-92952380D01*
X145328571Y-93000000D01*
X145233333Y-93095238D01*
X145185714Y-93190476D01*
X145138095Y-93380952D01*
X145138095Y-93523809D01*
X145185714Y-93714285D01*
X145233333Y-93809523D01*
X145328571Y-93904761D01*
X145471428Y-93952380D01*
X145566666Y-93952380D01*
X145709523Y-93904761D01*
X145757142Y-93857142D01*
X145757142Y-93523809D01*
X145566666Y-93523809D01*
X146185714Y-92952380D02*
X146185714Y-93761904D01*
X146233333Y-93857142D01*
X146280952Y-93904761D01*
X146376190Y-93952380D01*
X146566666Y-93952380D01*
X146661904Y-93904761D01*
X146709523Y-93857142D01*
X146757142Y-93761904D01*
X146757142Y-92952380D01*
X147185714Y-93666666D02*
X147661904Y-93666666D01*
X147090476Y-93952380D02*
X147423809Y-92952380D01*
X147757142Y-93952380D01*
X148661904Y-93952380D02*
X148328571Y-93476190D01*
X148090476Y-93952380D02*
X148090476Y-92952380D01*
X148471428Y-92952380D01*
X148566666Y-93000000D01*
X148614285Y-93047619D01*
X148661904Y-93142857D01*
X148661904Y-93285714D01*
X148614285Y-93380952D01*
X148566666Y-93428571D01*
X148471428Y-93476190D01*
X148090476Y-93476190D01*
X149090476Y-93952380D02*
X149090476Y-92952380D01*
X149328571Y-92952380D01*
X149471428Y-93000000D01*
X149566666Y-93095238D01*
X149614285Y-93190476D01*
X149661904Y-93380952D01*
X149661904Y-93523809D01*
X149614285Y-93714285D01*
X149566666Y-93809523D01*
X149471428Y-93904761D01*
X149328571Y-93952380D01*
X149090476Y-93952380D01*
X125585714Y-93952380D02*
X125109523Y-93952380D01*
X125109523Y-92952380D01*
X126490476Y-93857142D02*
X126442857Y-93904761D01*
X126300000Y-93952380D01*
X126204761Y-93952380D01*
X126061904Y-93904761D01*
X125966666Y-93809523D01*
X125919047Y-93714285D01*
X125871428Y-93523809D01*
X125871428Y-93380952D01*
X125919047Y-93190476D01*
X125966666Y-93095238D01*
X126061904Y-93000000D01*
X126204761Y-92952380D01*
X126300000Y-92952380D01*
X126442857Y-93000000D01*
X126490476Y-93047619D01*
X126919047Y-92952380D02*
X126919047Y-93761904D01*
X126966666Y-93857142D01*
X127014285Y-93904761D01*
X127109523Y-93952380D01*
X127300000Y-93952380D01*
X127395238Y-93904761D01*
X127442857Y-93857142D01*
X127490476Y-93761904D01*
X127490476Y-92952380D01*
X128538095Y-93952380D02*
X128204761Y-93476190D01*
X127966666Y-93952380D02*
X127966666Y-92952380D01*
X128347619Y-92952380D01*
X128442857Y-93000000D01*
X128490476Y-93047619D01*
X128538095Y-93142857D01*
X128538095Y-93285714D01*
X128490476Y-93380952D01*
X128442857Y-93428571D01*
X128347619Y-93476190D01*
X127966666Y-93476190D01*
X106490476Y-93952380D02*
X106490476Y-92952380D01*
X106490476Y-93428571D02*
X107061904Y-93428571D01*
X107061904Y-93952380D02*
X107061904Y-92952380D01*
X108109523Y-93857142D02*
X108061904Y-93904761D01*
X107919047Y-93952380D01*
X107823809Y-93952380D01*
X107680952Y-93904761D01*
X107585714Y-93809523D01*
X107538095Y-93714285D01*
X107490476Y-93523809D01*
X107490476Y-93380952D01*
X107538095Y-93190476D01*
X107585714Y-93095238D01*
X107680952Y-93000000D01*
X107823809Y-92952380D01*
X107919047Y-92952380D01*
X108061904Y-93000000D01*
X108109523Y-93047619D01*
X108538095Y-92952380D02*
X108538095Y-93761904D01*
X108585714Y-93857142D01*
X108633333Y-93904761D01*
X108728571Y-93952380D01*
X108919047Y-93952380D01*
X109014285Y-93904761D01*
X109061904Y-93857142D01*
X109109523Y-93761904D01*
X109109523Y-92952380D01*
X110157142Y-93952380D02*
X109823809Y-93476190D01*
X109585714Y-93952380D02*
X109585714Y-92952380D01*
X109966666Y-92952380D01*
X110061904Y-93000000D01*
X110109523Y-93047619D01*
X110157142Y-93142857D01*
X110157142Y-93285714D01*
X110109523Y-93380952D01*
X110061904Y-93428571D01*
X109966666Y-93476190D01*
X109585714Y-93476190D01*
D11*
X125800000Y-83200000D02*
X125800000Y-78800000D01*
X130200000Y-83200000D02*
X125800000Y-83200000D01*
X130200000Y-78800000D02*
X130200000Y-83200000D01*
X125800000Y-78800000D02*
X130200000Y-78800000D01*
X103800000Y-78800000D02*
X108200000Y-78800000D01*
X108200000Y-78800000D02*
X108200000Y-83200000D01*
X108200000Y-83200000D02*
X103800000Y-83200000D01*
X103800000Y-83200000D02*
X103800000Y-78800000D01*
X103800000Y-89200000D02*
X103800000Y-84800000D01*
X108200000Y-89200000D02*
X103800000Y-89200000D01*
X108200000Y-84800000D02*
X108200000Y-89200000D01*
X103800000Y-84800000D02*
X108200000Y-84800000D01*
X119800000Y-78800000D02*
X124200000Y-78800000D01*
X124200000Y-78800000D02*
X124200000Y-83200000D01*
X124200000Y-83200000D02*
X119800000Y-83200000D01*
X119800000Y-83200000D02*
X119800000Y-78800000D01*
X119800000Y-89200000D02*
X119800000Y-84800000D01*
X124200000Y-89200000D02*
X119800000Y-89200000D01*
X124200000Y-84800000D02*
X124200000Y-89200000D01*
X119800000Y-84800000D02*
X124200000Y-84800000D01*
X109800000Y-78800000D02*
X114200000Y-78800000D01*
X114200000Y-78800000D02*
X114200000Y-83200000D01*
X114200000Y-83200000D02*
X109800000Y-83200000D01*
X109800000Y-83200000D02*
X109800000Y-78800000D01*
D10*
X131000000Y-82690476D02*
X130952380Y-82785714D01*
X130952380Y-82928571D01*
X131000000Y-83071428D01*
X131095238Y-83166666D01*
X131190476Y-83214285D01*
X131380952Y-83261904D01*
X131523809Y-83261904D01*
X131714285Y-83214285D01*
X131809523Y-83166666D01*
X131904761Y-83071428D01*
X131952380Y-82928571D01*
X131952380Y-82833333D01*
X131904761Y-82690476D01*
X131857142Y-82642857D01*
X131523809Y-82642857D01*
X131523809Y-82833333D01*
X130952380Y-82214285D02*
X131761904Y-82214285D01*
X131857142Y-82166666D01*
X131904761Y-82119047D01*
X131952380Y-82023809D01*
X131952380Y-81833333D01*
X131904761Y-81738095D01*
X131857142Y-81690476D01*
X131761904Y-81642857D01*
X130952380Y-81642857D01*
X131666666Y-81214285D02*
X131666666Y-80738095D01*
X131952380Y-81309523D02*
X130952380Y-80976190D01*
X131952380Y-80642857D01*
X131952380Y-79738095D02*
X131476190Y-80071428D01*
X131952380Y-80309523D02*
X130952380Y-80309523D01*
X130952380Y-79928571D01*
X131000000Y-79833333D01*
X131047619Y-79785714D01*
X131142857Y-79738095D01*
X131285714Y-79738095D01*
X131380952Y-79785714D01*
X131428571Y-79833333D01*
X131476190Y-79928571D01*
X131476190Y-80309523D01*
X131952380Y-79309523D02*
X130952380Y-79309523D01*
X130952380Y-79071428D01*
X131000000Y-78928571D01*
X131095238Y-78833333D01*
X131190476Y-78785714D01*
X131380952Y-78738095D01*
X131523809Y-78738095D01*
X131714285Y-78785714D01*
X131809523Y-78833333D01*
X131904761Y-78928571D01*
X131952380Y-79071428D01*
X131952380Y-79309523D01*
X102952380Y-82690476D02*
X101952380Y-82690476D01*
X102428571Y-82690476D02*
X102428571Y-82119047D01*
X102952380Y-82119047D02*
X101952380Y-82119047D01*
X102952380Y-81642857D02*
X101952380Y-81642857D01*
X101952380Y-81261904D01*
X102000000Y-81166666D01*
X102047619Y-81119047D01*
X102142857Y-81071428D01*
X102285714Y-81071428D01*
X102380952Y-81119047D01*
X102428571Y-81166666D01*
X102476190Y-81261904D01*
X102476190Y-81642857D01*
X101952380Y-80452380D02*
X101952380Y-80261904D01*
X102000000Y-80166666D01*
X102095238Y-80071428D01*
X102285714Y-80023809D01*
X102619047Y-80023809D01*
X102809523Y-80071428D01*
X102904761Y-80166666D01*
X102952380Y-80261904D01*
X102952380Y-80452380D01*
X102904761Y-80547619D01*
X102809523Y-80642857D01*
X102619047Y-80690476D01*
X102285714Y-80690476D01*
X102095238Y-80642857D01*
X102000000Y-80547619D01*
X101952380Y-80452380D01*
X101952380Y-79738095D02*
X101952380Y-79166666D01*
X102952380Y-79452380D02*
X101952380Y-79452380D01*
X102952380Y-88809523D02*
X101952380Y-88809523D01*
X102428571Y-88809523D02*
X102428571Y-88238095D01*
X102952380Y-88238095D02*
X101952380Y-88238095D01*
X102857142Y-87190476D02*
X102904761Y-87238095D01*
X102952380Y-87380952D01*
X102952380Y-87476190D01*
X102904761Y-87619047D01*
X102809523Y-87714285D01*
X102714285Y-87761904D01*
X102523809Y-87809523D01*
X102380952Y-87809523D01*
X102190476Y-87761904D01*
X102095238Y-87714285D01*
X102000000Y-87619047D01*
X101952380Y-87476190D01*
X101952380Y-87380952D01*
X102000000Y-87238095D01*
X102047619Y-87190476D01*
X101952380Y-86761904D02*
X102761904Y-86761904D01*
X102857142Y-86714285D01*
X102904761Y-86666666D01*
X102952380Y-86571428D01*
X102952380Y-86380952D01*
X102904761Y-86285714D01*
X102857142Y-86238095D01*
X102761904Y-86190476D01*
X101952380Y-86190476D01*
X102952380Y-85142857D02*
X102476190Y-85476190D01*
X102952380Y-85714285D02*
X101952380Y-85714285D01*
X101952380Y-85333333D01*
X102000000Y-85238095D01*
X102047619Y-85190476D01*
X102142857Y-85142857D01*
X102285714Y-85142857D01*
X102380952Y-85190476D01*
X102428571Y-85238095D01*
X102476190Y-85333333D01*
X102476190Y-85714285D01*
X118952380Y-82095238D02*
X118952380Y-82571428D01*
X117952380Y-82571428D01*
X118952380Y-81761904D02*
X117952380Y-81761904D01*
X117952380Y-81380952D01*
X118000000Y-81285714D01*
X118047619Y-81238095D01*
X118142857Y-81190476D01*
X118285714Y-81190476D01*
X118380952Y-81238095D01*
X118428571Y-81285714D01*
X118476190Y-81380952D01*
X118476190Y-81761904D01*
X117952380Y-80571428D02*
X117952380Y-80380952D01*
X118000000Y-80285714D01*
X118095238Y-80190476D01*
X118285714Y-80142857D01*
X118619047Y-80142857D01*
X118809523Y-80190476D01*
X118904761Y-80285714D01*
X118952380Y-80380952D01*
X118952380Y-80571428D01*
X118904761Y-80666666D01*
X118809523Y-80761904D01*
X118619047Y-80809523D01*
X118285714Y-80809523D01*
X118095238Y-80761904D01*
X118000000Y-80666666D01*
X117952380Y-80571428D01*
X117952380Y-79857142D02*
X117952380Y-79285714D01*
X118952380Y-79571428D02*
X117952380Y-79571428D01*
X118952380Y-88214285D02*
X118952380Y-88690476D01*
X117952380Y-88690476D01*
X118857142Y-87309523D02*
X118904761Y-87357142D01*
X118952380Y-87500000D01*
X118952380Y-87595238D01*
X118904761Y-87738095D01*
X118809523Y-87833333D01*
X118714285Y-87880952D01*
X118523809Y-87928571D01*
X118380952Y-87928571D01*
X118190476Y-87880952D01*
X118095238Y-87833333D01*
X118000000Y-87738095D01*
X117952380Y-87595238D01*
X117952380Y-87500000D01*
X118000000Y-87357142D01*
X118047619Y-87309523D01*
X117952380Y-86880952D02*
X118761904Y-86880952D01*
X118857142Y-86833333D01*
X118904761Y-86785714D01*
X118952380Y-86690476D01*
X118952380Y-86500000D01*
X118904761Y-86404761D01*
X118857142Y-86357142D01*
X118761904Y-86309523D01*
X117952380Y-86309523D01*
X118952380Y-85261904D02*
X118476190Y-85595238D01*
X118952380Y-85833333D02*
X117952380Y-85833333D01*
X117952380Y-85452380D01*
X118000000Y-85357142D01*
X118047619Y-85309523D01*
X118142857Y-85261904D01*
X118285714Y-85261904D01*
X118380952Y-85309523D01*
X118428571Y-85357142D01*
X118476190Y-85452380D01*
X118476190Y-85833333D01*
X110309523Y-84000000D02*
X110214285Y-83952380D01*
X110071428Y-83952380D01*
X109928571Y-84000000D01*
X109833333Y-84095238D01*
X109785714Y-84190476D01*
X109738095Y-84380952D01*
X109738095Y-84523809D01*
X109785714Y-84714285D01*
X109833333Y-84809523D01*
X109928571Y-84904761D01*
X110071428Y-84952380D01*
X110166666Y-84952380D01*
X110309523Y-84904761D01*
X110357142Y-84857142D01*
X110357142Y-84523809D01*
X110166666Y-84523809D01*
X110785714Y-83952380D02*
X110785714Y-84761904D01*
X110833333Y-84857142D01*
X110880952Y-84904761D01*
X110976190Y-84952380D01*
X111166666Y-84952380D01*
X111261904Y-84904761D01*
X111309523Y-84857142D01*
X111357142Y-84761904D01*
X111357142Y-83952380D01*
X111785714Y-84666666D02*
X112261904Y-84666666D01*
X111690476Y-84952380D02*
X112023809Y-83952380D01*
X112357142Y-84952380D01*
X113261904Y-84952380D02*
X112928571Y-84476190D01*
X112690476Y-84952380D02*
X112690476Y-83952380D01*
X113071428Y-83952380D01*
X113166666Y-84000000D01*
X113214285Y-84047619D01*
X113261904Y-84142857D01*
X113261904Y-84285714D01*
X113214285Y-84380952D01*
X113166666Y-84428571D01*
X113071428Y-84476190D01*
X112690476Y-84476190D01*
X113690476Y-84952380D02*
X113690476Y-83952380D01*
X113928571Y-83952380D01*
X114071428Y-84000000D01*
X114166666Y-84095238D01*
X114214285Y-84190476D01*
X114261904Y-84380952D01*
X114261904Y-84523809D01*
X114214285Y-84714285D01*
X114166666Y-84809523D01*
X114071428Y-84904761D01*
X113928571Y-84952380D01*
X113690476Y-84952380D01*
M02*
