G04 #@! TF.GenerationSoftware,KiCad,Pcbnew,(5.1.5)-3*
G04 #@! TF.CreationDate,2020-06-04T11:53:39+03:00*
G04 #@! TF.ProjectId,kelvin,6b656c76-696e-42e6-9b69-6361645f7063,rev?*
G04 #@! TF.SameCoordinates,Original*
G04 #@! TF.FileFunction,Copper,L2,Bot*
G04 #@! TF.FilePolarity,Positive*
%FSLAX46Y46*%
G04 Gerber Fmt 4.6, Leading zero omitted, Abs format (unit mm)*
G04 Created by KiCad (PCBNEW (5.1.5)-3) date 2020-06-04 11:53:39*
%MOMM*%
%LPD*%
G04 APERTURE LIST*
%ADD10C,2.100000*%
%ADD11C,3.200000*%
%ADD12C,1.000000*%
%ADD13C,0.600000*%
%ADD14C,1.000000*%
%ADD15C,0.254000*%
G04 APERTURE END LIST*
D10*
X127000000Y-87000000D03*
D11*
X146000000Y-89000000D03*
X146000000Y-80000000D03*
D12*
X105000000Y-82000000D03*
X121000000Y-82000000D03*
D13*
X147000000Y-93000000D03*
X151500000Y-93000000D03*
X142000000Y-93000000D03*
X139500000Y-91000000D03*
X130500000Y-91000000D03*
X124000000Y-91000000D03*
X120500000Y-91000000D03*
X107500000Y-91000000D03*
X104500000Y-91000000D03*
X102500000Y-91000000D03*
X102500000Y-78000000D03*
X117500000Y-78000000D03*
X132000000Y-78000000D03*
X151500000Y-78000000D03*
X113500000Y-91000000D03*
X151500000Y-85000000D03*
X102500000Y-84000000D03*
D14*
X105000000Y-82000000D02*
X106000000Y-83000000D01*
X106000000Y-83000000D02*
X106000000Y-94000000D01*
X121000000Y-82000000D02*
X122000000Y-83000000D01*
X122000000Y-83000000D02*
X122000000Y-94000000D01*
D15*
G36*
X152873000Y-93839466D02*
G01*
X152867581Y-93840000D01*
X152770617Y-93849550D01*
X152646207Y-93887290D01*
X152531550Y-93948575D01*
X152431052Y-94031052D01*
X152348575Y-94131550D01*
X152287290Y-94246207D01*
X152249550Y-94370617D01*
X152236807Y-94500000D01*
X152240000Y-94532419D01*
X152240001Y-107967711D01*
X152211375Y-108259660D01*
X152135965Y-108509429D01*
X152013477Y-108739794D01*
X151848579Y-108941979D01*
X151647546Y-109108288D01*
X151418046Y-109232378D01*
X151168805Y-109309531D01*
X150878911Y-109340000D01*
X142732279Y-109340000D01*
X142440340Y-109311375D01*
X142190571Y-109235965D01*
X141960206Y-109113477D01*
X141758021Y-108948579D01*
X141591712Y-108747546D01*
X141467622Y-108518046D01*
X141390469Y-108268805D01*
X141360000Y-107978911D01*
X141360000Y-94532419D01*
X141363193Y-94500000D01*
X141350450Y-94370617D01*
X141312710Y-94246207D01*
X141251425Y-94131550D01*
X141168948Y-94031052D01*
X141068450Y-93948575D01*
X140953793Y-93887290D01*
X140829383Y-93849550D01*
X140732419Y-93840000D01*
X140700000Y-93836807D01*
X140667581Y-93840000D01*
X140627000Y-93840000D01*
X140627000Y-93000000D01*
X140624560Y-92975224D01*
X140617333Y-92951399D01*
X140605597Y-92929443D01*
X140589803Y-92910197D01*
X140570557Y-92894403D01*
X140548601Y-92882667D01*
X140524776Y-92875440D01*
X140500000Y-92873000D01*
X140127000Y-92873000D01*
X140127000Y-91500000D01*
X140124560Y-91475224D01*
X140117333Y-91451399D01*
X140105597Y-91429443D01*
X140089803Y-91410197D01*
X140070557Y-91394403D01*
X140048601Y-91382667D01*
X140024776Y-91375440D01*
X140000000Y-91373000D01*
X123135000Y-91373000D01*
X123135000Y-88779872D01*
X143765000Y-88779872D01*
X143765000Y-89220128D01*
X143850890Y-89651925D01*
X144019369Y-90058669D01*
X144263962Y-90424729D01*
X144575271Y-90736038D01*
X144941331Y-90980631D01*
X145348075Y-91149110D01*
X145779872Y-91235000D01*
X146220128Y-91235000D01*
X146651925Y-91149110D01*
X147058669Y-90980631D01*
X147424729Y-90736038D01*
X147736038Y-90424729D01*
X147980631Y-90058669D01*
X148149110Y-89651925D01*
X148235000Y-89220128D01*
X148235000Y-88779872D01*
X148149110Y-88348075D01*
X147980631Y-87941331D01*
X147736038Y-87575271D01*
X147424729Y-87263962D01*
X147058669Y-87019369D01*
X146651925Y-86850890D01*
X146220128Y-86765000D01*
X145779872Y-86765000D01*
X145348075Y-86850890D01*
X144941331Y-87019369D01*
X144575271Y-87263962D01*
X144263962Y-87575271D01*
X144019369Y-87941331D01*
X143850890Y-88348075D01*
X143765000Y-88779872D01*
X123135000Y-88779872D01*
X123135000Y-86834042D01*
X125315000Y-86834042D01*
X125315000Y-87165958D01*
X125379754Y-87491496D01*
X125506772Y-87798147D01*
X125691175Y-88074125D01*
X125925875Y-88308825D01*
X126201853Y-88493228D01*
X126508504Y-88620246D01*
X126834042Y-88685000D01*
X127165958Y-88685000D01*
X127491496Y-88620246D01*
X127798147Y-88493228D01*
X128074125Y-88308825D01*
X128308825Y-88074125D01*
X128493228Y-87798147D01*
X128620246Y-87491496D01*
X128685000Y-87165958D01*
X128685000Y-86834042D01*
X128620246Y-86508504D01*
X128493228Y-86201853D01*
X128308825Y-85925875D01*
X128074125Y-85691175D01*
X127798147Y-85506772D01*
X127491496Y-85379754D01*
X127165958Y-85315000D01*
X126834042Y-85315000D01*
X126508504Y-85379754D01*
X126201853Y-85506772D01*
X125925875Y-85691175D01*
X125691175Y-85925875D01*
X125506772Y-86201853D01*
X125379754Y-86508504D01*
X125315000Y-86834042D01*
X123135000Y-86834042D01*
X123135000Y-83055752D01*
X123140491Y-83000000D01*
X123118577Y-82777501D01*
X123053676Y-82563553D01*
X122948284Y-82366377D01*
X122841989Y-82236856D01*
X122841987Y-82236854D01*
X122806449Y-82193551D01*
X122763145Y-82158013D01*
X121723520Y-81118388D01*
X121676921Y-81087251D01*
X121633622Y-81051717D01*
X121584224Y-81025313D01*
X121537624Y-80994176D01*
X121485845Y-80972728D01*
X121436446Y-80946324D01*
X121382845Y-80930064D01*
X121331067Y-80908617D01*
X121276103Y-80897684D01*
X121222498Y-80881423D01*
X121166748Y-80875932D01*
X121111788Y-80865000D01*
X121055751Y-80865000D01*
X121000000Y-80859509D01*
X120944249Y-80865000D01*
X120888212Y-80865000D01*
X120833252Y-80875932D01*
X120777502Y-80881423D01*
X120723897Y-80897684D01*
X120668933Y-80908617D01*
X120617155Y-80930064D01*
X120563554Y-80946324D01*
X120514155Y-80972728D01*
X120462376Y-80994176D01*
X120415776Y-81025313D01*
X120366378Y-81051717D01*
X120323080Y-81087251D01*
X120276480Y-81118388D01*
X120236849Y-81158019D01*
X120193552Y-81193552D01*
X120158019Y-81236849D01*
X120118388Y-81276480D01*
X120087251Y-81323080D01*
X120051717Y-81366378D01*
X120025313Y-81415776D01*
X119994176Y-81462376D01*
X119972728Y-81514155D01*
X119946324Y-81563554D01*
X119930064Y-81617155D01*
X119908617Y-81668933D01*
X119897684Y-81723897D01*
X119881423Y-81777502D01*
X119875932Y-81833252D01*
X119865000Y-81888212D01*
X119865000Y-81944249D01*
X119859509Y-82000000D01*
X119865000Y-82055751D01*
X119865000Y-82111788D01*
X119875932Y-82166748D01*
X119881423Y-82222498D01*
X119897684Y-82276103D01*
X119908617Y-82331067D01*
X119930064Y-82382845D01*
X119946324Y-82436446D01*
X119972728Y-82485845D01*
X119994176Y-82537624D01*
X120025313Y-82584224D01*
X120051717Y-82633622D01*
X120087251Y-82676921D01*
X120118388Y-82723520D01*
X120865000Y-83470132D01*
X120865001Y-91373000D01*
X107135000Y-91373000D01*
X107135000Y-83055752D01*
X107140491Y-83000000D01*
X107118577Y-82777501D01*
X107053676Y-82563553D01*
X106948284Y-82366377D01*
X106841989Y-82236856D01*
X106841987Y-82236854D01*
X106806449Y-82193551D01*
X106763145Y-82158013D01*
X105723520Y-81118388D01*
X105676921Y-81087251D01*
X105633622Y-81051717D01*
X105584224Y-81025313D01*
X105537624Y-80994176D01*
X105485845Y-80972728D01*
X105436446Y-80946324D01*
X105382845Y-80930064D01*
X105331067Y-80908617D01*
X105276103Y-80897684D01*
X105222498Y-80881423D01*
X105166748Y-80875932D01*
X105111788Y-80865000D01*
X105055751Y-80865000D01*
X105000000Y-80859509D01*
X104944249Y-80865000D01*
X104888212Y-80865000D01*
X104833252Y-80875932D01*
X104777502Y-80881423D01*
X104723897Y-80897684D01*
X104668933Y-80908617D01*
X104617155Y-80930064D01*
X104563554Y-80946324D01*
X104514155Y-80972728D01*
X104462376Y-80994176D01*
X104415776Y-81025313D01*
X104366378Y-81051717D01*
X104323080Y-81087251D01*
X104276480Y-81118388D01*
X104236849Y-81158019D01*
X104193552Y-81193552D01*
X104158019Y-81236849D01*
X104118388Y-81276480D01*
X104087251Y-81323080D01*
X104051717Y-81366378D01*
X104025313Y-81415776D01*
X103994176Y-81462376D01*
X103972728Y-81514155D01*
X103946324Y-81563554D01*
X103930064Y-81617155D01*
X103908617Y-81668933D01*
X103897684Y-81723897D01*
X103881423Y-81777502D01*
X103875932Y-81833252D01*
X103865000Y-81888212D01*
X103865000Y-81944249D01*
X103859509Y-82000000D01*
X103865000Y-82055751D01*
X103865000Y-82111788D01*
X103875932Y-82166748D01*
X103881423Y-82222498D01*
X103897684Y-82276103D01*
X103908617Y-82331067D01*
X103930064Y-82382845D01*
X103946324Y-82436446D01*
X103972728Y-82485845D01*
X103994176Y-82537624D01*
X104025313Y-82584224D01*
X104051717Y-82633622D01*
X104087251Y-82676921D01*
X104118388Y-82723520D01*
X104865000Y-83470132D01*
X104865001Y-91373000D01*
X101127000Y-91373000D01*
X101127000Y-79779872D01*
X143765000Y-79779872D01*
X143765000Y-80220128D01*
X143850890Y-80651925D01*
X144019369Y-81058669D01*
X144263962Y-81424729D01*
X144575271Y-81736038D01*
X144941331Y-81980631D01*
X145348075Y-82149110D01*
X145779872Y-82235000D01*
X146220128Y-82235000D01*
X146651925Y-82149110D01*
X147058669Y-81980631D01*
X147424729Y-81736038D01*
X147736038Y-81424729D01*
X147980631Y-81058669D01*
X148149110Y-80651925D01*
X148235000Y-80220128D01*
X148235000Y-79779872D01*
X148149110Y-79348075D01*
X147980631Y-78941331D01*
X147736038Y-78575271D01*
X147424729Y-78263962D01*
X147058669Y-78019369D01*
X146651925Y-77850890D01*
X146220128Y-77765000D01*
X145779872Y-77765000D01*
X145348075Y-77850890D01*
X144941331Y-78019369D01*
X144575271Y-78263962D01*
X144263962Y-78575271D01*
X144019369Y-78941331D01*
X143850890Y-79348075D01*
X143765000Y-79779872D01*
X101127000Y-79779872D01*
X101127000Y-77660000D01*
X152873000Y-77660000D01*
X152873000Y-93839466D01*
G37*
X152873000Y-93839466D02*
X152867581Y-93840000D01*
X152770617Y-93849550D01*
X152646207Y-93887290D01*
X152531550Y-93948575D01*
X152431052Y-94031052D01*
X152348575Y-94131550D01*
X152287290Y-94246207D01*
X152249550Y-94370617D01*
X152236807Y-94500000D01*
X152240000Y-94532419D01*
X152240001Y-107967711D01*
X152211375Y-108259660D01*
X152135965Y-108509429D01*
X152013477Y-108739794D01*
X151848579Y-108941979D01*
X151647546Y-109108288D01*
X151418046Y-109232378D01*
X151168805Y-109309531D01*
X150878911Y-109340000D01*
X142732279Y-109340000D01*
X142440340Y-109311375D01*
X142190571Y-109235965D01*
X141960206Y-109113477D01*
X141758021Y-108948579D01*
X141591712Y-108747546D01*
X141467622Y-108518046D01*
X141390469Y-108268805D01*
X141360000Y-107978911D01*
X141360000Y-94532419D01*
X141363193Y-94500000D01*
X141350450Y-94370617D01*
X141312710Y-94246207D01*
X141251425Y-94131550D01*
X141168948Y-94031052D01*
X141068450Y-93948575D01*
X140953793Y-93887290D01*
X140829383Y-93849550D01*
X140732419Y-93840000D01*
X140700000Y-93836807D01*
X140667581Y-93840000D01*
X140627000Y-93840000D01*
X140627000Y-93000000D01*
X140624560Y-92975224D01*
X140617333Y-92951399D01*
X140605597Y-92929443D01*
X140589803Y-92910197D01*
X140570557Y-92894403D01*
X140548601Y-92882667D01*
X140524776Y-92875440D01*
X140500000Y-92873000D01*
X140127000Y-92873000D01*
X140127000Y-91500000D01*
X140124560Y-91475224D01*
X140117333Y-91451399D01*
X140105597Y-91429443D01*
X140089803Y-91410197D01*
X140070557Y-91394403D01*
X140048601Y-91382667D01*
X140024776Y-91375440D01*
X140000000Y-91373000D01*
X123135000Y-91373000D01*
X123135000Y-88779872D01*
X143765000Y-88779872D01*
X143765000Y-89220128D01*
X143850890Y-89651925D01*
X144019369Y-90058669D01*
X144263962Y-90424729D01*
X144575271Y-90736038D01*
X144941331Y-90980631D01*
X145348075Y-91149110D01*
X145779872Y-91235000D01*
X146220128Y-91235000D01*
X146651925Y-91149110D01*
X147058669Y-90980631D01*
X147424729Y-90736038D01*
X147736038Y-90424729D01*
X147980631Y-90058669D01*
X148149110Y-89651925D01*
X148235000Y-89220128D01*
X148235000Y-88779872D01*
X148149110Y-88348075D01*
X147980631Y-87941331D01*
X147736038Y-87575271D01*
X147424729Y-87263962D01*
X147058669Y-87019369D01*
X146651925Y-86850890D01*
X146220128Y-86765000D01*
X145779872Y-86765000D01*
X145348075Y-86850890D01*
X144941331Y-87019369D01*
X144575271Y-87263962D01*
X144263962Y-87575271D01*
X144019369Y-87941331D01*
X143850890Y-88348075D01*
X143765000Y-88779872D01*
X123135000Y-88779872D01*
X123135000Y-86834042D01*
X125315000Y-86834042D01*
X125315000Y-87165958D01*
X125379754Y-87491496D01*
X125506772Y-87798147D01*
X125691175Y-88074125D01*
X125925875Y-88308825D01*
X126201853Y-88493228D01*
X126508504Y-88620246D01*
X126834042Y-88685000D01*
X127165958Y-88685000D01*
X127491496Y-88620246D01*
X127798147Y-88493228D01*
X128074125Y-88308825D01*
X128308825Y-88074125D01*
X128493228Y-87798147D01*
X128620246Y-87491496D01*
X128685000Y-87165958D01*
X128685000Y-86834042D01*
X128620246Y-86508504D01*
X128493228Y-86201853D01*
X128308825Y-85925875D01*
X128074125Y-85691175D01*
X127798147Y-85506772D01*
X127491496Y-85379754D01*
X127165958Y-85315000D01*
X126834042Y-85315000D01*
X126508504Y-85379754D01*
X126201853Y-85506772D01*
X125925875Y-85691175D01*
X125691175Y-85925875D01*
X125506772Y-86201853D01*
X125379754Y-86508504D01*
X125315000Y-86834042D01*
X123135000Y-86834042D01*
X123135000Y-83055752D01*
X123140491Y-83000000D01*
X123118577Y-82777501D01*
X123053676Y-82563553D01*
X122948284Y-82366377D01*
X122841989Y-82236856D01*
X122841987Y-82236854D01*
X122806449Y-82193551D01*
X122763145Y-82158013D01*
X121723520Y-81118388D01*
X121676921Y-81087251D01*
X121633622Y-81051717D01*
X121584224Y-81025313D01*
X121537624Y-80994176D01*
X121485845Y-80972728D01*
X121436446Y-80946324D01*
X121382845Y-80930064D01*
X121331067Y-80908617D01*
X121276103Y-80897684D01*
X121222498Y-80881423D01*
X121166748Y-80875932D01*
X121111788Y-80865000D01*
X121055751Y-80865000D01*
X121000000Y-80859509D01*
X120944249Y-80865000D01*
X120888212Y-80865000D01*
X120833252Y-80875932D01*
X120777502Y-80881423D01*
X120723897Y-80897684D01*
X120668933Y-80908617D01*
X120617155Y-80930064D01*
X120563554Y-80946324D01*
X120514155Y-80972728D01*
X120462376Y-80994176D01*
X120415776Y-81025313D01*
X120366378Y-81051717D01*
X120323080Y-81087251D01*
X120276480Y-81118388D01*
X120236849Y-81158019D01*
X120193552Y-81193552D01*
X120158019Y-81236849D01*
X120118388Y-81276480D01*
X120087251Y-81323080D01*
X120051717Y-81366378D01*
X120025313Y-81415776D01*
X119994176Y-81462376D01*
X119972728Y-81514155D01*
X119946324Y-81563554D01*
X119930064Y-81617155D01*
X119908617Y-81668933D01*
X119897684Y-81723897D01*
X119881423Y-81777502D01*
X119875932Y-81833252D01*
X119865000Y-81888212D01*
X119865000Y-81944249D01*
X119859509Y-82000000D01*
X119865000Y-82055751D01*
X119865000Y-82111788D01*
X119875932Y-82166748D01*
X119881423Y-82222498D01*
X119897684Y-82276103D01*
X119908617Y-82331067D01*
X119930064Y-82382845D01*
X119946324Y-82436446D01*
X119972728Y-82485845D01*
X119994176Y-82537624D01*
X120025313Y-82584224D01*
X120051717Y-82633622D01*
X120087251Y-82676921D01*
X120118388Y-82723520D01*
X120865000Y-83470132D01*
X120865001Y-91373000D01*
X107135000Y-91373000D01*
X107135000Y-83055752D01*
X107140491Y-83000000D01*
X107118577Y-82777501D01*
X107053676Y-82563553D01*
X106948284Y-82366377D01*
X106841989Y-82236856D01*
X106841987Y-82236854D01*
X106806449Y-82193551D01*
X106763145Y-82158013D01*
X105723520Y-81118388D01*
X105676921Y-81087251D01*
X105633622Y-81051717D01*
X105584224Y-81025313D01*
X105537624Y-80994176D01*
X105485845Y-80972728D01*
X105436446Y-80946324D01*
X105382845Y-80930064D01*
X105331067Y-80908617D01*
X105276103Y-80897684D01*
X105222498Y-80881423D01*
X105166748Y-80875932D01*
X105111788Y-80865000D01*
X105055751Y-80865000D01*
X105000000Y-80859509D01*
X104944249Y-80865000D01*
X104888212Y-80865000D01*
X104833252Y-80875932D01*
X104777502Y-80881423D01*
X104723897Y-80897684D01*
X104668933Y-80908617D01*
X104617155Y-80930064D01*
X104563554Y-80946324D01*
X104514155Y-80972728D01*
X104462376Y-80994176D01*
X104415776Y-81025313D01*
X104366378Y-81051717D01*
X104323080Y-81087251D01*
X104276480Y-81118388D01*
X104236849Y-81158019D01*
X104193552Y-81193552D01*
X104158019Y-81236849D01*
X104118388Y-81276480D01*
X104087251Y-81323080D01*
X104051717Y-81366378D01*
X104025313Y-81415776D01*
X103994176Y-81462376D01*
X103972728Y-81514155D01*
X103946324Y-81563554D01*
X103930064Y-81617155D01*
X103908617Y-81668933D01*
X103897684Y-81723897D01*
X103881423Y-81777502D01*
X103875932Y-81833252D01*
X103865000Y-81888212D01*
X103865000Y-81944249D01*
X103859509Y-82000000D01*
X103865000Y-82055751D01*
X103865000Y-82111788D01*
X103875932Y-82166748D01*
X103881423Y-82222498D01*
X103897684Y-82276103D01*
X103908617Y-82331067D01*
X103930064Y-82382845D01*
X103946324Y-82436446D01*
X103972728Y-82485845D01*
X103994176Y-82537624D01*
X104025313Y-82584224D01*
X104051717Y-82633622D01*
X104087251Y-82676921D01*
X104118388Y-82723520D01*
X104865000Y-83470132D01*
X104865001Y-91373000D01*
X101127000Y-91373000D01*
X101127000Y-79779872D01*
X143765000Y-79779872D01*
X143765000Y-80220128D01*
X143850890Y-80651925D01*
X144019369Y-81058669D01*
X144263962Y-81424729D01*
X144575271Y-81736038D01*
X144941331Y-81980631D01*
X145348075Y-82149110D01*
X145779872Y-82235000D01*
X146220128Y-82235000D01*
X146651925Y-82149110D01*
X147058669Y-81980631D01*
X147424729Y-81736038D01*
X147736038Y-81424729D01*
X147980631Y-81058669D01*
X148149110Y-80651925D01*
X148235000Y-80220128D01*
X148235000Y-79779872D01*
X148149110Y-79348075D01*
X147980631Y-78941331D01*
X147736038Y-78575271D01*
X147424729Y-78263962D01*
X147058669Y-78019369D01*
X146651925Y-77850890D01*
X146220128Y-77765000D01*
X145779872Y-77765000D01*
X145348075Y-77850890D01*
X144941331Y-78019369D01*
X144575271Y-78263962D01*
X144263962Y-78575271D01*
X144019369Y-78941331D01*
X143850890Y-79348075D01*
X143765000Y-79779872D01*
X101127000Y-79779872D01*
X101127000Y-77660000D01*
X152873000Y-77660000D01*
X152873000Y-93839466D01*
G36*
X133873000Y-93879162D02*
G01*
X133846207Y-93887290D01*
X133731550Y-93948575D01*
X133631052Y-94031052D01*
X133548575Y-94131550D01*
X133487290Y-94246207D01*
X133449550Y-94370617D01*
X133436807Y-94500000D01*
X133440001Y-94532429D01*
X133440000Y-96032418D01*
X133440001Y-96032428D01*
X133440000Y-107967721D01*
X133411375Y-108259660D01*
X133335965Y-108509429D01*
X133213477Y-108739794D01*
X133048579Y-108941979D01*
X132847546Y-109108288D01*
X132618046Y-109232378D01*
X132368805Y-109309531D01*
X132078911Y-109340000D01*
X121932279Y-109340000D01*
X121640340Y-109311375D01*
X121390571Y-109235965D01*
X121160206Y-109113477D01*
X120958021Y-108948579D01*
X120791712Y-108747546D01*
X120667622Y-108518046D01*
X120590469Y-108268805D01*
X120560000Y-107978911D01*
X120560000Y-96032418D01*
X120563193Y-96000000D01*
X120560000Y-95967581D01*
X120560000Y-94532419D01*
X120563193Y-94500000D01*
X120550450Y-94370617D01*
X120512710Y-94246207D01*
X120451425Y-94131550D01*
X120368948Y-94031052D01*
X120268450Y-93948575D01*
X120153793Y-93887290D01*
X120127000Y-93879162D01*
X120127000Y-92627000D01*
X133873000Y-92627000D01*
X133873000Y-93879162D01*
G37*
X133873000Y-93879162D02*
X133846207Y-93887290D01*
X133731550Y-93948575D01*
X133631052Y-94031052D01*
X133548575Y-94131550D01*
X133487290Y-94246207D01*
X133449550Y-94370617D01*
X133436807Y-94500000D01*
X133440001Y-94532429D01*
X133440000Y-96032418D01*
X133440001Y-96032428D01*
X133440000Y-107967721D01*
X133411375Y-108259660D01*
X133335965Y-108509429D01*
X133213477Y-108739794D01*
X133048579Y-108941979D01*
X132847546Y-109108288D01*
X132618046Y-109232378D01*
X132368805Y-109309531D01*
X132078911Y-109340000D01*
X121932279Y-109340000D01*
X121640340Y-109311375D01*
X121390571Y-109235965D01*
X121160206Y-109113477D01*
X120958021Y-108948579D01*
X120791712Y-108747546D01*
X120667622Y-108518046D01*
X120590469Y-108268805D01*
X120560000Y-107978911D01*
X120560000Y-96032418D01*
X120563193Y-96000000D01*
X120560000Y-95967581D01*
X120560000Y-94532419D01*
X120563193Y-94500000D01*
X120550450Y-94370617D01*
X120512710Y-94246207D01*
X120451425Y-94131550D01*
X120368948Y-94031052D01*
X120268450Y-93948575D01*
X120153793Y-93887290D01*
X120127000Y-93879162D01*
X120127000Y-92627000D01*
X133873000Y-92627000D01*
X133873000Y-93879162D01*
G36*
X115373000Y-93840000D02*
G01*
X115332419Y-93840000D01*
X115300000Y-93836807D01*
X115267581Y-93840000D01*
X115170617Y-93849550D01*
X115046207Y-93887290D01*
X114931550Y-93948575D01*
X114831052Y-94031052D01*
X114748575Y-94131550D01*
X114687290Y-94246207D01*
X114649550Y-94370617D01*
X114636807Y-94500000D01*
X114640001Y-94532429D01*
X114640000Y-96032418D01*
X114640001Y-96032428D01*
X114640000Y-107967721D01*
X114611375Y-108259660D01*
X114535965Y-108509429D01*
X114413477Y-108739794D01*
X114248579Y-108941979D01*
X114047546Y-109108288D01*
X113818046Y-109232378D01*
X113568805Y-109309531D01*
X113278911Y-109340000D01*
X103132279Y-109340000D01*
X102840340Y-109311375D01*
X102590571Y-109235965D01*
X102360206Y-109113477D01*
X102158021Y-108948579D01*
X101991712Y-108747546D01*
X101867622Y-108518046D01*
X101790469Y-108268805D01*
X101760000Y-107978911D01*
X101760000Y-94532419D01*
X101763193Y-94500000D01*
X101750450Y-94370617D01*
X101712710Y-94246207D01*
X101651425Y-94131550D01*
X101568948Y-94031052D01*
X101468450Y-93948575D01*
X101353793Y-93887290D01*
X101229383Y-93849550D01*
X101132419Y-93840000D01*
X101127000Y-93839466D01*
X101127000Y-92627000D01*
X115373000Y-92627000D01*
X115373000Y-93840000D01*
G37*
X115373000Y-93840000D02*
X115332419Y-93840000D01*
X115300000Y-93836807D01*
X115267581Y-93840000D01*
X115170617Y-93849550D01*
X115046207Y-93887290D01*
X114931550Y-93948575D01*
X114831052Y-94031052D01*
X114748575Y-94131550D01*
X114687290Y-94246207D01*
X114649550Y-94370617D01*
X114636807Y-94500000D01*
X114640001Y-94532429D01*
X114640000Y-96032418D01*
X114640001Y-96032428D01*
X114640000Y-107967721D01*
X114611375Y-108259660D01*
X114535965Y-108509429D01*
X114413477Y-108739794D01*
X114248579Y-108941979D01*
X114047546Y-109108288D01*
X113818046Y-109232378D01*
X113568805Y-109309531D01*
X113278911Y-109340000D01*
X103132279Y-109340000D01*
X102840340Y-109311375D01*
X102590571Y-109235965D01*
X102360206Y-109113477D01*
X102158021Y-108948579D01*
X101991712Y-108747546D01*
X101867622Y-108518046D01*
X101790469Y-108268805D01*
X101760000Y-107978911D01*
X101760000Y-94532419D01*
X101763193Y-94500000D01*
X101750450Y-94370617D01*
X101712710Y-94246207D01*
X101651425Y-94131550D01*
X101568948Y-94031052D01*
X101468450Y-93948575D01*
X101353793Y-93887290D01*
X101229383Y-93849550D01*
X101132419Y-93840000D01*
X101127000Y-93839466D01*
X101127000Y-92627000D01*
X115373000Y-92627000D01*
X115373000Y-93840000D01*
M02*
